<svg width="400" height="519" viewBox="0 0 400 519" fill="none" xmlns="http://www.w3.org/2000/svg">
<rect width="400" height="519" rx="10" fill="#F5F6FA"/>
<rect x="305" y="421" width="18" height="6" fill="#4252E2" fill-opacity="0.6"/>
<rect x="311" y="433" width="18" height="6" transform="rotate(-90 311 433)" fill="#4252E2" fill-opacity="0.6"/>
<path d="M115.01 66.5723C115.01 69.6445 117.066 72.6406 120.494 73.834L119.174 75.7129C116.686 74.7607 114.832 72.8818 113.867 70.5078C112.877 73.1484 110.935 75.2305 108.256 76.2461L106.961 74.3418C110.49 73.0723 112.598 69.9238 112.623 66.4961V63.8047H115.01V66.5723ZM125.953 62.4336V79.3945H123.541V69.5938H118.742V67.6133H123.541V62.4336H125.953ZM126.461 82.7207V84.6758H111.1V77.4902H113.537V82.7207H126.461ZM136.154 66.7754C136.154 69.2637 137.754 71.7773 140.699 72.8945L139.43 74.748C137.309 73.9355 135.824 72.3867 135.012 70.5078C134.174 72.6279 132.612 74.4688 130.416 75.4082L129.096 73.5293C132.168 72.1836 133.818 69.3145 133.818 66.7754V63.8301H136.154V66.7754ZM148.596 62.4336V76.4238H146.31V70.3301H143.644V75.7129H141.41V62.8398H143.644V68.3496H146.31V62.4336H148.596ZM140.978 76.8555C145.726 76.8555 148.697 78.4043 148.722 80.9941C148.697 83.584 145.726 85.1328 140.978 85.1074C136.23 85.1328 133.26 83.584 133.285 80.9941C133.26 78.4043 136.23 76.8555 140.978 76.8555ZM140.978 78.709C137.678 78.709 135.646 79.5469 135.672 80.9941C135.646 82.4414 137.678 83.2793 140.978 83.2539C144.279 83.2793 146.285 82.4414 146.31 80.9941C146.285 79.5469 144.279 78.709 140.978 78.709ZM170.248 62.4082V75.2559H167.861V62.4082H170.248ZM155.216 63.7285V71.7012C158.885 71.6758 162.11 71.4092 165.525 70.6855L165.855 72.6914C162.097 73.4531 158.67 73.7324 154.683 73.7324H152.804V63.7285H155.216ZM170.248 76.2969V84.8535H155.343V76.2969H170.248ZM157.705 78.2012V82.9238H167.886V78.2012H157.705ZM186.288 64.8457V66.2422C186.288 68.1465 186.288 71.0918 185.628 75.1543L183.242 74.9766C183.813 71.333 183.876 68.7051 183.902 66.8008H174.66V64.8457H186.288ZM180.449 71.3457V78.1504C182.873 78.0742 185.336 77.9092 187.609 77.6172L187.736 79.4199C182.988 80.1816 177.706 80.2832 173.669 80.2578L173.39 78.3027C174.812 78.29 176.399 78.2773 178.062 78.2266V71.3457H180.449ZM191.341 62.4082V71.8027H194.82V73.8594H191.341V85.1582H188.904V62.4082H191.341ZM222.712 75.332V77.3379H213.419V85.1582H211.057V77.3379H201.891V75.332H222.712ZM212.251 63.2715C217.05 63.2715 220.35 65.2266 220.35 68.3242C220.35 71.3965 217.05 73.3262 212.251 73.3262C207.427 73.3262 204.151 71.3965 204.151 68.3242C204.151 65.2266 207.427 63.2715 212.251 63.2715ZM212.251 65.2012C208.874 65.2266 206.614 66.3945 206.64 68.3242C206.614 70.2285 208.874 71.3965 212.251 71.3965C215.628 71.3965 217.888 70.2285 217.888 68.3242C217.888 66.3945 215.628 65.2266 212.251 65.2012ZM243.018 62.4082V85.209H240.606V62.4082H243.018ZM236.061 64.4648V72.7676H227.885V77.7441C231.567 77.7314 234.792 77.5664 238.6 76.9316L238.829 78.9121C234.792 79.5977 231.364 79.75 227.352 79.75H225.423V70.8379H233.598V66.4199H225.397V64.4648H236.061ZM252.432 64.1094C255.834 64.1094 258.246 67.207 258.272 72.082C258.246 76.9824 255.834 80.0801 252.432 80.0801C249.03 80.0801 246.592 76.9824 246.618 72.082C246.592 67.207 249.03 64.1094 252.432 64.1094ZM252.432 66.2676C250.35 66.2676 248.928 68.502 248.928 72.082C248.928 75.6875 250.35 77.9219 252.432 77.9219C254.539 77.9219 255.961 75.6875 255.961 72.082C255.961 68.502 254.539 66.2676 252.432 66.2676ZM264.061 62.4082V71.3203H267.717V73.3516H264.061V85.1582H261.649V62.4082H264.061ZM287.389 62.4082V85.209H284.977V62.4082H287.389ZM275.227 64.1094C278.604 64.1094 281.092 67.207 281.092 72.082C281.092 76.9824 278.604 80.0801 275.227 80.0801C271.799 80.0801 269.336 76.9824 269.336 72.082C269.336 67.207 271.799 64.1094 275.227 64.1094ZM275.227 66.2676C273.119 66.2676 271.672 68.502 271.672 72.082C271.672 75.6875 273.119 77.9219 275.227 77.9219C277.309 77.9219 278.756 75.6875 278.756 72.082C278.756 68.502 277.309 66.2676 275.227 66.2676Z" fill="#383838"/>
<path d="M134.677 101.254V112.979H140.202V117.74H134.677V131.037H128.927V101.254H134.677ZM136.159 136.832V141.414H108.173V127.893H113.878V136.832H136.159ZM113.743 103.904C119.987 103.904 124.884 108.217 124.884 114.281C124.884 120.256 119.987 124.658 113.743 124.658C107.454 124.658 102.513 120.256 102.513 114.281C102.513 108.217 107.454 103.904 113.743 103.904ZM113.743 108.891C110.644 108.846 108.128 110.867 108.173 114.281C108.128 117.605 110.644 119.672 113.743 119.672C116.888 119.672 119.269 117.605 119.314 114.281C119.269 110.867 116.888 108.846 113.743 108.891ZM175.994 101.299V131.127H170.289V116.482H163.596V111.855H170.289V101.299H175.994ZM176.982 136.832V141.414H148.861V128.521H154.611V136.832H176.982ZM156.992 109.295C156.992 114.012 159.867 119.088 166.381 121.199L163.551 125.736C159.014 124.276 155.914 121.289 154.117 117.561C152.32 121.693 149.064 124.973 144.234 126.59L141.314 121.918C148.053 119.807 151.107 114.461 151.152 109.25V108.621H142.932V104.039H165.123V108.621H156.992V109.295ZM196.692 112.395C196.692 118.998 200.062 126.051 206.935 128.926L203.835 133.418C199.006 131.374 195.682 127.309 193.862 122.322C191.998 127.735 188.606 132.228 183.8 134.451L180.521 129.914C187.304 126.904 190.808 119.312 190.808 112.395V109.879H182.138V105.207H205.228V109.879H196.692V112.395ZM215.065 101.254V142.133H209.271V101.254H215.065ZM242.232 103.275C242.187 114.551 236.797 122.098 222.961 125.961L220.894 121.424C226.667 119.829 230.485 117.673 232.889 115.045L221.613 115.898L220.805 111.361L235.404 110.867C235.719 109.901 235.943 108.891 236.078 107.857H222.871V103.275H242.232ZM254.361 101.299V124.883H248.611V101.299H254.361ZM254.361 126.635V141.684H227.408V126.635H254.361ZM233.023 131.127V137.102H248.746V131.127H233.023ZM293.657 101.254V142.223H287.862V101.254H293.657ZM271.466 104.129C277.62 104.129 282.202 109.789 282.202 118.684C282.202 127.668 277.62 133.283 271.466 133.283C265.177 133.283 260.595 127.668 260.64 118.684C260.595 109.789 265.177 104.129 271.466 104.129ZM271.466 109.295C268.276 109.295 266.165 112.619 266.165 118.684C266.165 124.793 268.276 128.072 271.466 128.072C274.565 128.072 276.677 124.793 276.677 118.684C276.677 112.619 274.565 109.295 271.466 109.295Z" fill="#4252E2"/>
<path d="M107.323 179.627C107.323 181.754 108.746 183.828 111.119 184.654L110.205 185.955C108.483 185.296 107.199 183.995 106.531 182.352C105.846 184.18 104.501 185.621 102.647 186.324L101.75 185.006C104.194 184.127 105.653 181.947 105.67 179.574V177.711H107.323V179.627ZM114.899 176.762V188.504H113.229V181.719H109.906V180.348H113.229V176.762H114.899ZM115.25 190.807V192.16H104.615V187.186H106.303V190.807H115.25ZM121.961 179.768C121.961 181.49 123.068 183.23 125.107 184.004L124.228 185.287C122.761 184.725 121.732 183.652 121.17 182.352C120.59 183.819 119.509 185.094 117.988 185.744L117.074 184.443C119.201 183.512 120.344 181.525 120.344 179.768V177.729H121.961V179.768ZM130.574 176.762V186.447H128.992V182.229H127.146V185.955H125.6V177.043H127.146V180.857H128.992V176.762H130.574ZM125.301 186.746C128.588 186.746 130.644 187.818 130.662 189.611C130.644 191.404 128.588 192.477 125.301 192.459C122.014 192.477 119.957 191.404 119.975 189.611C119.957 187.818 122.014 186.746 125.301 186.746ZM125.301 188.029C123.016 188.029 121.609 188.609 121.627 189.611C121.609 190.613 123.016 191.193 125.301 191.176C127.586 191.193 128.975 190.613 128.992 189.611C128.975 188.609 127.586 188.029 125.301 188.029ZM145.564 176.744V185.639H143.912V176.744H145.564ZM135.158 177.658V183.178C137.698 183.16 139.93 182.976 142.295 182.475L142.523 183.863C139.921 184.391 137.548 184.584 134.789 184.584H133.488V177.658H135.158ZM145.564 186.359V192.283H135.246V186.359H145.564ZM136.88 187.678V190.947H143.929V187.678H136.88ZM156.669 178.432V179.398C156.669 180.717 156.669 182.756 156.212 185.568L154.56 185.445C154.955 182.923 154.999 181.104 155.017 179.785H148.618V178.432H156.669ZM152.626 182.932V187.643C154.305 187.59 156.01 187.476 157.583 187.273L157.671 188.521C154.384 189.049 150.728 189.119 147.933 189.102L147.74 187.748C148.724 187.739 149.823 187.73 150.974 187.695V182.932H152.626ZM160.167 176.744V183.248H162.575V184.672H160.167V192.494H158.48V176.744H160.167ZM181.885 186.008V187.326H175.452V192.494H173.817V187.326H167.471V186.008H181.885ZM170.917 177.377V179.434H178.405V177.377H180.075V184.215H169.264V177.377H170.917ZM170.917 182.879H178.405V180.77H170.917V182.879ZM197.28 189.137V190.525H182.866V189.137H189.211V185.498H184.518V178.01H195.557V185.498H190.864V189.137H197.28ZM186.135 179.346V184.18H193.922V179.346H186.135ZM211.285 176.744V185.639H209.633V176.744H211.285ZM200.879 177.658V183.178C203.419 183.16 205.651 182.976 208.016 182.475L208.244 183.863C205.643 184.391 203.27 184.584 200.51 184.584H199.209V177.658H200.879ZM211.285 186.359V192.283H200.967V186.359H211.285ZM202.602 187.678V190.947H209.65V187.678H202.602ZM218.752 177.869C221.248 177.852 223.023 179.398 223.041 181.613C223.023 183.828 221.248 185.375 218.752 185.375C216.273 185.375 214.445 183.828 214.463 181.613C214.445 179.398 216.273 177.852 218.752 177.869ZM218.752 179.311C217.222 179.311 216.097 180.225 216.115 181.613C216.097 183.002 217.222 183.916 218.752 183.916C220.281 183.916 221.406 183.002 221.406 181.613C221.406 180.225 220.281 179.311 218.752 179.311ZM226.644 176.744V192.529H224.974V176.744H226.644ZM213.707 187.748C216.572 187.748 220.545 187.713 223.99 187.221L224.113 188.434C220.545 189.119 216.73 189.137 213.918 189.137L213.707 187.748ZM241.173 178.309V188.539H233.808V178.309H241.173ZM235.442 179.627V187.186H239.521V179.627H235.442ZM245.48 176.744V182.914H248.011V184.32H245.48V192.494H243.81V176.744H245.48ZM255.759 177.078C259.221 177.078 261.384 178.203 261.384 180.102C261.384 181.965 259.221 183.072 255.759 183.072C252.313 183.072 250.134 181.965 250.134 180.102C250.134 178.203 252.313 177.078 255.759 177.078ZM255.759 178.396C253.333 178.396 251.839 179.012 251.856 180.102C251.839 181.156 253.333 181.754 255.759 181.771C258.167 181.754 259.661 181.156 259.661 180.102C259.661 179.012 258.167 178.396 255.759 178.396ZM261.19 187.045V192.301H250.309V187.045H261.19ZM251.962 188.381V190.947H259.573V188.381H251.962ZM262.948 184.285V185.639H248.587V184.285H262.948ZM271.135 177.693C274.44 177.693 276.954 179.434 276.954 182.088C276.954 184.742 274.44 186.5 271.135 186.482C267.83 186.5 265.334 184.742 265.334 182.088C265.334 179.434 267.83 177.693 271.135 177.693ZM271.135 179.047C268.727 179.029 266.916 180.26 266.934 182.088C266.916 183.934 268.727 185.111 271.135 185.111C273.543 185.111 275.336 183.934 275.336 182.088C275.336 180.26 273.543 179.029 271.135 179.047ZM278.377 189.066V190.455H263.963V189.066H278.377ZM293.754 189.207V190.613H279.34V189.207H285.686V186.447H281.098V181.438H290.344V179.223H281.063V177.852H291.996V182.773H282.75V185.076H292.365V186.447H287.338V189.207H293.754ZM93.0642 206.691V208.08H86.6306V213.494H84.9958V208.08H78.6501V206.691H93.0642ZM85.822 198.342C89.1443 198.342 91.4294 199.695 91.4294 201.84C91.4294 203.967 89.1443 205.303 85.822 205.303C82.4821 205.303 80.2146 203.967 80.2146 201.84C80.2146 199.695 82.4821 198.342 85.822 198.342ZM85.822 199.678C83.4841 199.695 81.9196 200.504 81.9372 201.84C81.9196 203.158 83.4841 203.967 85.822 203.967C88.1599 203.967 89.7243 203.158 89.7243 201.84C89.7243 200.504 88.1599 199.695 85.822 199.678ZM107.122 197.744V213.529H105.453V197.744H107.122ZM102.306 199.168V204.916H96.6459V208.361C99.1947 208.353 101.427 208.238 104.064 207.799L104.222 209.17C101.427 209.645 99.0541 209.75 96.2768 209.75H94.9408V203.58H100.601V200.521H94.9232V199.168H102.306ZM113.64 198.922C115.995 198.922 117.665 201.066 117.683 204.441C117.665 207.834 115.995 209.979 113.64 209.979C111.284 209.979 109.597 207.834 109.614 204.441C109.597 201.066 111.284 198.922 113.64 198.922ZM113.64 200.416C112.198 200.416 111.214 201.963 111.214 204.441C111.214 206.938 112.198 208.484 113.64 208.484C115.099 208.484 116.083 206.938 116.083 204.441C116.083 201.963 115.099 200.416 113.64 200.416ZM121.691 197.744V203.914H124.222V205.32H121.691V213.494H120.021V197.744H121.691ZM137.841 197.744V213.529H136.171V197.744H137.841ZM129.421 198.922C131.759 198.922 133.481 201.066 133.481 204.441C133.481 207.834 131.759 209.979 129.421 209.979C127.048 209.979 125.343 207.834 125.343 204.441C125.343 201.066 127.048 198.922 129.421 198.922ZM129.421 200.416C127.962 200.416 126.96 201.963 126.96 204.441C126.96 206.938 127.962 208.484 129.421 208.484C130.862 208.484 131.864 206.938 131.864 204.441C131.864 201.963 130.862 200.416 129.421 200.416ZM154.571 204.969V206.252H140.157V204.969H154.571ZM152.795 207.359V210.822H143.549V212.123H153.288V213.301H141.879V209.715H151.143V208.555H141.862V207.359H152.795ZM152.76 198.148V201.559H143.655V202.754H153.024V203.932H142.002V200.451H151.09V199.326H141.967V198.148H152.76ZM172.14 197.727V202.438H174.426V203.844H172.14V209.311H170.471V197.727H172.14ZM172.808 211.807V213.16H162.156V208.098H163.826V211.807H172.808ZM164.195 198.816C166.568 198.816 168.379 200.434 168.396 202.736C168.379 205.021 166.568 206.656 164.195 206.656C161.822 206.656 159.994 205.021 160.012 202.736C159.994 200.434 161.822 198.816 164.195 198.816ZM164.195 200.275C162.754 200.275 161.629 201.277 161.646 202.736C161.629 204.195 162.754 205.197 164.195 205.197C165.654 205.197 166.762 204.195 166.762 202.736C166.762 201.277 165.654 200.275 164.195 200.275ZM188.273 197.762V209.293H186.603V203.369H183.597V202.016H186.603V197.762H188.273ZM188.695 211.807V213.16H178.042V208.256H179.712V211.807H188.695ZM180.785 200.943C180.785 202.912 182.208 204.881 184.582 205.672L183.72 207.008C181.954 206.384 180.644 205.118 179.958 203.562C179.273 205.294 177.893 206.691 176.021 207.359L175.16 206.006C177.585 205.18 179.08 203.105 179.08 200.943V200.328H175.669V198.957H184.16V200.328H180.785V200.943ZM202.788 197.744V204.125H205.319V205.514H202.788V213.494H201.136V197.744H202.788ZM199.765 200.205V201.576H190.431V200.205H194.316V197.955H195.986V200.205H199.765ZM195.159 202.736C197.409 202.736 199.062 204.248 199.079 206.393C199.062 208.555 197.409 210.049 195.159 210.066C192.892 210.049 191.239 208.555 191.239 206.393C191.239 204.248 192.892 202.736 195.159 202.736ZM195.159 204.107C193.823 204.107 192.821 205.039 192.839 206.393C192.821 207.764 193.823 208.678 195.159 208.66C196.495 208.678 197.48 207.764 197.48 206.393C197.48 205.039 196.495 204.107 195.159 204.107ZM219.431 197.744V213.494H217.848V197.744H219.431ZM216.108 198.148V212.721H214.526V205.408H211.45C210.51 207.236 209.015 208.836 206.792 210.137L205.843 208.941C209.182 206.955 210.791 204.31 211.081 201.066H206.581V199.695H212.733C212.724 201.233 212.514 202.701 212.03 204.072H214.526V198.148H216.108ZM231.287 202.385C231.287 205.021 233.01 207.746 235.436 208.783L234.522 210.084C232.667 209.267 231.191 207.535 230.461 205.426C229.732 207.676 228.246 209.592 226.418 210.488L225.451 209.17C227.824 208.062 229.582 205.092 229.6 202.385V200.715H225.996V199.326H234.873V200.715H231.287V202.385ZM238.529 197.744V213.494H236.86V197.744H238.529ZM249.353 199.344C249.353 203.984 247.807 208.168 242.023 210.98L241.127 209.68C243.948 208.309 245.706 206.612 246.699 204.6L241.443 205.092L241.215 203.633L247.226 203.246C247.473 202.446 247.631 201.594 247.701 200.697H242.006V199.344H249.353ZM253.959 197.744V213.494H252.271V197.744H253.959ZM263.218 198.887C263.218 200.056 263.025 201.128 262.656 202.104H264.888V198.078H266.47V206.568H264.888V203.457H261.953C260.951 205.013 259.36 206.252 257.189 207.166L256.345 205.918C259.465 204.679 261.188 202.745 261.496 200.24H257.066V198.887H263.218ZM269.669 197.762V206.814H268.087V197.762H269.669ZM261.847 208.273C261.83 209.636 262.506 211.06 263.939 211.93C265.372 210.98 266.066 209.451 266.084 208.273V207.324H267.701V208.273C267.701 209.908 268.791 211.525 270.83 212.193L270.021 213.424C268.457 212.87 267.402 211.815 266.857 210.506C266.356 211.771 265.424 212.94 263.957 213.547C262.454 212.976 261.513 211.842 261.039 210.541C260.467 211.807 259.421 212.861 257.945 213.424L257.101 212.193C259.123 211.473 260.248 209.803 260.248 208.273V207.324H261.847V208.273ZM275.044 207.184V208.854H282.445V207.184H284.114V213.301H273.392V207.184H275.044ZM275.044 211.965H282.445V210.154H275.044V211.965ZM285.978 204.811V206.199H271.616V204.811H285.978ZM279.65 198.588C279.65 200.398 282.163 202.156 285.187 202.525L284.589 203.844C282.031 203.483 279.808 202.279 278.806 200.609C277.778 202.288 275.545 203.483 273.023 203.844L272.39 202.525C275.448 202.139 277.945 200.451 277.945 198.588V197.92H279.65V198.588ZM300.071 197.744V213.494H298.401V197.744H300.071ZM289.612 199.273V208.045C291.906 208.027 294.323 207.843 296.854 207.324L297.083 208.73C294.288 209.293 291.757 209.486 289.278 209.486H287.96V199.273H289.612ZM314.639 197.744V203.844H317.171V205.215H314.639V213.529H312.969V197.744H314.639ZM310.403 199.256V200.609H304.708V208.221C307.353 208.212 309.339 208.098 311.581 207.693L311.792 209.1C309.331 209.539 307.239 209.627 304.303 209.609H303.038V199.256H310.403ZM319.539 212.123C318.854 212.123 318.274 211.561 318.291 210.875C318.274 210.189 318.854 209.627 319.539 209.627C320.207 209.627 320.787 210.189 320.787 210.875C320.787 211.561 320.207 212.123 319.539 212.123Z" fill="#505050"/>
<rect x="182" y="288" width="18" height="6" fill="#4252E2" fill-opacity="0.8"/>
<rect x="188" y="300" width="18" height="6" transform="rotate(-90 188 300)" fill="#4252E2" fill-opacity="0.8"/>
<rect x="297" y="269" width="24" height="8" fill="#4252E2" fill-opacity="0.6"/>
<rect x="305" y="285" width="24" height="8" transform="rotate(-90 305 285)" fill="#4252E2" fill-opacity="0.6"/>
<rect x="61" y="377" width="18" height="6" fill="#4252E2" fill-opacity="0.2"/>
<rect x="67" y="389" width="18" height="6" transform="rotate(-90 67 389)" fill="#4252E2" fill-opacity="0.2"/>
<path d="M137.755 442C162.173 442 181.968 438.459 181.968 434.091C181.968 429.723 162.173 426.182 137.755 426.182C113.336 426.182 93.5415 429.723 93.5415 434.091C93.5415 438.459 113.336 442 137.755 442Z" fill="#E5E8F2"/>
<path d="M94.908 341.241L88.3872 336.972C88.3872 336.972 88.6235 331.197 87.5305 330.016C86.4376 328.834 84.3181 327.025 83.7052 327.239C83.0923 327.453 80.3303 323.643 77.7973 323.931C75.2643 324.219 68.4776 330.112 68.2561 330.931C68.0346 331.751 65.6197 335.096 68.1379 338.22C70.6562 341.344 73.3812 341.551 73.7209 341.396C74.0606 341.241 80.9506 345.539 80.9506 345.539L108.112 371.932L112.698 359.023L105.21 354.77L100.402 348.81C100.402 348.81 93.0692 348.286 94.908 341.241Z" fill="white"/>
<path d="M84.2738 327.357C84.2738 327.357 80.5814 323.384 76.9554 324.005C73.3295 324.625 61.462 334.218 70.5601 340.665C73.6692 343.663 76.6231 338.745 77.4945 337.94" stroke="black" stroke-width="1.5" stroke-miterlimit="10"/>
<path d="M108.112 371.932L80.2788 344.881L73.2336 341.551" stroke="black" stroke-width="1.5" stroke-miterlimit="10"/>
<path d="M82.6785 332.453C82.6785 332.453 80.9061 334.631 78.4101 333.184C75.914 331.737 81.9031 328.243 81.9031 328.243C81.9031 328.243 84.0447 326.19 85.9057 327.719C88.963 330.245 88.6085 336.972 88.6085 336.972L95.3657 341.558" stroke="black" stroke-width="1.5" stroke-miterlimit="10"/>
<path d="M145.14 350.287L154.312 368.047L170.137 336.647L174.849 331.935C174.849 331.935 178.859 330.311 179.472 325.429C180.085 320.548 172.574 315.593 165.367 315.814C165.367 315.814 160.175 319.492 160.759 320.88C160.759 320.88 157.236 323.354 158.683 327.719L159.282 331.485L145.14 350.287Z" fill="white"/>
<path d="M110.815 412.194L111.206 424.785C111.206 424.785 102.5 426.875 102.3 429.371C102.101 431.868 109.663 432.968 109.663 432.968C109.663 432.968 126.087 434.622 128.192 427.363V412.445L110.815 412.194Z" fill="white"/>
<path d="M143.662 412.194L147.85 428.116C147.85 428.116 151.549 432.562 160.699 431.114C169.849 429.667 173.756 428.05 170.322 425.081C166.888 422.112 162.058 421.802 162.058 421.802L159.68 410.895L143.662 412.194Z" fill="white"/>
<path d="M112.189 358.676C112.189 358.676 106.672 368.853 106.333 390.092L159.651 386.665C159.651 386.665 158.322 374.598 145.007 349.733C145.007 349.733 136.662 361.726 112.189 358.676Z" fill="#4252E2" stroke="black" stroke-width="1.5" stroke-miterlimit="10"/>
<path d="M109.515 389.885L108.651 411.899L131.456 412.446L133.257 401.198H136.403L139.904 411.899L162.058 410.097L156.83 386.842L109.515 389.885Z" fill="#4252E2" stroke="black" stroke-width="1.5" stroke-miterlimit="10"/>
<path d="M160.456 321.494C160.456 321.494 162.59 316.509 166.216 315.866C169.842 315.231 184.25 320.253 177.854 329.395C175.934 333.265 171.496 329.639 170.41 329.174" stroke="black" stroke-width="1.5" stroke-miterlimit="10"/>
<path d="M153.662 368.048L170.138 336.647L175.647 331.138" stroke="black" stroke-width="1.5" stroke-miterlimit="10"/>
<path d="M163.675 325.755C163.675 325.755 166.075 327.202 167.936 325.001C169.797 322.801 162.981 321.531 162.981 321.531C162.981 321.531 160.271 320.319 159.038 322.395C157.007 325.799 159.614 332.017 159.614 332.017L146.897 346.735" stroke="black" stroke-width="1.5" stroke-miterlimit="10"/>
<path d="M111.059 411.471L111.569 424.705C111.569 424.705 101.747 426.854 102.168 430.317C102.626 434.091 128.059 434.593 128.177 426.824C128.288 419.026 127.756 411.471 127.756 411.471" stroke="black" stroke-width="1.5" stroke-miterlimit="10"/>
<path d="M159.924 410.385L162.745 422.208C162.745 422.208 171.164 423.663 171.696 427.119C172.279 430.886 149.275 434.231 147.045 426.632C144.807 419.003 143.264 411.515 143.264 411.515" stroke="black" stroke-width="1.5" stroke-miterlimit="10"/>
<path d="M110.365 363.469C110.365 363.469 131.271 376.119 137.799 379.871L139.668 375.588C139.668 375.588 136.632 373.402 115.172 360.493L112.011 359.016L110.365 363.469Z" fill="#E8C221" stroke="black" stroke-width="1.5" stroke-miterlimit="10"/>
<path d="M152.34 364.828L150.952 371.932L154.312 372.922L154.549 369.909L152.34 364.828Z" fill="#E8C221" stroke="black" stroke-width="1.5" stroke-miterlimit="10"/>
<path d="M149.828 371.701L140.224 374.145C137.706 374.786 136.185 377.347 136.825 379.864L138.239 385.418C138.88 387.936 141.44 389.457 143.958 388.816L153.562 386.372C156.08 385.731 157.602 383.171 156.961 380.653L155.547 375.099C154.906 372.582 152.346 371.06 149.828 371.701Z" fill="#E8C221" stroke="black" stroke-width="1.5" stroke-miterlimit="10"/>
<path d="M138.397 379.184L138.803 380.764C139.135 382.057 140.509 382.825 141.883 382.47L156.305 378.8" stroke="black" stroke-width="1.5" stroke-miterlimit="10"/>
<path d="M155.67 327.173C154.075 326.154 151.808 326.863 150.471 328.739C146.062 317.071 132.615 310.188 118.687 313.083C104.803 315.978 95.2324 327.587 95.7863 340.008C95.8232 340.894 95.9192 341.78 96.0596 342.667C94.7007 342.511 93.4305 342.977 92.729 344.018C91.6286 345.657 92.3819 348.109 94.4053 349.49C95.7863 350.435 97.411 350.635 98.6442 350.14C104.065 359.962 116.353 365.449 129.048 362.805C143.234 359.851 152.908 347.784 151.896 335.068C153.432 335.407 155.249 334.558 156.327 332.852C157.634 330.777 157.339 328.229 155.677 327.166L155.67 327.173Z" fill="white" stroke="black" stroke-width="1.5" stroke-miterlimit="10"/>
<path d="M150.508 329.868C141.595 319.647 138.899 318.089 138.899 318.089L140.879 322.299L101.672 332.113L100.018 328.694C98.6889 336.02 96.791 343.596 96.791 343.596L92.397 343.146C80.7807 318.141 102.928 302.337 108.068 300.838C113.724 299.191 135.369 291.518 148.869 311.14C148.869 311.14 153.403 320.186 153.47 327.468L151.306 328.568" fill="black"/>
<path d="M109.42 338.257L109.294 337.578C108.873 335.348 110.343 333.206 112.566 332.785C114.796 332.364 116.938 333.834 117.359 336.057L117.484 336.736" stroke="black" stroke-width="1.5" stroke-miterlimit="10"/>
<path d="M128.126 333.509L127.926 332.845C127.276 330.673 128.517 328.384 130.688 327.742C132.859 327.092 135.149 328.332 135.791 330.504L135.99 331.168" stroke="black" stroke-width="1.5" stroke-miterlimit="10"/>
<path d="M106.414 341.706L105.306 343.973" stroke="#EFA0B5" stroke-width="1.5" stroke-miterlimit="10" stroke-linecap="round"/>
<path d="M108.954 341.315L107.847 343.582" stroke="#EFA0B5" stroke-width="1.5" stroke-miterlimit="10" stroke-linecap="round"/>
<path d="M111.864 340.775L110.756 343.05" stroke="#EFA0B5" stroke-width="1.5" stroke-miterlimit="10" stroke-linecap="round"/>
<path d="M136.079 333.021L135.422 335.458" stroke="#EFA0B5" stroke-width="1.5" stroke-miterlimit="10" stroke-linecap="round"/>
<path d="M138.493 332.15L137.836 334.587" stroke="#EFA0B5" stroke-width="1.5" stroke-miterlimit="10" stroke-linecap="round"/>
<path d="M141.241 331.064L140.591 333.509" stroke="#EFA0B5" stroke-width="1.5" stroke-miterlimit="10" stroke-linecap="round"/>
<path d="M88.6013 325.297C87.7004 325.297 86.888 324.692 86.6296 323.828C86.4745 323.303 86.5262 322.742 86.792 322.262C87.0579 321.782 87.4862 321.428 88.0179 321.265L88.4241 321.147C91.09 307.972 102.064 297.597 115.859 295.241C117.816 294.909 119.802 294.739 121.774 294.739C132.859 294.739 143.072 299.982 149.179 308.785C150.228 308.844 151.07 309.686 151.121 310.742C151.151 311.318 150.937 311.894 150.538 312.307C150.176 312.691 149.696 312.898 149.194 312.898H149.083C147.569 312.802 145.974 312.758 144.364 312.758C122.468 312.758 97.3228 320.962 89.325 325.15C89.1773 325.231 89.037 325.246 88.9632 325.26C88.8303 325.282 88.7195 325.29 88.6013 325.29V325.297Z" fill="#F2C873"/>
<path d="M121.774 295.477C132.866 295.477 142.976 300.912 148.795 309.53C148.861 309.53 148.928 309.523 148.994 309.523C149.016 309.523 149.039 309.523 149.061 309.523C149.762 309.523 150.346 310.077 150.383 310.778C150.42 311.487 149.888 312.167 149.194 312.167C149.171 312.167 149.149 312.167 149.127 312.167C147.562 312.071 145.974 312.026 144.364 312.026C122.379 312.026 97.005 320.305 88.985 324.507C88.9333 324.529 88.8816 324.536 88.83 324.544C88.7561 324.558 88.6823 324.566 88.6084 324.566C88.0398 324.566 87.5154 324.197 87.3456 323.621C87.1388 322.919 87.5302 322.188 88.2318 321.974C88.2613 321.966 88.5567 321.878 89.0663 321.73C91.459 308.999 101.938 298.372 115.991 295.979C117.941 295.647 119.876 295.484 121.781 295.484M121.774 294C119.765 294 117.734 294.17 115.733 294.517C101.783 296.895 90.6614 307.3 87.7813 320.563C87.0724 320.777 86.489 321.257 86.1345 321.915C85.78 322.572 85.6988 323.333 85.9129 324.042C86.2674 325.216 87.3678 326.035 88.5936 326.035C88.7487 326.035 88.9112 326.021 89.0663 325.999C89.1623 325.984 89.3986 325.954 89.6644 325.814C97.6031 321.656 122.593 313.503 144.364 313.503C145.966 313.503 147.539 313.548 149.039 313.636C149.09 313.636 149.142 313.636 149.194 313.636C149.903 313.636 150.575 313.348 151.077 312.817C151.616 312.255 151.896 311.48 151.86 310.705C151.8 309.39 150.848 308.334 149.6 308.09C143.337 299.258 132.991 294 121.774 294Z" fill="black"/>
<path d="M145.177 305.314C118.148 306.547 98.3716 313.651 90.4699 316.967C90.1228 317.912 89.8126 318.872 89.5615 319.847C95.7205 317.085 117.026 308.57 147.156 307.514C146.528 306.746 145.871 306.008 145.177 305.306V305.314Z" fill="white"/>
<path d="M95.979 350.701C95.979 350.701 99.1619 355.663 107.285 359.6L102.876 355.708L98.6375 350.154L95.979 350.701Z" fill="black"/>
<path d="M154.821 334.675C154.821 334.675 154.792 340.576 150.043 348.249L151.683 342.599L152.288 335.635L154.829 334.675H154.821Z" fill="black"/>
<path d="M117.336 342.785C117.144 341.588 117.269 340.421 118.48 340.399C122.143 340.325 126.02 338.383 130.023 336.308C134.203 334.137 137.415 351.344 128.76 353.589C124.514 354.689 118.059 347.297 117.343 342.785H117.336Z" fill="#F74D5A" stroke="black" stroke-width="1.5" stroke-miterlimit="10"/>
<path d="M118.554 340.598C118.554 340.598 116.789 341.226 118.037 344.246C119.278 347.267 120.105 348.434 120.105 348.434C120.105 348.434 130.51 342.009 133.937 344.52L133.191 338.59L130.835 336.13L126.752 337.969L121.11 340.473L118.547 340.606L118.554 340.598Z" fill="black"/>
<path d="M266.5 405.811C302.122 405.811 331 402.048 331 397.406C331 392.763 302.122 389 266.5 389C230.878 389 202 392.763 202 397.406C202 402.048 230.878 405.811 266.5 405.811Z" fill="#E5E8F2"/>
<g clip-path="url(#clip0_912_30678)">
<path d="M290.185 359.324H316.93V384.209C316.93 388.034 313.829 391.145 310.015 391.145H290.195V359.324H290.185Z" fill="white" stroke="black" stroke-width="1.5" stroke-miterlimit="10"/>
<path d="M215.849 359.324H242.595V391.145H222.774C218.96 391.145 215.859 388.034 215.859 384.209V359.324H215.849Z" fill="white" stroke="black" stroke-width="1.5" stroke-miterlimit="10"/>
<path d="M220.496 331.208L210.47 359.324H322.54L312.374 331.188C311.571 328.973 309.473 327.503 307.135 327.503H225.745C223.386 327.503 221.289 328.983 220.496 331.208Z" fill="#4252E2" stroke="black" stroke-width="1.5" stroke-miterlimit="10"/>
<path d="M285.749 397.285H247.041C244.592 397.285 242.595 395.292 242.595 392.826V359.324L263.941 340.369C265.085 339.352 266.801 339.332 267.965 340.328L290.184 359.324V392.826C290.184 395.282 288.197 397.285 285.739 397.285H285.749Z" fill="white" stroke="black" stroke-width="1.5" stroke-miterlimit="10"/>
<path d="M232.117 359.324L262.727 330.282C264.372 328.721 266.932 328.721 268.587 330.262L300.441 359.324H290.195L267.624 340.419C266.4 339.372 264.603 339.412 263.429 340.509L242.605 359.324H232.127H232.117Z" fill="white" stroke="black" stroke-width="1.5" stroke-miterlimit="10"/>
<path d="M232.579 369.27H225.865C224.784 369.27 223.908 370.149 223.908 371.233V377.968C223.908 379.052 224.784 379.931 225.865 379.931H232.579C233.66 379.931 234.536 379.052 234.536 377.968V371.233C234.536 370.149 233.66 369.27 232.579 369.27Z" fill="white" stroke="black" stroke-width="1.5" stroke-miterlimit="10"/>
<path d="M278.031 365.696C278.031 365.696 273.525 362.626 269.059 367.77L266.51 370.679L263.8 367.74C262.656 366.502 261.211 365.565 259.575 365.193C256.775 364.549 254.989 365.706 254.989 365.706C252.711 366.874 251.246 369.512 251.246 372.421C251.246 374.897 252.319 377.213 254.086 378.561L266.52 388.044L278.954 378.561C280.731 377.213 281.795 374.897 281.795 372.421C281.795 369.512 280.319 366.874 278.051 365.706L278.031 365.696Z" fill="#4252E2" stroke="black" stroke-width="1.5" stroke-miterlimit="10"/>
<path d="M247.542 384.561V389.031C247.542 390.52 248.747 391.718 250.222 391.718H255.4" stroke="black" stroke-width="1.5" stroke-miterlimit="10"/>
<path d="M265.828 362.173C269.824 362.173 273.063 358.923 273.063 354.915C273.063 350.906 269.824 347.657 265.828 347.657C261.831 347.657 258.592 350.906 258.592 354.915C258.592 358.923 261.831 362.173 265.828 362.173Z" fill="white" stroke="black" stroke-width="1.5" stroke-miterlimit="10"/>
<path d="M265.517 351.08V354.915L269.24 353.999" fill="white"/>
<path d="M265.517 351.08V354.915L269.24 353.999" stroke="black" stroke-width="1.5" stroke-miterlimit="10"/>
<path d="M306.874 369.27H300.24C299.137 369.27 298.243 370.167 298.243 371.273V377.927C298.243 379.034 299.137 379.931 300.24 379.931H306.874C307.977 379.931 308.871 379.034 308.871 377.927V371.273C308.871 370.167 307.977 369.27 306.874 369.27Z" fill="white" stroke="black" stroke-width="1.5" stroke-miterlimit="10"/>
<path d="M276.576 391.718H282.116C283.601 391.718 284.795 390.51 284.795 389.031V384.561" stroke="black" stroke-width="1.5" stroke-miterlimit="10"/>
</g>
<g clip-path="url(#clip1_912_30678)">
<path d="M201.835 494.651C223.236 494.651 240.585 490.643 240.585 485.7C240.585 480.756 223.236 476.749 201.835 476.749C180.433 476.749 163.084 480.756 163.084 485.7C163.084 490.643 180.433 494.651 201.835 494.651Z" fill="#E5E8F2"/>
<path d="M244.54 436.425C240.61 391.59 204.395 394.365 198.715 395.081C198.294 395.137 197.885 395.17 197.464 395.193C191.74 395.495 155.603 399.187 159.533 444.022C159.533 444.022 160.397 478.54 204.926 474.691C204.926 474.691 205.015 474.691 205.059 474.691C205.103 474.691 205.148 474.691 205.192 474.691C249.699 470.574 244.551 436.436 244.551 436.436L244.54 436.425Z" fill="#4252E2"/>
<path d="M198.206 475.899C185.983 475.899 176.295 472.733 169.342 466.445C159.09 457.169 158.658 444.581 158.647 444.055C157.319 428.883 160.419 416.765 167.881 408.082C178.078 396.211 193.069 394.533 197.42 394.309C197.818 394.286 198.206 394.253 198.604 394.197C202.933 393.649 217.98 392.642 230.081 402.522C238.916 409.738 244.075 421.107 245.415 436.324C245.537 437.174 247.131 449.437 238.772 460.235C232.04 468.929 220.869 474.076 205.568 475.541L205.004 475.597C202.657 475.799 200.398 475.899 198.217 475.899H198.206ZM203.786 395.696C201.406 395.696 199.645 395.875 198.826 395.976C198.383 396.032 197.951 396.065 197.508 396.099C194.53 396.256 179.207 397.632 169.21 409.257C162.079 417.548 159.123 429.219 160.408 443.955C160.408 444.134 160.851 456.386 170.538 465.136C178.344 472.185 189.891 475.105 204.838 473.818L205.092 473.796C220.039 472.42 230.889 467.496 237.355 459.161C245.371 448.822 243.677 436.693 243.655 436.57V436.514C242.359 421.789 237.421 410.824 228.963 403.92C220.382 396.927 209.986 395.696 203.775 395.696H203.786Z" fill="black"/>
<path d="M196.146 454.987C170.56 454.987 170.173 440.52 170.173 439.904C169.608 433.403 171.18 428.01 174.845 423.792C182.783 414.651 197.763 413.767 199.446 413.699C199.933 413.632 202.103 413.364 205.125 413.364C214.813 413.364 231.298 416.072 232.882 434.231C232.904 434.354 233.635 439.009 229.981 443.809C225.497 449.717 216.219 453.465 203.155 454.663L202.966 454.685C200.575 454.886 198.283 454.998 196.135 454.998L196.146 454.987Z" fill="white"/>
<path d="M205.108 414.192C214.486 414.192 230.462 416.799 231.99 434.242V434.321L232.012 434.388C232.045 434.567 232.676 438.763 229.244 443.238C224.893 448.911 215.848 452.525 203.082 453.7H203.005L202.894 453.711C200.536 453.913 198.266 454.025 196.14 454.025C171.528 454.025 171.063 440.408 171.052 439.848V439.77V439.691C170.51 433.526 172.015 428.357 175.514 424.329C183.342 415.322 198.831 414.561 199.484 414.538H199.561L199.639 414.527C200.037 414.471 202.152 414.203 205.119 414.203M205.108 412.401C202.041 412.401 199.86 412.681 199.384 412.737C197.447 412.815 167.044 414.505 169.259 439.837C169.259 439.837 169.259 455.804 196.118 455.804C198.244 455.804 200.547 455.703 203.027 455.49C203.027 455.49 203.093 455.49 203.126 455.49C203.16 455.49 203.193 455.49 203.226 455.49C236.994 452.402 233.75 434.086 233.75 434.086C232.078 414.986 214.486 412.401 205.108 412.401Z" fill="#2942AA"/>
<path d="M207.572 440.419C207.75 442.489 205.447 444.402 202.424 444.671C199.402 444.939 196.8 443.474 196.612 441.404" fill="white"/>
<path d="M201.704 445.599C200.354 445.599 199.069 445.286 198.018 444.704C196.656 443.932 195.837 442.791 195.726 441.482C195.682 440.99 196.047 440.553 196.534 440.508C197.021 440.475 197.453 440.833 197.497 441.325C197.564 442.019 198.051 442.668 198.881 443.138C199.822 443.664 201.051 443.899 202.347 443.787C204.838 443.563 206.831 442.064 206.698 440.508C206.653 440.016 207.019 439.58 207.506 439.535C208.015 439.49 208.425 439.859 208.469 440.352C208.702 442.959 206.078 445.253 202.513 445.566C202.247 445.588 201.981 445.599 201.716 445.599H201.704Z" fill="black"/>
<path d="M178.288 448.039C178.144 448.039 177.989 448.005 177.856 447.927C177.436 447.681 177.281 447.144 177.513 446.707L179.052 443.943C179.296 443.518 179.827 443.362 180.259 443.597C180.68 443.843 180.835 444.38 180.602 444.816L179.063 447.58C178.897 447.871 178.598 448.039 178.288 448.039Z" fill="#EFA0B5"/>
<path d="M181.466 447.726C181.322 447.726 181.167 447.692 181.034 447.614C180.613 447.368 180.458 446.831 180.691 446.394L182.23 443.63C182.473 443.205 183.005 443.049 183.436 443.284C183.857 443.53 184.012 444.067 183.78 444.503L182.241 447.267C182.075 447.558 181.776 447.726 181.466 447.726Z" fill="#EFA0B5"/>
<path d="M185.108 447.267C184.964 447.267 184.809 447.233 184.676 447.155C184.256 446.909 184.101 446.372 184.333 445.935L185.872 443.172C186.116 442.746 186.647 442.59 187.079 442.825C187.5 443.071 187.655 443.608 187.422 444.044L185.883 446.808C185.717 447.099 185.418 447.267 185.108 447.267Z" fill="#EFA0B5"/>
<path d="M216.562 444.615C216.419 444.615 216.264 444.581 216.131 444.503C215.699 444.257 215.555 443.72 215.787 443.283L217.326 440.52C217.559 440.094 218.101 439.938 218.533 440.173C218.965 440.419 219.109 440.956 218.876 441.392L217.337 444.156C217.171 444.447 216.872 444.615 216.562 444.615Z" fill="#EFA0B5"/>
<path d="M219.74 444.302C219.596 444.302 219.441 444.268 219.308 444.19C218.876 443.944 218.732 443.407 218.965 442.97L220.504 440.207C220.747 439.781 221.279 439.625 221.711 439.86C222.142 440.106 222.286 440.643 222.054 441.079L220.515 443.843C220.349 444.134 220.05 444.302 219.74 444.302Z" fill="#EFA0B5"/>
<path d="M223.383 443.843C223.239 443.843 223.084 443.809 222.951 443.731C222.519 443.485 222.375 442.948 222.608 442.511L224.146 439.748C224.39 439.322 224.921 439.166 225.353 439.401C225.785 439.647 225.929 440.184 225.696 440.62L224.158 443.384C223.991 443.675 223.693 443.843 223.383 443.843Z" fill="#EFA0B5"/>
<path d="M187.453 442.222C189.262 442.06 190.508 439.4 190.235 436.279C189.962 433.158 188.274 430.759 186.465 430.92C184.656 431.082 183.411 433.743 183.684 436.864C183.957 439.985 185.644 442.384 187.453 442.222Z" fill="black"/>
<path d="M217.869 434.735C217.382 434.735 216.983 434.332 216.983 433.84C216.983 432.273 215.721 431.009 214.182 431.009C212.643 431.009 211.381 432.273 211.381 433.84C211.381 434.332 210.982 434.735 210.495 434.735C210.008 434.735 209.61 434.332 209.61 433.84C209.61 431.289 211.658 429.219 214.182 429.219C216.706 429.219 218.755 431.289 218.755 433.84C218.755 434.332 218.356 434.735 217.869 434.735Z" fill="black"/>
<path d="M158.083 427.092C157.042 427.092 156.09 426.432 155.713 425.448C155.47 424.81 155.492 424.116 155.758 423.49C156.023 422.863 156.533 422.382 157.164 422.136C157.186 422.136 157.363 422.057 157.684 421.934C159.732 405.106 172.387 390.974 189.349 386.666C192.847 385.782 196.434 385.324 199.988 385.324C212.499 385.324 224.479 390.974 232.129 400.463C232.151 400.463 232.173 400.463 232.195 400.463C233.469 400.463 234.554 401.425 234.709 402.712C234.797 403.45 234.576 404.222 234.089 404.77C233.646 405.285 233.059 405.565 232.406 405.576C203.321 406.091 168.678 420.793 159.123 426.835C158.946 426.947 158.78 426.981 158.692 427.003C158.47 427.059 158.271 427.081 158.061 427.081L158.083 427.092Z" fill="#F2C873"/>
<path d="M199.988 386.219C212.588 386.219 224.302 391.937 231.742 401.403C231.819 401.403 231.908 401.38 231.996 401.369C232.063 401.369 232.14 401.358 232.207 401.358C233.026 401.358 233.734 401.973 233.845 402.824C233.956 403.741 233.325 404.67 232.417 404.692C203.708 405.196 168.977 419.574 158.681 426.097C158.625 426.13 158.548 426.142 158.492 426.164C158.359 426.197 158.227 426.209 158.094 426.209C157.429 426.209 156.809 425.806 156.555 425.135C156.223 424.273 156.654 423.311 157.496 422.975C157.529 422.964 157.883 422.818 158.514 422.583C160.264 406.326 172.299 391.925 189.57 387.539C193.069 386.655 196.567 386.23 199.999 386.23M199.988 384.429C196.357 384.429 192.703 384.887 189.127 385.794C172 390.146 159.168 404.323 156.876 421.285C156.865 421.285 156.854 421.285 156.843 421.297C155.093 421.979 154.208 423.982 154.883 425.761C155.392 427.081 156.677 427.977 158.072 427.977C158.348 427.977 158.636 427.943 158.902 427.876C159.013 427.853 159.301 427.786 159.599 427.596C169.088 421.588 203.509 406.986 232.428 406.471C233.325 406.46 234.155 406.057 234.764 405.352C235.417 404.591 235.716 403.596 235.583 402.589C235.384 400.989 234.111 399.747 232.55 399.579C224.733 390.079 212.621 384.429 199.988 384.429Z" fill="black"/>
<path d="M226.815 396.457C193.268 400.653 169.32 411.518 159.799 416.463C159.456 417.683 159.168 418.925 158.946 420.178C166.353 416.105 192.061 403.305 229.505 399.042C228.653 398.135 227.756 397.274 226.826 396.457H226.815Z" fill="white"/>
<path d="M162.755 442.847C162.412 443.093 155.381 449.102 150.244 453.499C147.332 455.994 147.089 460.448 149.713 463.245C152.436 466.154 157.042 466.031 159.611 462.987L169.819 450.859" fill="#4252E2"/>
<path d="M154.54 466.243C152.469 466.243 150.488 465.382 149.059 463.86C147.62 462.316 146.889 460.313 147.011 458.198C147.122 456.095 148.074 454.181 149.668 452.816C155.193 448.095 161.869 442.399 162.235 442.131L163.264 443.585C162.943 443.832 158.16 447.893 150.798 454.193C149.58 455.233 148.86 456.699 148.772 458.31C148.683 459.921 149.237 461.466 150.344 462.64C151.462 463.838 153.045 464.498 154.684 464.464C156.322 464.419 157.861 463.67 158.924 462.417L169.132 450.288L170.483 451.451L160.275 463.58C158.891 465.225 156.865 466.199 154.728 466.254C154.662 466.254 154.595 466.254 154.529 466.254L154.54 466.243Z" fill="black"/>
<path d="M243.699 440.329C244.075 440.139 252.025 435.44 257.826 431.993C261.114 430.035 262.111 425.694 259.996 422.483C257.804 419.148 253.243 418.477 250.198 421.039L238.097 431.232" fill="#4252E2"/>
<path d="M244.086 441.135L243.311 439.524C243.522 439.412 245.636 438.192 257.383 431.221C258.767 430.405 259.719 429.084 260.074 427.507C260.439 425.929 260.14 424.318 259.254 422.964C258.347 421.588 256.907 420.659 255.28 420.424C253.663 420.189 252.014 420.659 250.751 421.711L238.65 431.904L237.521 430.528L249.622 420.335C251.261 418.947 253.42 418.332 255.534 418.645C257.649 418.958 259.542 420.167 260.727 421.968C261.889 423.736 262.266 425.84 261.79 427.898C261.325 429.957 260.063 431.68 258.269 432.743C244.562 440.878 244.197 441.057 244.075 441.113L244.086 441.135Z" fill="black"/>
</g>
<defs>
<clipPath id="clip0_912_30678">
<rect width="129" height="74" fill="white" transform="translate(202 327)"/>
</clipPath>
<clipPath id="clip1_912_30678">
<rect width="115" height="126" fill="white" transform="translate(147 375)"/>
</clipPath>
</defs>
</svg>
