<svg width="180" height="180" viewBox="0 0 180 180" fill="none" xmlns="http://www.w3.org/2000/svg">
<path d="M104.782 101.536C104.782 101.536 117.967 98.4487 122.368 95.7937C126.769 93.1387 130.261 91.9417 132.718 94.4347C135.175 96.9277 135.652 105.073 129.316 108.07C122.98 111.067 105.421 118.141 103.225 115.441C101.029 112.741 100.453 109.735 100.309 107.737C100.165 105.739 100.822 102.724 104.782 101.536Z" fill="white" stroke="#111111" stroke-width="0.9" stroke-miterlimit="10"/>
<path d="M75.298 101.536C75.298 101.536 62.113 98.4486 57.712 95.7936C53.311 93.1386 49.819 91.9416 47.362 94.4346C44.905 96.9276 44.428 105.073 50.764 108.07C57.1 111.067 74.659 118.141 76.855 115.441C79.051 112.741 79.627 109.735 79.771 107.737C79.915 105.739 79.258 102.724 75.298 101.536Z" fill="white" stroke="#111111" stroke-width="0.9" stroke-miterlimit="10"/>
<path d="M89.8245 167.173C116.051 167.173 137.318 164.356 137.318 160.873C137.318 157.39 116.051 154.573 89.8245 154.573C63.5985 154.573 42.3315 157.39 42.3315 160.873C42.3315 164.356 63.5985 167.173 89.8245 167.173Z" fill="#EAEFF5"/>
<path d="M62.6801 158.632C61.7711 157.282 61.4831 156.031 61.7351 154.87C61.9421 153.889 62.5091 153.097 63.0491 152.53C63.3191 152.251 63.5711 152.035 63.7601 151.891C63.8501 151.819 63.9311 151.765 63.9851 151.729C64.0121 151.711 64.0301 151.702 64.0481 151.693L64.0661 151.684L64.1921 151.603L64.3541 151.495L64.3901 151.306L64.4171 151.171C66.1991 142.126 70.0331 128.581 70.9421 125.404L90.2381 128.932C89.4371 132.316 86.2781 145.645 84.1361 153.592C83.4431 156.166 81.4631 158.083 78.9161 159.361C76.3601 160.639 73.2731 161.251 70.4471 161.251H70.2581C68.4491 161.242 66.8291 160.981 65.5241 160.531C64.1651 160.063 63.1931 159.406 62.6891 158.641L62.6801 158.632Z" fill="white" stroke="#111111" stroke-width="0.9"/>
<path d="M90.094 130.777L89.941 130.714C88.942 130.273 87.952 129.751 87.124 129.283L89.32 129.085L89.725 129.049V128.968L109.129 125.413C110.038 128.581 113.872 142.135 115.654 151.18L115.681 151.315L115.717 151.504L115.87 151.612L115.987 151.693L115.996 151.702C116.005 151.702 116.032 151.72 116.05 151.738C116.104 151.774 116.176 151.828 116.275 151.9C116.464 152.044 116.716 152.26 116.986 152.539C117.526 153.106 118.102 153.907 118.309 154.879C118.552 156.04 118.264 157.3 117.364 158.641C116.851 159.397 115.879 160.054 114.529 160.522C113.305 160.945 111.793 161.206 110.119 161.251H109.615C106.789 161.251 103.702 160.639 101.146 159.361C98.59 158.083 96.619 156.175 95.926 153.592C94.126 146.941 91.669 136.735 90.364 131.236L90.328 131.074L90.274 130.858L90.067 130.768L90.094 130.777Z" fill="white" stroke="#111111" stroke-width="0.9"/>
<path d="M109.894 124.513L90.2289 128.113L70.5729 124.513C70.5729 124.513 68.1159 132.964 65.9829 141.577C68.8989 142.828 79.8609 147.202 87.2589 145.33C88.3569 140.911 89.4639 136.384 90.2379 133.099C91.0209 136.375 92.1189 140.911 93.2169 145.321C100.615 147.193 111.577 142.819 114.493 141.568C114.493 141.568 113.89 138.373 109.903 124.504L109.894 124.513Z" fill="#4252E2" stroke="#111111" stroke-width="0.9" stroke-miterlimit="10"/>
<path opacity="0.99" d="M90.2655 129.094C103.783 129.031 110.137 125.746 110.137 125.746C110.137 115.135 101.632 99.6187 101.632 99.6187L90.0585 100.681L78.4845 99.6187C78.4845 99.6187 69.9795 115.135 69.9795 125.746C69.9795 125.746 76.3245 129.031 89.8515 129.094H90.2835H90.2655Z" fill="#4252E2" stroke="#111111" stroke-width="0.9" stroke-miterlimit="10"/>
<path d="M77.6746 101.131C77.0716 102.31 76.1896 104.119 75.2266 106.306C79.1416 110.518 89.2756 120.436 100.643 123.73L102.11 118.672C90.0226 115.162 78.8266 102.481 77.6656 101.14L77.6746 101.131Z" fill="#E8C221" stroke="#111111" stroke-width="0.9" stroke-miterlimit="10"/>
<path d="M112.144 116.989H99.7508C97.7528 116.989 96.1328 118.609 96.1328 120.607V128.419C96.1328 130.417 97.7528 132.037 99.7508 132.037H112.144C114.142 132.037 115.762 130.417 115.762 128.419V120.607C115.762 118.609 114.142 116.989 112.144 116.989Z" fill="#E8C221" stroke="#111111" stroke-width="0.9" stroke-miterlimit="10"/>
<path d="M115.763 124.512H101.228C99.7695 124.512 98.5815 123.324 98.5815 121.866V120.453" fill="#E8C221"/>
<path d="M115.763 124.512H101.228C99.7695 124.512 98.5815 123.324 98.5815 121.866V120.453" stroke="#111111" stroke-width="0.9" stroke-miterlimit="10"/>
<path d="M90.0403 106.891C104.071 106.891 115.447 94.8757 115.447 80.0617C115.447 65.2477 104.071 53.2327 90.0403 53.2327C76.0093 53.2327 64.6333 65.2477 64.6333 80.0617C64.6333 94.8757 76.0093 106.891 90.0403 106.891Z" fill="#111111"/>
<path d="M115.142 85.8758C114.377 85.1108 113.135 85.0658 112.028 85.6508C111.326 75.1748 101.759 66.8678 90.0407 66.8678C78.3227 66.8678 68.7557 75.1748 68.0537 85.6508C66.9467 85.0658 65.6957 85.1108 64.9397 85.8758C63.9407 86.8748 64.1657 88.6928 65.4167 89.9438C66.3167 90.8438 67.5047 91.1948 68.4767 90.9608C70.5467 100.06 79.4117 106.9 90.0407 106.9C100.67 106.9 109.544 100.06 111.605 90.9608C112.577 91.1948 113.765 90.8438 114.665 89.9438C115.916 88.6928 116.132 86.8748 115.142 85.8758Z" fill="white" stroke="#111111" stroke-width="0.9" stroke-miterlimit="10"/>
<path d="M105.88 66.8678H74.2002V78.3968H105.88V66.8678Z" fill="#111111"/>
<path d="M90.0404 91.5458C87.7724 91.5458 85.6394 91.1408 83.7764 90.4298C83.5334 91.1948 83.3984 92.0048 83.3984 92.8598C83.3984 96.9278 86.3684 100.222 90.0314 100.222C93.6944 100.222 96.6644 96.9278 96.6644 92.8598C96.6644 92.0048 96.5294 91.1948 96.2864 90.4298C94.4324 91.1408 92.2994 91.5458 90.0224 91.5458H90.0314H90.0404Z" fill="#111111"/>
<path d="M90.0406 94.6687C87.8086 94.6687 85.7926 95.4427 84.3706 96.6757C85.5406 98.8087 87.6286 100.231 90.0406 100.231C92.4526 100.231 94.5496 98.8087 95.7106 96.6757C94.2796 95.4427 92.2726 94.6687 90.0406 94.6687Z" fill="#E93417"/>
<path d="M90.0404 91.5458C87.7724 91.5458 85.6394 91.1408 83.7764 90.4298C83.5334 91.1948 83.3984 92.0048 83.3984 92.8598C83.3984 96.9278 86.3684 100.222 90.0314 100.222C93.6944 100.222 96.6644 96.9278 96.6644 92.8598C96.6644 92.0048 96.5294 91.1948 96.2864 90.4298C94.4324 91.1408 92.2994 91.5458 90.0224 91.5458H90.0314H90.0404Z" stroke="#111111" stroke-width="0.9" stroke-miterlimit="10"/>
<path d="M83.398 87.4779C84.109 87.4779 84.6941 86.6409 84.6941 85.6059C84.6941 84.5709 84.118 83.7339 83.398 83.7339C82.678 83.7339 82.1021 84.5709 82.1021 85.6059C82.1021 86.6409 82.678 87.4779 83.398 87.4779Z" fill="#111111"/>
<path d="M85.0901 81.6998C84.6131 81.2678 84.0371 81.0068 83.4071 81.0068C82.7771 81.0068 82.2011 81.2678 81.7241 81.6998" stroke="#111111" stroke-width="0.9" stroke-miterlimit="10"/>
<path d="M96.6822 87.4779C97.3932 87.4779 97.9782 86.6409 97.9782 85.6059C97.9782 84.5709 97.4022 83.7339 96.6822 83.7339C95.9622 83.7339 95.3862 84.5709 95.3862 85.6059C95.3862 86.6409 95.9622 87.4779 96.6822 87.4779Z" fill="#111111"/>
<path d="M98.3567 81.6998C97.8797 81.2678 97.3037 81.0068 96.6737 81.0068C96.0437 81.0068 95.4677 81.2678 94.9907 81.6998" stroke="#111111" stroke-width="0.9" stroke-miterlimit="10"/>
<path d="M75.8651 89.4216L74.6411 91.4556" stroke="#EFA0B5" stroke-width="0.9" stroke-miterlimit="10"/>
<path d="M77.6115 89.4216L76.3965 91.4556" stroke="#EFA0B5" stroke-width="0.9" stroke-miterlimit="10"/>
<path d="M79.3754 89.4216L78.1514 91.4556" stroke="#EFA0B5" stroke-width="0.9" stroke-miterlimit="10"/>
<path d="M101.929 89.4216L100.705 91.4556" stroke="#EFA0B5" stroke-width="0.9" stroke-miterlimit="10"/>
<path d="M103.684 89.4216L102.469 91.4556" stroke="#EFA0B5" stroke-width="0.9" stroke-miterlimit="10"/>
<path d="M105.439 89.4216L104.224 91.4556" stroke="#EFA0B5" stroke-width="0.9" stroke-miterlimit="10"/>
<path d="M115.996 70.4677C115.735 70.3777 115.474 70.3057 115.213 70.2247C111.955 59.4067 101.92 51.5227 90.0311 51.5227C78.1421 51.5227 68.1161 59.4067 64.8581 70.2247C64.5971 70.3147 64.3361 70.3867 64.0751 70.4677C63.3821 70.7017 63.0131 71.4397 63.2471 72.1327C63.4271 72.6817 63.9491 73.0327 64.4981 73.0327C64.6331 73.0327 64.7771 73.0147 64.9121 72.9697C72.9941 70.2697 81.4451 68.9017 90.0311 68.9017C98.6171 68.9017 107.068 70.2697 115.15 72.9697C115.843 73.2037 116.59 72.8257 116.815 72.1417C117.049 71.4487 116.68 70.7017 115.987 70.4767L115.996 70.4677Z" fill="#F2C873"/>
<path d="M65.6322 67.8309C65.2902 68.4069 64.9662 69.0099 64.6602 69.6129C72.8592 67.0929 81.3822 65.7879 90.0312 65.7879C98.6802 65.7879 107.203 67.0839 115.402 69.6129C115.096 69.0099 114.772 68.4069 114.43 67.8309C106.528 65.5359 98.3382 64.3749 90.0312 64.3749C81.7242 64.3749 73.5342 65.5359 65.6322 67.8309Z" fill="white"/>
<path d="M115.996 70.4677C115.735 70.3777 115.474 70.3057 115.213 70.2247C111.955 59.4067 101.92 51.5227 90.0311 51.5227C78.1421 51.5227 68.1161 59.4067 64.8581 70.2247C64.5971 70.3147 64.3361 70.3867 64.0751 70.4677C63.3821 70.7017 63.0131 71.4397 63.2471 72.1327C63.4271 72.6817 63.9491 73.0327 64.4981 73.0327C64.6331 73.0327 64.7771 73.0147 64.9121 72.9697C72.9941 70.2697 81.4451 68.9017 90.0311 68.9017C98.6171 68.9017 107.068 70.2697 115.15 72.9697C115.843 73.2037 116.59 72.8257 116.815 72.1417C117.049 71.4487 116.68 70.7017 115.987 70.4767L115.996 70.4677Z" stroke="#111111" stroke-width="0.9" stroke-miterlimit="10"/>
<path d="M30.5184 16.9422L27.8999 17.6005L52.2123 114.321L54.8308 113.662L30.5184 16.9422Z" fill="white" stroke="#111111" stroke-width="0.9" stroke-miterlimit="10"/>
<path d="M149.559 16.9383L125.281 113.667L127.9 114.324L152.178 17.5956L149.559 16.9383Z" fill="white" stroke="#111111" stroke-width="0.9" stroke-miterlimit="10"/>
<path d="M145.867 45.2586C109.219 37.6986 70.4291 37.6986 33.7811 45.2586L28.3271 18.8166C68.5571 10.5276 111.091 10.5276 151.321 18.8166L145.867 45.2586Z" fill="white" stroke="#111111" stroke-width="0.9" stroke-miterlimit="10"/>
<path d="M56.8838 20.6884L56.9828 21.5434L59.8538 21.2194C60.2228 21.1744 60.4208 21.4534 60.4568 21.8044C60.4928 22.1554 60.3668 22.4704 59.9978 22.5064L52.5098 23.3434C52.1408 23.3884 51.9428 23.1094 51.9068 22.7584C51.8708 22.4074 51.9968 22.1014 52.3658 22.0564L55.3808 21.7234L55.2818 20.8684C55.2278 20.4184 55.5788 20.1664 56.0108 20.1214C56.4338 20.0764 56.8388 20.2384 56.8928 20.6884H56.8838ZM60.0248 25.4584C60.1598 26.6284 59.2958 27.5104 57.6668 27.8704L57.8108 29.1304C58.8638 28.9594 59.9438 28.7794 61.0238 28.5544C61.3928 28.4824 61.6088 28.6984 61.6808 29.0494C61.7528 29.4004 61.6268 29.7424 61.2758 29.8144C58.8368 30.3004 55.9748 30.7054 52.9958 31.0384C52.6088 31.0834 52.4018 30.8134 52.3568 30.4534C52.3118 30.0934 52.4648 29.7874 52.8518 29.7424C53.9768 29.6164 55.1018 29.4904 56.2448 29.3464L56.1008 28.0414C54.4178 28.0414 53.3828 27.4024 53.2568 26.2054C53.1038 24.8554 54.2738 23.9014 56.3978 23.6674C58.5218 23.4334 59.8718 24.0904 60.0248 25.4494V25.4584ZM56.3618 32.0644L56.5238 33.4954C56.5508 33.7564 56.6408 33.8284 56.9018 33.7924L64.4078 32.9554C64.7768 32.9104 64.9748 33.1984 65.0108 33.5584C65.0468 33.9184 64.9208 34.2334 64.5518 34.2784L56.3528 35.1964C55.4168 35.3044 55.0838 35.0434 54.9758 34.1254L54.7688 32.2444C54.7148 31.7764 55.0838 31.5244 55.4798 31.4794C55.8758 31.4344 56.3078 31.5964 56.3618 32.0644ZM54.7238 26.0434C54.7868 26.6194 55.4438 26.9614 56.7488 26.8084C58.0538 26.6644 58.6208 26.1874 58.5578 25.6114C58.4858 25.0174 57.8378 24.7024 56.5328 24.8464C55.2278 24.9904 54.6608 25.4494 54.7238 26.0434ZM63.1298 20.2294L63.5978 24.3694L65.1638 24.1984C65.5778 24.1534 65.7938 24.4414 65.8388 24.8194C65.8838 25.2064 65.7398 25.5484 65.3168 25.5934L63.7508 25.7644L64.2548 30.2734C64.3088 30.7234 63.9398 30.9754 63.5258 31.0204C63.1208 31.0654 62.7158 30.9034 62.6618 30.4444L61.5368 20.3914C61.4828 19.9414 61.8518 19.6894 62.2568 19.6444C62.6708 19.5994 63.0848 19.7614 63.1388 20.2114L63.1298 20.2294Z" fill="#111111"/>
<path d="M74.2449 23.1005C74.3439 25.1525 73.2009 26.7635 70.7439 26.8895C68.2869 27.0065 66.9999 25.5125 66.9009 23.4605C66.8019 21.4175 67.9449 19.8065 70.4019 19.6895C72.8589 19.5725 74.1459 21.0665 74.2449 23.1005ZM68.4579 23.3795C68.5119 24.6125 69.1509 25.6025 70.6899 25.5305C72.2289 25.4585 72.7599 24.4145 72.6969 23.1815C72.6339 21.9485 72.0039 20.9765 70.4739 21.0485C68.9349 21.1205 68.4039 22.1555 68.4579 23.3795ZM79.1859 30.7595C79.2849 32.7845 77.5839 33.9005 74.5869 34.0445C71.5899 34.1885 69.7989 33.2345 69.6999 31.2095C69.6009 29.1845 71.3019 28.0685 74.2899 27.9245C77.2779 27.7805 79.0779 28.7345 79.1769 30.7595H79.1859ZM71.3109 31.1375C71.3649 32.2085 72.3279 32.8385 74.5329 32.7305C76.7199 32.6225 77.6379 31.9025 77.5929 30.8315C77.5479 29.7605 76.5579 29.1305 74.3709 29.2295C72.1749 29.3375 71.2659 30.0575 71.3199 31.1285L71.3109 31.1375ZM78.5649 19.3745L78.9249 26.8985C78.9429 27.3485 78.5649 27.5825 78.1599 27.6005C77.7549 27.6185 77.3409 27.4295 77.3229 26.9795L77.2329 25.1525L75.3519 25.2425C74.9649 25.2605 74.7849 24.9455 74.7669 24.5675C74.7489 24.1985 74.8929 23.8655 75.2799 23.8475L77.1609 23.7575L77.0889 22.2545L75.2079 22.3445C74.8209 22.3625 74.6409 22.0655 74.6229 21.6785C74.6049 21.3095 74.7489 20.9945 75.1359 20.9765L77.0169 20.8865L76.9449 19.4645C76.9269 18.9965 77.3139 18.7625 77.7189 18.7445C78.1239 18.7265 78.5199 18.9155 78.5469 19.3835L78.5649 19.3745Z" fill="#111111"/>
<path d="M86.2865 19.0054V19.9954L89.1846 20.0134C89.5716 20.0134 89.7515 20.3284 89.7515 20.6974C89.7515 21.0664 89.5716 21.3724 89.1846 21.3724L81.6066 21.3274C81.2196 21.3274 81.0396 21.0124 81.0396 20.6434C81.0396 20.2744 81.2196 19.9684 81.6066 19.9684L84.6665 19.9864V18.9964C84.6665 18.5284 85.0805 18.3214 85.4855 18.3214C85.9085 18.3214 86.2955 18.5374 86.2865 19.0054ZM88.8966 24.6934C88.8966 26.2504 87.5826 27.2134 85.4316 27.2044C83.2806 27.1954 81.9846 26.2144 81.9936 24.6574C81.9936 23.1184 83.3076 22.1554 85.4586 22.1644C87.6186 22.1734 88.9056 23.1544 88.8966 24.6934ZM84.8105 28.5904V29.6794L90.9755 29.7154V28.6264C90.9755 28.1854 91.3896 27.9964 91.7586 27.9964C92.1636 27.9964 92.5505 28.1944 92.5505 28.6354L92.5326 32.3254C92.5326 33.2524 92.2176 33.5404 91.2816 33.5314L84.4776 33.4954C83.5416 33.4954 83.2355 33.1984 83.2355 32.2714L83.2536 28.5814C83.2536 28.1404 83.6496 27.9514 84.0366 27.9514C84.4236 27.9514 84.8105 28.1494 84.8105 28.5904ZM83.4516 24.6574C83.4516 25.4224 84.1446 25.9264 85.4406 25.9354C86.7546 25.9354 87.4385 25.4404 87.4385 24.6844C87.4385 23.9374 86.7635 23.4154 85.4495 23.4154C84.1535 23.4154 83.4516 23.9194 83.4516 24.6664V24.6574ZM85.0446 32.1994L90.7146 32.2354C90.8766 32.2354 90.9576 32.1544 90.9576 31.9924V30.9844L84.7926 30.9484V31.9564C84.7926 32.1184 84.8646 32.1994 85.0446 32.1994ZM92.6046 19.3654L92.5865 22.3624H94.3865C94.7915 22.3714 94.9715 22.6954 94.9625 23.0734C94.9625 23.4604 94.7826 23.7844 94.3776 23.7844H92.5776L92.5596 26.6284C92.5596 27.0784 92.1635 27.2944 91.7495 27.2854C91.3445 27.2854 90.9576 27.0694 90.9576 26.6194L90.9936 19.3654C90.9936 18.8974 91.3896 18.6904 91.7946 18.6904C92.2176 18.6904 92.6046 18.9064 92.6046 19.3744V19.3654Z" fill="#111111"/>
<path d="M98.419 20.5174L98.059 27.3754C98.05 27.6184 98.14 27.7174 98.383 27.7354C100.615 27.8524 102.415 27.8344 104.179 27.6814C104.557 27.6544 104.782 27.9424 104.791 28.3114C104.818 28.7074 104.656 29.0494 104.296 29.0764C102.784 29.2114 100.849 29.2564 97.582 29.0764C96.646 29.0224 96.367 28.7164 96.421 27.7984L96.808 20.4184C96.835 19.9324 97.231 19.7434 97.654 19.7614C98.077 19.7884 98.455 20.0134 98.428 20.4994L98.419 20.5174ZM108.085 20.0674L107.419 32.6854C107.392 33.1534 106.996 33.3424 106.555 33.3244C106.15 33.3064 105.754 33.0724 105.781 32.6044L106.447 19.9864C106.474 19.5184 106.888 19.3294 107.293 19.3474C107.725 19.3744 108.103 19.5994 108.085 20.0674Z" fill="#111111"/>
<path d="M118.111 22.0565C118.075 22.4255 117.868 22.7135 117.481 22.6775L112.963 22.2545C112.72 22.2275 112.612 22.3175 112.594 22.5605L112.054 28.2665C112.027 28.5095 112.117 28.6175 112.36 28.6355C114.475 28.8335 116.275 28.8875 118.039 28.8155C118.417 28.7975 118.633 29.1035 118.624 29.4725C118.633 29.8685 118.453 30.2015 118.093 30.2195C116.572 30.2915 114.637 30.2555 111.514 29.9585C110.578 29.8685 110.299 29.5535 110.389 28.6355L111.028 21.8945C111.118 20.9765 111.451 20.7155 112.387 20.7965L117.616 21.2915C118.003 21.3275 118.147 21.6695 118.111 22.0565ZM122.062 21.3095L121.666 25.5035L123.439 25.6655C123.862 25.7105 124.006 26.0345 123.97 26.4125C123.934 26.7995 123.727 27.1055 123.304 27.0695L121.531 26.9075L120.874 33.8915C120.829 34.3595 120.424 34.5305 120.001 34.4945C119.578 34.4585 119.218 34.2065 119.254 33.7385L120.442 21.1565C120.487 20.6885 120.892 20.5175 121.315 20.5535C121.738 20.5895 122.107 20.8415 122.062 21.3095Z" fill="#111111"/>
<path d="M126.652 33.3694C126.58 33.9634 126.058 34.3774 125.464 34.3054C124.87 34.2334 124.456 33.7114 124.528 33.1174C124.6 32.5234 125.122 32.1274 125.716 32.1994C126.31 32.2714 126.724 32.7754 126.652 33.3694ZM127.75 22.6954L126.652 30.2644C126.571 30.7774 126.229 30.9124 125.878 30.8764C125.527 30.8314 125.221 30.6154 125.284 30.1024L125.977 22.4884C126.04 21.9394 126.418 21.7594 126.949 21.8224C127.48 21.8854 127.822 22.1554 127.741 22.7044L127.75 22.6954Z" fill="#111111"/>
<path d="M51.6284 91.7169C51.6284 91.7169 56.8304 94.1289 57.1184 100.105C57.4064 106.081 51.1964 107.89 50.1344 108.061C49.0724 108.232 44.7524 107.53 43.2044 101.824C41.6564 96.1179 47.2364 89.1519 51.6284 91.7169Z" fill="white" stroke="#111111" stroke-width="0.9" stroke-miterlimit="10"/>
<path d="M128.461 91.7169C128.461 91.7169 123.259 94.1289 122.971 100.105C122.683 106.081 128.893 107.89 129.955 108.061C131.017 108.232 135.337 107.53 136.885 101.824C138.433 96.1179 132.853 89.1519 128.461 91.7169Z" fill="white" stroke="#111111" stroke-width="0.9" stroke-miterlimit="10"/>
</svg>
