<svg width="174" height="116" viewBox="0 0 174 116" fill="none" xmlns="http://www.w3.org/2000/svg">
<path d="M173.5 110.025C173.5 112.704 171.461 114.816 168.982 114.816H5.01775C2.53941 114.816 0.5 112.704 0.5 110.025V67.9479C0.5 65.2689 2.53941 63.1577 5.01775 63.1577H168.982C171.461 63.1577 173.5 65.2689 173.5 67.9479V110.025Z" fill="#383838" stroke="#383838"/>
<path d="M48.4539 88.4332C48.4338 85.1397 51.1471 83.5533 51.2677 83.4729C49.7201 81.2238 47.3284 80.9225 46.4843 80.9024C44.4745 80.7016 42.525 82.1074 41.5 82.1074C40.475 82.1074 38.8873 80.9225 37.1789 80.9627C34.9882 81.0029 32.9583 82.268 31.8328 84.216C29.5216 88.2123 31.25 94.0963 33.4608 97.3294C34.5662 98.9159 35.8725 100.683 37.5608 100.623C39.2289 100.563 39.8319 99.5585 41.8417 99.5585C43.8515 99.5585 44.4142 100.623 46.1427 100.583C47.9314 100.563 49.0368 98.9962 50.1221 97.3897C51.4084 95.5823 51.9108 93.795 51.9309 93.6946C51.8907 93.6946 48.474 92.3692 48.4338 88.4332H48.4539Z" fill="white"/>
<path d="M45.1782 78.7732C46.0626 77.6687 46.6856 76.1425 46.5047 74.5962C45.2184 74.6564 43.5905 75.4798 42.666 76.5843C41.842 77.5482 41.0983 79.1146 41.2993 80.6007C42.7464 80.7011 44.2336 79.8777 45.1782 78.7732Z" fill="white"/>
<path d="M72.45 100.403H70.1388L68.8726 96.4067H64.451L63.2451 100.403H60.9941L65.3755 86.8276H68.0687L72.4701 100.403H72.45ZM68.4907 94.7399L67.3451 91.2055C67.2245 90.844 67.0035 89.9805 66.6618 88.6551H66.6216C66.4809 89.2375 66.2799 90.0809 65.9785 91.2055L64.853 94.7399H68.5108H68.4907Z" fill="white"/>
<path d="M83.7052 95.3825C83.7052 97.0493 83.2631 98.3547 82.3586 99.3387C81.5547 100.202 80.5498 100.624 79.364 100.624C78.0778 100.624 77.1532 100.162 76.5905 99.2383H76.5503V104.399H74.3797V93.8563C74.3797 92.812 74.3596 91.7276 74.2993 90.6432H76.2086L76.3292 92.1895H76.3694C77.0929 91.0248 78.1983 90.4424 79.6655 90.4424C80.8312 90.4424 81.7758 90.9043 82.5596 91.808C83.3234 92.7317 83.7253 93.9166 83.7253 95.4227L83.7052 95.3825ZM81.4743 95.4629C81.4743 94.519 81.2532 93.7157 80.8312 93.1133C80.3689 92.4707 79.7258 92.1493 78.942 92.1493C78.3993 92.1493 77.917 92.3301 77.4748 92.6916C77.0327 93.053 76.7513 93.5149 76.6106 94.0973C76.5503 94.3584 76.5101 94.5793 76.5101 94.76V96.3866C76.5101 97.0895 76.7312 97.6919 77.1733 98.194C77.6155 98.676 78.1782 98.937 78.8817 98.937C79.7057 98.937 80.3488 98.6157 80.791 97.9932C81.2533 97.3706 81.4743 96.5272 81.4743 95.503V95.4629Z" fill="white"/>
<path d="M94.9601 95.3825C94.9601 97.0493 94.5179 98.3547 93.6135 99.3387C92.8096 100.202 91.8047 100.624 90.6189 100.624C89.3326 100.624 88.4081 100.162 87.8454 99.2383H87.8052V104.399H85.6346V93.8563C85.6346 92.812 85.6145 91.7276 85.5542 90.6432H87.4635L87.5841 92.1895H87.6243C88.3478 91.0248 89.4532 90.4424 90.9204 90.4424C92.066 90.4424 93.0307 90.9043 93.8145 91.808C94.5782 92.7317 94.9802 93.9166 94.9802 95.4227L94.9601 95.3825ZM92.7493 95.4629C92.7493 94.519 92.5282 93.7157 92.1062 93.1133C91.6439 92.4707 91.0008 92.1493 90.2169 92.1493C89.6743 92.1493 89.1919 92.3301 88.7498 92.6916C88.3076 93.053 88.0263 93.5149 87.8856 94.0973C87.8253 94.3584 87.7851 94.5793 87.7851 94.76V96.3866C87.7851 97.0895 88.0062 97.6919 88.4483 98.194C88.8905 98.676 89.4532 98.937 90.1567 98.937C90.9807 98.937 91.6238 98.6157 92.066 97.9932C92.5282 97.3706 92.7493 96.5272 92.7493 95.503V95.4629Z" fill="white"/>
<path d="M107.561 96.5872C107.561 97.7318 107.159 98.6757 106.355 99.3986C105.471 100.182 104.245 100.583 102.657 100.583C101.19 100.583 100.024 100.302 99.1401 99.74L99.6426 97.9326C100.607 98.515 101.652 98.7962 102.798 98.7962C103.622 98.7962 104.245 98.6154 104.707 98.2339C105.17 97.8724 105.391 97.3703 105.391 96.7478C105.391 96.2056 105.21 95.7236 104.828 95.3622C104.446 94.9806 103.823 94.6392 102.959 94.3179C100.587 93.4343 99.4014 92.129 99.4014 90.422C99.4014 89.2974 99.8235 88.3937 100.647 87.6708C101.472 86.9679 102.577 86.6064 103.964 86.6064C105.21 86.6064 106.235 86.8273 107.039 87.2491L106.496 89.0163C105.732 88.5946 104.868 88.3937 103.903 88.3937C103.14 88.3937 102.537 88.5745 102.115 88.956C101.753 89.2974 101.572 89.6991 101.572 90.181C101.572 90.7232 101.773 91.165 102.195 91.5064C102.557 91.8277 103.22 92.1691 104.165 92.5507C105.33 93.0126 106.195 93.5749 106.737 94.1974C107.28 94.8199 107.561 95.6232 107.561 96.547V96.5872Z" fill="white"/>
<path d="M114.757 92.2499H112.365V97.0093C112.365 98.2142 112.787 98.8167 113.631 98.8167C114.013 98.8167 114.335 98.7765 114.596 98.7163L114.656 100.363C114.234 100.524 113.671 100.604 112.968 100.604C112.104 100.604 111.44 100.343 110.958 99.8208C110.476 99.2987 110.235 98.4151 110.235 97.1901V92.2499H108.808V90.6233H110.235V88.836L112.365 88.1934V90.6233H114.757V92.2499Z" fill="white"/>
<path d="M125.569 95.4223C125.569 96.9285 125.147 98.1535 124.283 99.1174C123.379 100.121 122.193 100.603 120.685 100.603C119.178 100.603 118.093 100.121 117.249 99.1776C116.405 98.2338 115.962 97.0289 115.962 95.5629C115.962 94.0969 116.405 92.8117 117.289 91.8478C118.173 90.8838 119.359 90.4019 120.846 90.4019C122.333 90.4019 123.439 90.8838 124.303 91.8277C125.127 92.7514 125.549 93.9564 125.549 95.4023L125.569 95.4223ZM123.318 95.5027C123.318 94.599 123.117 93.8359 122.735 93.1732C122.273 92.39 121.63 92.0084 120.786 92.0084C119.942 92.0084 119.238 92.39 118.796 93.1732C118.414 93.8158 118.213 94.599 118.213 95.5428C118.213 96.4867 118.414 97.2096 118.796 97.8723C119.258 98.6555 119.922 99.0371 120.766 99.0371C121.61 99.0371 122.253 98.6354 122.715 97.8522C123.117 97.1895 123.318 96.4063 123.318 95.5027Z" fill="white"/>
<path d="M132.644 92.5305C132.423 92.4903 132.202 92.4702 131.961 92.4702C131.197 92.4702 130.614 92.7514 130.192 93.3338C129.83 93.8358 129.649 94.4985 129.649 95.2616V100.403H127.479V93.6952C127.479 92.5706 127.479 91.5465 127.418 90.6227H129.308L129.388 92.4903H129.448C129.669 91.8477 130.031 91.3256 130.534 90.944C131.016 90.6026 131.539 90.4219 132.101 90.4219C132.302 90.4219 132.483 90.4219 132.644 90.462V92.5305Z" fill="white"/>
<path d="M142.394 94.6727C142.394 95.0542 142.374 95.3956 142.314 95.6567H135.782C135.802 96.6206 136.124 97.3636 136.727 97.8657C137.269 98.3276 137.993 98.5485 138.857 98.5485C139.822 98.5485 140.706 98.3878 141.49 98.0866L141.832 99.5927C140.907 99.9944 139.802 100.195 138.556 100.195C137.028 100.195 135.842 99.7534 134.978 98.8497C134.114 97.9661 133.672 96.7612 133.672 95.255C133.672 93.7489 134.074 92.544 134.878 91.5801C135.722 90.5358 136.867 90.0137 138.294 90.0137C139.721 90.0137 140.766 90.5358 141.49 91.5801C142.073 92.4034 142.354 93.4477 142.354 94.6526L142.394 94.6727ZM140.324 94.1104C140.324 93.4678 140.204 92.9055 139.902 92.4436C139.52 91.8411 138.938 91.5399 138.174 91.5399C137.47 91.5399 136.888 91.8411 136.445 92.4235C136.084 92.8854 135.863 93.4477 135.802 94.1104H140.344H140.324Z" fill="white"/>
<path d="M67.77 78.4729C67.77 79.6778 67.4082 80.5815 66.6847 81.184C66.0214 81.7463 65.0768 82.0274 63.8509 82.0274C63.2479 82.0274 62.7254 82.0073 62.2832 81.9471V75.3803C62.8459 75.2799 63.469 75.2397 64.1322 75.2397C65.2979 75.2397 66.1822 75.5008 66.7852 76.0029C67.4484 76.5852 67.7901 77.3885 67.7901 78.4729H67.77ZM66.6445 78.5131C66.6445 77.7299 66.4435 77.1475 66.0214 76.7258C65.5994 76.3041 65.0165 76.1033 64.2126 76.1033C63.871 76.1033 63.5896 76.1234 63.3484 76.1836V81.1639C63.4891 81.1639 63.7303 81.184 64.0719 81.184C64.896 81.184 65.519 80.9631 65.9611 80.5012C66.4033 80.0393 66.6244 79.3766 66.6244 78.5131H66.6445Z" fill="white"/>
<path d="M73.7377 79.5174C73.7377 80.2604 73.5166 80.8629 73.0946 81.3448C72.6524 81.8268 72.0696 82.0678 71.3259 82.0678C70.5823 82.0678 70.0597 81.8268 69.6377 81.3649C69.2156 80.903 69.0146 80.3006 69.0146 79.5977C69.0146 78.8948 69.2357 78.2522 69.6578 77.7702C70.0798 77.2883 70.6627 77.0674 71.4063 77.0674C72.1499 77.0674 72.6725 77.3084 73.1147 77.7702C73.5166 78.2321 73.7377 78.8145 73.7377 79.5375V79.5174ZM72.6323 79.5575C72.6323 79.1157 72.5318 78.7342 72.3509 78.4129C72.1298 78.0313 71.8083 77.8305 71.3862 77.8305C70.9642 77.8305 70.6225 78.0313 70.4014 78.4129C70.2205 78.7342 70.12 79.1157 70.12 79.5776C70.12 80.0395 70.2205 80.401 70.4014 80.7223C70.6426 81.1038 70.9642 81.3047 71.3661 81.3047C71.7681 81.3047 72.0897 81.1038 72.3308 80.7223C72.5318 80.401 72.6323 80.0194 72.6323 79.5776V79.5575Z" fill="white"/>
<path d="M81.7566 77.168L80.2492 81.9675H79.2644L78.6414 79.879C78.4806 79.3569 78.36 78.8348 78.2595 78.3327C78.159 78.8548 78.0384 79.377 77.8777 79.879L77.2144 81.9675H76.2296L74.8228 77.168H75.9281L76.4708 79.4573C76.6115 79.9995 76.712 80.5216 76.7924 81.0036C76.8728 80.602 76.9933 80.0798 77.1943 79.4774L77.8777 77.1881H78.7419L79.4051 79.4372C79.5659 79.9794 79.6865 80.5216 79.787 81.0237H79.8071C79.8875 80.5216 79.988 79.9995 80.1286 79.4372L80.7115 77.1881H81.7566V77.168Z" fill="white"/>
<path d="M87.3035 81.9674H86.2383V79.2161C86.2383 78.3727 85.9168 77.951 85.2736 77.951C84.952 77.951 84.6908 78.0715 84.5099 78.2924C84.329 78.5133 84.2084 78.7944 84.2084 79.1157V81.9674H83.1432V78.5334C83.1432 78.1116 83.1432 77.6498 83.103 77.1678H84.0476L84.0878 77.9108H84.1079C84.2285 77.6698 84.4094 77.4891 84.6707 77.3284C84.952 77.1477 85.2736 77.0674 85.6354 77.0674C86.0775 77.0674 86.4594 77.208 86.7609 77.5092C87.1226 77.8707 87.3236 78.3928 87.3236 79.0957V81.9674H87.3035Z" fill="white"/>
<path d="M90.2576 81.9671H89.1924V74.9585H90.2576V81.9671Z" fill="white"/>
<path d="M96.5482 79.5174C96.5482 80.2604 96.3272 80.8629 95.9051 81.3448C95.4629 81.8268 94.8801 82.0678 94.1365 82.0678C93.3928 82.0678 92.8703 81.8268 92.4482 81.3649C92.0262 80.903 91.8252 80.3006 91.8252 79.5977C91.8252 78.8948 92.0463 78.2522 92.4683 77.7702C92.8904 77.2883 93.4732 77.0674 94.2169 77.0674C94.9605 77.0674 95.483 77.3084 95.9252 77.7702C96.3272 78.2321 96.5482 78.8145 96.5482 79.5375V79.5174ZM95.4428 79.5575C95.4428 79.1157 95.3424 78.7342 95.1615 78.4129C94.9404 78.0313 94.6188 77.8305 94.1968 77.8305C93.7747 77.8305 93.433 78.0313 93.212 78.4129C93.011 78.7342 92.9306 79.1157 92.9306 79.5776C92.9306 80.0395 93.0311 80.401 93.212 80.7223C93.433 81.1038 93.7747 81.3047 94.1767 81.3047C94.5786 81.3047 94.9002 81.1038 95.1414 80.7223C95.3424 80.401 95.4428 80.0194 95.4428 79.5776V79.5575Z" fill="white"/>
<path d="M101.734 81.9669H100.769L100.689 81.4046H100.669C100.347 81.8465 99.8646 82.0674 99.2617 82.0674C98.7994 82.0674 98.4377 81.9268 98.1563 81.6255C97.9151 81.3645 97.7744 81.0432 97.7744 80.6415C97.7744 80.0592 98.0156 79.5973 98.518 79.296C99.0205 78.9948 99.7038 78.8342 100.588 78.8342V78.7538C100.588 78.1112 100.246 77.81 99.5832 77.81C99.1009 77.81 98.6989 77.9305 98.3372 78.1715L98.1161 77.4686C98.5582 77.1874 99.121 77.0469 99.7641 77.0469C101.03 77.0469 101.653 77.7096 101.653 79.035V80.8022C101.653 81.2842 101.673 81.6657 101.734 81.9469V81.9669ZM100.628 80.3202V79.5772C99.4426 79.5772 98.8597 79.8784 98.8597 80.5411C98.8597 80.7821 98.92 80.9829 99.0607 81.1034C99.2014 81.2239 99.3823 81.2842 99.5832 81.2842C99.8244 81.2842 100.045 81.2038 100.246 81.0633C100.447 80.9227 100.568 80.7219 100.608 80.501C100.608 80.4407 100.608 80.3805 100.608 80.3202H100.628Z" fill="white"/>
<path d="M107.803 81.9671H106.859L106.798 81.204H106.778C106.477 81.7863 105.954 82.0876 105.231 82.0876C104.648 82.0876 104.165 81.8667 103.784 81.4048C103.402 80.9429 103.201 80.3605 103.201 79.6376C103.201 78.8544 103.402 78.2318 103.824 77.7499C104.226 77.3081 104.728 77.0671 105.311 77.0671C105.954 77.0671 106.416 77.288 106.658 77.7298H106.678V74.9585H107.743V80.6818C107.743 81.1437 107.743 81.5855 107.783 81.9872L107.803 81.9671ZM106.698 79.9388V79.1355C106.698 78.995 106.698 78.8945 106.658 78.7941C106.597 78.5331 106.477 78.3122 106.276 78.1515C106.075 77.9708 105.834 77.8905 105.552 77.8905C105.15 77.8905 104.849 78.0511 104.608 78.3724C104.386 78.6937 104.266 79.0954 104.266 79.5974C104.266 80.0995 104.366 80.4609 104.587 80.7622C104.829 81.0835 105.13 81.2441 105.532 81.2441C105.874 81.2441 106.155 81.1036 106.376 80.8425C106.577 80.6015 106.678 80.3003 106.678 79.9589L106.698 79.9388Z" fill="white"/>
<path d="M116.948 79.5174C116.948 80.2604 116.747 80.8629 116.305 81.3448C115.862 81.8268 115.28 82.0678 114.536 82.0678C113.792 82.0678 113.27 81.8268 112.848 81.3649C112.426 80.903 112.225 80.3006 112.225 79.5977C112.225 78.8948 112.446 78.2522 112.868 77.7702C113.31 77.2883 113.873 77.0674 114.616 77.0674C115.36 77.0674 115.882 77.3084 116.325 77.7702C116.727 78.2321 116.948 78.8145 116.948 79.5375V79.5174ZM115.842 79.5575C115.842 79.1157 115.742 78.7342 115.561 78.4129C115.34 78.0313 115.018 77.8305 114.596 77.8305C114.174 77.8305 113.832 78.0313 113.611 78.4129C113.43 78.7342 113.33 79.1157 113.33 79.5776C113.33 80.0395 113.43 80.401 113.611 80.7223C113.853 81.1038 114.174 81.3047 114.576 81.3047C114.978 81.3047 115.3 81.1038 115.541 80.7223C115.742 80.401 115.842 80.0194 115.842 79.5776V79.5575Z" fill="white"/>
<path d="M122.716 81.9674H121.65V79.2161C121.65 78.3727 121.329 77.951 120.686 77.951C120.364 77.951 120.103 78.0715 119.922 78.2924C119.721 78.5334 119.621 78.7944 119.621 79.1157V81.9674H118.555V78.5334C118.555 78.1116 118.555 77.6498 118.515 77.1678H119.46L119.5 77.9108H119.52C119.641 77.6698 119.842 77.4891 120.083 77.3284C120.364 77.1477 120.706 77.0674 121.047 77.0674C121.49 77.0674 121.872 77.208 122.173 77.5092C122.535 77.8707 122.736 78.3928 122.736 79.0957V81.9674H122.716Z" fill="white"/>
<path d="M129.91 77.9711H128.725V80.3006C128.725 80.903 128.926 81.1842 129.348 81.1842C129.529 81.1842 129.689 81.1842 129.83 81.144V81.9473C129.649 82.0276 129.368 82.0678 129.026 82.0678C128.604 82.0678 128.282 81.9473 128.041 81.6862C127.8 81.4252 127.68 81.0034 127.68 80.401V77.9711H126.976V77.1678H127.68V76.2842L128.725 75.9629V77.1678H129.91V77.9711Z" fill="white"/>
<path d="M135.58 81.9671H134.515V79.2359C134.515 78.3724 134.193 77.9507 133.55 77.9507C133.047 77.9507 132.706 78.1917 132.525 78.6937C132.485 78.7941 132.465 78.9347 132.465 79.0753V81.9671H131.399V74.9585H132.465V77.8503C132.806 77.3282 133.289 77.0671 133.912 77.0671C134.354 77.0671 134.716 77.2077 135.017 77.5089C135.379 77.8704 135.56 78.4126 135.56 79.1155V81.9671H135.58Z" fill="white"/>
<path d="M141.408 79.3366C141.408 79.5174 141.408 79.6981 141.368 79.8186H138.152C138.152 80.3006 138.313 80.662 138.614 80.903C138.875 81.1239 139.237 81.2444 139.659 81.2444C140.142 81.2444 140.564 81.1641 140.966 81.0235L141.126 81.7665C140.664 81.9674 140.142 82.0678 139.519 82.0678C138.775 82.0678 138.192 81.8469 137.77 81.4051C137.348 80.9633 137.127 80.3809 137.127 79.6379C137.127 78.8948 137.328 78.3125 137.73 77.8305C138.152 77.3084 138.695 77.0674 139.418 77.0674C140.142 77.0674 140.644 77.3284 140.986 77.8305C141.267 78.2321 141.408 78.7543 141.408 79.3366ZM140.383 79.0555C140.383 78.7342 140.323 78.4731 140.182 78.2321C140.001 77.9309 139.72 77.7903 139.338 77.7903C138.996 77.7903 138.695 77.9309 138.494 78.2321C138.313 78.4731 138.212 78.7342 138.172 79.0555H140.403H140.383Z" fill="white"/>
<path d="M173.5 47.3677C173.5 50.0467 171.461 52.1579 168.982 52.1579H5.01775C2.53941 52.1579 0.5 50.0467 0.5 47.3677V5.29021C0.5 2.61115 2.53941 0.5 5.01775 0.5H168.982C171.461 0.5 173.5 2.61115 173.5 5.29021V47.3677Z" fill="white" stroke="#ECEEF5"/>
<path d="M48.4539 25.7754C48.4338 22.482 51.1471 20.8955 51.2677 20.8152C49.7201 18.566 47.3284 18.2648 46.4843 18.2447C44.4745 18.0439 42.525 19.4496 41.5 19.4496C40.475 19.4496 38.8873 18.2648 37.1789 18.305C34.9882 18.3451 32.9583 19.6103 31.8328 21.5582C29.5216 25.5545 31.25 31.4385 33.4608 34.6717C34.5662 36.2582 35.8725 38.0254 37.5608 37.9652C39.2289 37.9049 39.8319 36.9008 41.8417 36.9008C43.8515 36.9008 44.4142 37.9652 46.1427 37.925C47.9314 37.9049 49.0368 36.3385 50.1221 34.732C51.4084 32.9246 51.9108 31.1373 51.9309 31.0369C51.8907 31.0369 48.474 29.7115 48.4338 25.7754H48.4539Z" fill="#505050"/>
<path d="M45.1782 16.1155C46.0626 15.011 46.6856 13.4848 46.5047 11.9385C45.2184 11.9987 43.5905 12.8221 42.666 13.9266C41.842 14.8905 41.0983 16.4569 41.2993 17.943C42.7464 18.0434 44.2336 17.22 45.1782 16.1155Z" fill="#505050"/>
<path d="M72.45 37.7453H70.1388L68.8726 33.749H64.451L63.2451 37.7453H60.9941L65.3755 24.1699H68.0687L72.4701 37.7453H72.45ZM68.4907 32.0822L67.3451 28.5478C67.2245 28.1863 67.0035 27.3228 66.6618 25.9974H66.6216C66.4809 26.5798 66.2799 27.4232 65.9785 28.5478L64.853 32.0822H68.5108H68.4907Z" fill="#505050"/>
<path d="M83.7052 32.7248C83.7052 34.3916 83.2631 35.6969 82.3586 36.681C81.5547 37.5445 80.5498 37.9662 79.364 37.9662C78.0778 37.9662 77.1532 37.5043 76.5905 36.5805H76.5503V41.7416H74.3797V31.1986C74.3797 30.1543 74.3596 29.0699 74.2993 27.9855H76.2086L76.3292 29.5318H76.3694C77.0929 28.367 78.1983 27.7847 79.6655 27.7847C80.8312 27.7847 81.7758 28.2466 82.5596 29.1502C83.3234 30.074 83.7253 31.2588 83.7253 32.765L83.7052 32.7248ZM81.4743 32.8051C81.4743 31.8613 81.2532 31.058 80.8312 30.4556C80.3689 29.8129 79.7258 29.4916 78.942 29.4916C78.3993 29.4916 77.917 29.6724 77.4748 30.0338C77.0327 30.3953 76.7513 30.8572 76.6106 31.4396C76.5503 31.7006 76.5101 31.9215 76.5101 32.1023V33.7289C76.5101 34.4318 76.7312 35.0342 77.1733 35.5363C77.6155 36.0182 78.1782 36.2793 78.8817 36.2793C79.7057 36.2793 80.3488 35.958 80.791 35.3355C81.2533 34.7129 81.4743 33.8695 81.4743 32.8453V32.8051Z" fill="#505050"/>
<path d="M94.9601 32.7248C94.9601 34.3916 94.5179 35.6969 93.6135 36.681C92.8096 37.5445 91.8047 37.9662 90.6189 37.9662C89.3326 37.9662 88.4081 37.5043 87.8454 36.5805H87.8052V41.7416H85.6346V31.1986C85.6346 30.1543 85.6145 29.0699 85.5542 27.9855H87.4635L87.5841 29.5318H87.6243C88.3478 28.367 89.4532 27.7847 90.9204 27.7847C92.066 27.7847 93.0307 28.2466 93.8145 29.1502C94.5782 30.074 94.9802 31.2588 94.9802 32.765L94.9601 32.7248ZM92.7493 32.8051C92.7493 31.8613 92.5282 31.058 92.1062 30.4556C91.6439 29.8129 91.0008 29.4916 90.2169 29.4916C89.6743 29.4916 89.1919 29.6724 88.7498 30.0338C88.3076 30.3953 88.0263 30.8572 87.8856 31.4396C87.8253 31.7006 87.7851 31.9215 87.7851 32.1023V33.7289C87.7851 34.4318 88.0062 35.0342 88.4483 35.5363C88.8905 36.0182 89.4532 36.2793 90.1567 36.2793C90.9807 36.2793 91.6238 35.958 92.066 35.3355C92.5282 34.7129 92.7493 33.8695 92.7493 32.8453V32.8051Z" fill="#505050"/>
<path d="M107.561 33.9294C107.561 35.0741 107.159 36.018 106.355 36.7409C105.471 37.5241 104.245 37.9257 102.657 37.9257C101.19 37.9257 100.024 37.6446 99.1401 37.0823L99.6426 35.2749C100.607 35.8573 101.652 36.1384 102.798 36.1384C103.622 36.1384 104.245 35.9577 104.707 35.5762C105.17 35.2147 105.391 34.7126 105.391 34.0901C105.391 33.5479 105.21 33.0659 104.828 32.7044C104.446 32.3229 103.823 31.9815 102.959 31.6602C100.587 30.7766 99.4014 29.4713 99.4014 27.7643C99.4014 26.6397 99.8235 25.736 100.647 25.0131C101.472 24.3102 102.577 23.9487 103.964 23.9487C105.21 23.9487 106.235 24.1696 107.039 24.5914L106.496 26.3586C105.732 25.9368 104.868 25.736 103.903 25.736C103.14 25.736 102.537 25.9168 102.115 26.2983C101.753 26.6397 101.572 27.0413 101.572 27.5233C101.572 28.0655 101.773 28.5073 102.195 28.8487C102.557 29.17 103.22 29.5114 104.165 29.893C105.33 30.3549 106.195 30.9172 106.737 31.5397C107.28 32.1622 107.561 32.9655 107.561 33.8893V33.9294Z" fill="#505050"/>
<path d="M114.757 29.5922H112.365V34.3516C112.365 35.5565 112.787 36.159 113.631 36.159C114.013 36.159 114.335 36.1188 114.596 36.0586L114.656 37.7053C114.234 37.8659 113.671 37.9463 112.968 37.9463C112.104 37.9463 111.44 37.6852 110.958 37.1631C110.476 36.6409 110.235 35.7573 110.235 34.5323V29.5922H108.808V27.9656H110.235V26.1783L112.365 25.5356V27.9656H114.757V29.5922Z" fill="#505050"/>
<path d="M125.569 32.7646C125.569 34.2708 125.147 35.4958 124.283 36.4597C123.379 37.4638 122.193 37.9457 120.685 37.9457C119.178 37.9457 118.093 37.4638 117.249 36.5199C116.405 35.5761 115.962 34.3712 115.962 32.9052C115.962 31.4392 116.405 30.154 117.289 29.19C118.173 28.2261 119.359 27.7441 120.846 27.7441C122.333 27.7441 123.439 28.2261 124.303 29.17C125.127 30.0937 125.549 31.2986 125.549 32.7445L125.569 32.7646ZM123.318 32.8449C123.318 31.9413 123.117 31.1781 122.735 30.5154C122.273 29.7322 121.63 29.3507 120.786 29.3507C119.942 29.3507 119.238 29.7322 118.796 30.5154C118.414 31.1581 118.213 31.9413 118.213 32.8851C118.213 33.829 118.414 34.5519 118.796 35.2146C119.258 35.9978 119.922 36.3794 120.766 36.3794C121.61 36.3794 122.253 35.9777 122.715 35.1945C123.117 34.5318 123.318 33.7486 123.318 32.8449Z" fill="#505050"/>
<path d="M132.644 29.8728C132.423 29.8326 132.202 29.8125 131.961 29.8125C131.197 29.8125 130.614 30.0937 130.192 30.676C129.83 31.1781 129.649 31.8408 129.649 32.6039V37.7449H127.479V31.0375C127.479 29.9129 127.479 28.8887 127.418 27.965H129.308L129.388 29.8326H129.448C129.669 29.19 130.031 28.6678 130.534 28.2863C131.016 27.9449 131.539 27.7642 132.101 27.7642C132.302 27.7642 132.483 27.7642 132.644 27.8043V29.8728Z" fill="#505050"/>
<path d="M142.394 32.015C142.394 32.3965 142.374 32.7379 142.314 32.999H135.782C135.802 33.9629 136.124 34.7059 136.727 35.208C137.269 35.6699 137.993 35.8908 138.857 35.8908C139.822 35.8908 140.706 35.7301 141.49 35.4289L141.832 36.935C140.907 37.3367 139.802 37.5375 138.556 37.5375C137.028 37.5375 135.842 37.0957 134.978 36.192C134.114 35.3084 133.672 34.1035 133.672 32.5973C133.672 31.0912 134.074 29.8863 134.878 28.9223C135.722 27.8781 136.867 27.356 138.294 27.356C139.721 27.356 140.766 27.8781 141.49 28.9223C142.073 29.7457 142.354 30.79 142.354 31.9949L142.394 32.015ZM140.324 31.4527C140.324 30.81 140.204 30.2478 139.902 29.7859C139.52 29.1834 138.938 28.8822 138.174 28.8822C137.47 28.8822 136.888 29.1834 136.445 29.7658C136.084 30.2277 135.863 30.79 135.802 31.4527H140.344H140.324Z" fill="#505050"/>
<path d="M67.77 15.8152C67.77 17.0201 67.4082 17.9238 66.6847 18.5263C66.0214 19.0886 65.0768 19.3697 63.8509 19.3697C63.2479 19.3697 62.7254 19.3496 62.2832 19.2894V12.7226C62.8459 12.6222 63.469 12.582 64.1322 12.582C65.2979 12.582 66.1822 12.8431 66.7852 13.3451C67.4484 13.9275 67.7901 14.7308 67.7901 15.8152H67.77ZM66.6445 15.8554C66.6445 15.0722 66.4435 14.4898 66.0214 14.0681C65.5994 13.6464 65.0165 13.4456 64.2126 13.4456C63.871 13.4456 63.5896 13.4656 63.3484 13.5259V18.5062C63.4891 18.5062 63.7303 18.5263 64.0719 18.5263C64.896 18.5263 65.519 18.3054 65.9611 17.8435C66.4033 17.3816 66.6244 16.7189 66.6244 15.8554H66.6445Z" fill="#505050"/>
<path d="M73.7377 16.8597C73.7377 17.6027 73.5166 18.2051 73.0946 18.6871C72.6524 19.1691 72.0696 19.4101 71.3259 19.4101C70.5823 19.4101 70.0597 19.1691 69.6377 18.7072C69.2156 18.2453 69.0146 17.6429 69.0146 16.94C69.0146 16.2371 69.2357 15.5945 69.6578 15.1125C70.0798 14.6306 70.6627 14.4097 71.4063 14.4097C72.1499 14.4097 72.6725 14.6507 73.1147 15.1125C73.5166 15.5744 73.7377 16.1568 73.7377 16.8797V16.8597ZM72.6323 16.8998C72.6323 16.458 72.5318 16.0765 72.3509 15.7552C72.1298 15.3736 71.8083 15.1728 71.3862 15.1728C70.9642 15.1728 70.6225 15.3736 70.4014 15.7552C70.2205 16.0765 70.12 16.458 70.12 16.9199C70.12 17.3818 70.2205 17.7433 70.4014 18.0646C70.6426 18.4461 70.9642 18.647 71.3661 18.647C71.7681 18.647 72.0897 18.4461 72.3308 18.0646C72.5318 17.7433 72.6323 17.3617 72.6323 16.9199V16.8998Z" fill="#505050"/>
<path d="M81.7566 14.5103L80.2492 19.3098H79.2644L78.6414 17.2213C78.4806 16.6992 78.36 16.1771 78.2595 15.675C78.159 16.1971 78.0384 16.7193 77.8777 17.2213L77.2144 19.3098H76.2296L74.8228 14.5103H75.9281L76.4708 16.7996C76.6115 17.3418 76.712 17.8639 76.7924 18.3459C76.8728 17.9443 76.9933 17.4221 77.1943 16.8197L77.8777 14.5303H78.7419L79.4051 16.7795C79.5659 17.3217 79.6865 17.8639 79.787 18.366H79.8071C79.8875 17.8639 79.988 17.3418 80.1286 16.7795L80.7115 14.5303H81.7566V14.5103Z" fill="#505050"/>
<path d="M87.3035 19.3097H86.2383V16.5584C86.2383 15.715 85.9168 15.2933 85.2736 15.2933C84.952 15.2933 84.6908 15.4138 84.5099 15.6347C84.329 15.8556 84.2084 16.1367 84.2084 16.458V19.3097H83.1432V15.8756C83.1432 15.4539 83.1432 14.992 83.103 14.5101H84.0476L84.0878 15.2531H84.1079C84.2285 15.0121 84.4094 14.8314 84.6707 14.6707C84.952 14.49 85.2736 14.4097 85.6354 14.4097C86.0775 14.4097 86.4594 14.5502 86.7609 14.8515C87.1226 15.2129 87.3236 15.7351 87.3236 16.4379V19.3097H87.3035Z" fill="#505050"/>
<path d="M90.2576 19.3094H89.1924V12.3008H90.2576V19.3094Z" fill="#505050"/>
<path d="M96.5482 16.8597C96.5482 17.6027 96.3272 18.2051 95.9051 18.6871C95.4629 19.1691 94.8801 19.4101 94.1365 19.4101C93.3928 19.4101 92.8703 19.1691 92.4482 18.7072C92.0262 18.2453 91.8252 17.6429 91.8252 16.94C91.8252 16.2371 92.0463 15.5945 92.4683 15.1125C92.8904 14.6306 93.4732 14.4097 94.2169 14.4097C94.9605 14.4097 95.483 14.6507 95.9252 15.1125C96.3272 15.5744 96.5482 16.1568 96.5482 16.8797V16.8597ZM95.4428 16.8998C95.4428 16.458 95.3424 16.0765 95.1615 15.7552C94.9404 15.3736 94.6188 15.1728 94.1968 15.1728C93.7747 15.1728 93.433 15.3736 93.212 15.7552C93.011 16.0765 92.9306 16.458 92.9306 16.9199C92.9306 17.3818 93.0311 17.7433 93.212 18.0646C93.433 18.4461 93.7747 18.647 94.1767 18.647C94.5786 18.647 94.9002 18.4461 95.1414 18.0646C95.3424 17.7433 95.4428 17.3617 95.4428 16.9199V16.8998Z" fill="#505050"/>
<path d="M101.734 19.3092H100.769L100.689 18.7469H100.669C100.347 19.1887 99.8646 19.4096 99.2617 19.4096C98.7994 19.4096 98.4377 19.2691 98.1563 18.9678C97.9151 18.7068 97.7744 18.3855 97.7744 17.9838C97.7744 17.4014 98.0156 16.9396 98.518 16.6383C99.0205 16.3371 99.7038 16.1764 100.588 16.1764V16.0961C100.588 15.4535 100.246 15.1523 99.5832 15.1523C99.1009 15.1523 98.6989 15.2728 98.3372 15.5137L98.1161 14.8109C98.5582 14.5297 99.121 14.3892 99.7641 14.3892C101.03 14.3892 101.653 15.0519 101.653 16.3773V18.1445C101.653 18.6264 101.673 19.008 101.734 19.2891V19.3092ZM100.628 17.6625V16.9195C99.4426 16.9195 98.8597 17.2207 98.8597 17.8834C98.8597 18.1244 98.92 18.3252 99.0607 18.4457C99.2014 18.5662 99.3823 18.6264 99.5832 18.6264C99.8244 18.6264 100.045 18.5461 100.246 18.4055C100.447 18.265 100.568 18.0641 100.608 17.8432C100.608 17.783 100.608 17.7228 100.608 17.6625H100.628Z" fill="#505050"/>
<path d="M107.803 19.3094H106.859L106.798 18.5463H106.778C106.477 19.1286 105.954 19.4299 105.231 19.4299C104.648 19.4299 104.165 19.209 103.784 18.7471C103.402 18.2852 103.201 17.7028 103.201 16.9799C103.201 16.1967 103.402 15.5741 103.824 15.0922C104.226 14.6504 104.728 14.4094 105.311 14.4094C105.954 14.4094 106.416 14.6303 106.658 15.0721H106.678V12.3008H107.743V18.0241C107.743 18.486 107.743 18.9278 107.783 19.3294L107.803 19.3094ZM106.698 17.2811V16.4778C106.698 16.3372 106.698 16.2368 106.658 16.1364C106.597 15.8754 106.477 15.6545 106.276 15.4938C106.075 15.3131 105.834 15.2327 105.552 15.2327C105.15 15.2327 104.849 15.3934 104.608 15.7147C104.386 16.036 104.266 16.4377 104.266 16.9397C104.266 17.4417 104.366 17.8032 104.587 18.1045C104.829 18.4258 105.13 18.5864 105.532 18.5864C105.874 18.5864 106.155 18.4458 106.376 18.1848C106.577 17.9438 106.678 17.6426 106.678 17.3012L106.698 17.2811Z" fill="#505050"/>
<path d="M116.948 16.8597C116.948 17.6027 116.747 18.2051 116.305 18.6871C115.862 19.1691 115.28 19.4101 114.536 19.4101C113.792 19.4101 113.27 19.1691 112.848 18.7072C112.426 18.2453 112.225 17.6429 112.225 16.94C112.225 16.2371 112.446 15.5945 112.868 15.1125C113.31 14.6306 113.873 14.4097 114.616 14.4097C115.36 14.4097 115.882 14.6507 116.325 15.1125C116.727 15.5744 116.948 16.1568 116.948 16.8797V16.8597ZM115.842 16.8998C115.842 16.458 115.742 16.0765 115.561 15.7552C115.34 15.3736 115.018 15.1728 114.596 15.1728C114.174 15.1728 113.832 15.3736 113.611 15.7552C113.43 16.0765 113.33 16.458 113.33 16.9199C113.33 17.3818 113.43 17.7433 113.611 18.0646C113.853 18.4461 114.174 18.647 114.576 18.647C114.978 18.647 115.3 18.4461 115.541 18.0646C115.742 17.7433 115.842 17.3617 115.842 16.9199V16.8998Z" fill="#505050"/>
<path d="M122.716 19.3097H121.65V16.5584C121.65 15.715 121.329 15.2933 120.686 15.2933C120.364 15.2933 120.103 15.4138 119.922 15.6347C119.721 15.8756 119.621 16.1367 119.621 16.458V19.3097H118.555V15.8756C118.555 15.4539 118.555 14.992 118.515 14.5101H119.46L119.5 15.2531H119.52C119.641 15.0121 119.842 14.8314 120.083 14.6707C120.364 14.49 120.706 14.4097 121.047 14.4097C121.49 14.4097 121.872 14.5502 122.173 14.8515C122.535 15.2129 122.736 15.7351 122.736 16.4379V19.3097H122.716Z" fill="#505050"/>
<path d="M129.91 15.3134H128.725V17.6429C128.725 18.2453 128.926 18.5265 129.348 18.5265C129.529 18.5265 129.689 18.5265 129.83 18.4863V19.2896C129.649 19.3699 129.368 19.4101 129.026 19.4101C128.604 19.4101 128.282 19.2896 128.041 19.0285C127.8 18.7675 127.68 18.3457 127.68 17.7433V15.3134H126.976V14.5101H127.68V13.6265L128.725 13.3052V14.5101H129.91V15.3134Z" fill="#505050"/>
<path d="M135.58 19.3094H134.515V16.5782C134.515 15.7147 134.193 15.293 133.55 15.293C133.047 15.293 132.706 15.534 132.525 16.036C132.485 16.1364 132.465 16.277 132.465 16.4176V19.3094H131.399V12.3008H132.465V15.1926C132.806 14.6704 133.289 14.4094 133.912 14.4094C134.354 14.4094 134.716 14.55 135.017 14.8512C135.379 15.2127 135.56 15.7549 135.56 16.4577V19.3094H135.58Z" fill="#505050"/>
<path d="M141.408 16.6789C141.408 16.8597 141.408 17.0404 141.368 17.1609H138.152C138.152 17.6429 138.313 18.0043 138.614 18.2453C138.875 18.4662 139.237 18.5867 139.659 18.5867C140.142 18.5867 140.564 18.5064 140.966 18.3658L141.126 19.1088C140.664 19.3097 140.142 19.4101 139.519 19.4101C138.775 19.4101 138.192 19.1892 137.77 18.7474C137.348 18.3056 137.127 17.7232 137.127 16.9802C137.127 16.2371 137.328 15.6547 137.73 15.1728C138.152 14.6507 138.695 14.4097 139.418 14.4097C140.142 14.4097 140.644 14.6707 140.986 15.1728C141.267 15.5744 141.408 16.0965 141.408 16.6789ZM140.383 16.3978C140.383 16.0765 140.323 15.8154 140.182 15.5744C140.001 15.2732 139.72 15.1326 139.338 15.1326C138.996 15.1326 138.695 15.2732 138.494 15.5744C138.313 15.8154 138.212 16.0765 138.172 16.3978H140.403H140.383Z" fill="#505050"/>
</svg>
