<svg width="174" height="116" viewBox="0 0 174 116" fill="none" xmlns="http://www.w3.org/2000/svg">
<path d="M167.554 114.816H6.44632C3.17939 114.816 0.5 112.094 0.5 108.73V69.2432C0.5 65.8794 3.17939 63.1577 6.44632 63.1577H167.554C170.821 63.1577 173.5 65.8794 173.5 69.2432V108.73C173.5 112.094 170.821 114.816 167.554 114.816Z" fill="#383838" stroke="#383838"/>
<path fill-rule="evenodd" clip-rule="evenodd" d="M64.101 77.8255C64.0861 78.7342 63.7971 79.5828 63.2335 80.1341C62.5656 80.8092 61.6974 81.1577 60.6511 81.1577C59.6492 81.1577 58.781 80.8092 58.0686 80.1341C57.3562 79.4589 57 78.5878 57 77.5859C57 76.5841 57.3562 75.7129 58.0686 75.0378C58.781 74.3626 59.6492 74.0142 60.6511 74.0142C61.1631 74.0142 61.6529 74.1013 62.0981 74.2973C62.5656 74.4715 62.9441 74.7329 63.2112 75.0596L63.278 75.1467L63.2112 75.212L62.5211 75.8872L62.4321 75.8C61.9868 75.2991 61.408 75.0596 60.6511 75.0596C59.9609 75.0596 59.3821 75.2773 58.8701 75.7565C58.3803 76.2139 58.1354 76.8237 58.1354 77.5859C58.1354 78.3482 58.3803 78.9362 58.8701 79.4154C59.3821 79.8727 59.9609 80.1123 60.6511 80.1123C61.3857 80.1123 61.9868 79.8727 62.4766 79.3936C62.7671 79.1094 62.9416 78.7305 63 78.2393H60.5397V77.2157H64.0572V77.3028C64.0954 77.4524 64.1008 77.6019 64.1016 77.7515C64.1017 77.7762 64.1017 77.8008 64.1017 77.8255H64.101Z" fill="white"/>
<path fill-rule="evenodd" clip-rule="evenodd" d="M69.4017 74.0596V74.9961V75.105H66.3072V76.978H69.1122V78.0016H66.3072V79.8964H69.4017V80.92H65.2163V74.0596H69.4017Z" fill="white"/>
<path fill-rule="evenodd" clip-rule="evenodd" d="M73.0755 75.105V80.8111V80.92H71.9846V75.105H70.0923V74.0596H74.9678V75.105H73.0755Z" fill="white"/>
<path fill-rule="evenodd" clip-rule="evenodd" d="M79.2198 80.92H78.2402H78.1289V74.0596H79.2198V80.92Z" fill="white"/>
<path fill-rule="evenodd" clip-rule="evenodd" d="M83.0933 75.105V80.8111V80.92H81.9802V75.105H80.0879V74.0596H84.9856V75.105H83.0933Z" fill="white"/>
<path fill-rule="evenodd" clip-rule="evenodd" d="M93.6903 79.9408L93.7792 80.0278C94.4694 79.3309 94.8033 78.4815 94.8033 77.5015C94.8033 76.5214 94.4471 75.6502 93.7792 74.9751C93.0891 74.2782 92.2208 73.9297 91.219 73.9297C90.195 73.9297 89.3267 74.2782 88.6588 74.9751C87.9687 75.672 87.6348 76.5214 87.6348 77.5232C87.6348 78.5251 87.9687 79.3745 88.6588 80.0496C89.349 80.7466 90.2172 81.095 91.219 81.095C92.2431 81.095 93.1113 80.7466 93.7792 80.0496L93.6907 79.963C93.6909 79.9629 93.6911 79.9627 93.6913 79.9625H93.6902L93.6794 79.9519C93.683 79.9482 93.6866 79.9445 93.6903 79.9408ZM88.7256 77.5015C88.7256 78.242 88.9483 78.8518 89.438 79.3309C89.9278 79.81 90.5066 80.0496 91.1968 80.0496C91.8869 80.0496 92.4657 79.81 92.9555 79.3309C93.423 78.8518 93.6679 78.242 93.6679 77.5015C93.6679 76.761 93.423 76.1512 92.9555 75.672C92.488 75.1929 91.8869 74.9533 91.1968 74.9533C90.5066 74.9533 89.9278 75.1929 89.438 75.672C88.9705 76.1512 88.7256 76.761 88.7256 77.5015Z" fill="white"/>
<path fill-rule="evenodd" clip-rule="evenodd" d="M96.8629 75.7166L96.896 76.6731V80.92H95.9165H95.8052V74.0596H97.0296L100.185 78.9982L100.169 78.0669V74.0596H101.259V80.92H100.169L96.8629 75.7166Z" fill="white"/>
<path d="M87.5011 90.5034C84.8518 90.5034 82.6701 92.4853 82.6701 95.2076C82.6701 97.93 84.8296 99.9119 87.5011 99.9119C90.1726 99.9119 92.332 97.9083 92.332 95.2076C92.332 92.507 90.1726 90.5034 87.5011 90.5034ZM87.5011 98.0389C86.054 98.0389 84.7851 96.8629 84.7851 95.1859C84.7851 93.5089 86.054 92.3328 87.5011 92.3328C88.9481 92.3328 90.2171 93.4871 90.2171 95.1859C90.2171 96.8846 88.9704 98.0389 87.5011 98.0389ZM76.9709 90.5034C74.2994 90.5034 72.14 92.4853 72.14 95.2076C72.14 97.93 74.2994 99.9119 76.9709 99.9119C79.6424 99.9119 81.8019 97.9083 81.8019 95.2076C81.8019 92.507 79.6424 90.5034 76.9709 90.5034ZM76.9709 98.0389C75.5239 98.0389 74.2549 96.8629 74.2549 95.1859C74.2549 93.5089 75.5239 92.3328 76.9709 92.3328C78.418 92.3328 79.6869 93.4871 79.6869 95.1859C79.6869 96.8846 78.4402 98.0389 76.9709 98.0389ZM64.4594 91.9408V93.9445H69.3349C69.179 95.077 68.8006 95.8828 68.2218 96.4491C67.5094 97.146 66.3962 97.9083 64.4594 97.9083C61.4539 97.9083 59.0941 95.5343 59.0941 92.5941C59.0941 89.654 61.4539 87.28 64.4594 87.28C66.0846 87.28 67.2645 87.9116 68.1327 88.6957L69.5798 87.28C68.3553 86.1475 66.7302 85.2764 64.4594 85.2764C60.3408 85.2764 56.8901 88.565 56.8901 92.5941C56.8901 96.6233 60.3408 99.8902 64.4594 99.8902C66.6856 99.8902 68.3553 99.1714 69.6688 97.8429C71.0268 96.5144 71.4275 94.6632 71.4275 93.1822C71.4275 92.7248 71.383 92.2892 71.3162 91.9408H64.4594ZM115.685 93.4871C115.285 92.4417 114.06 90.5034 111.567 90.5034C109.073 90.5034 107.025 92.4199 107.025 95.2076C107.025 97.8429 109.073 99.9119 111.789 99.9119C113.993 99.9119 115.262 98.5834 115.797 97.8211L114.149 96.754C113.615 97.538 112.858 98.0607 111.789 98.0607C110.721 98.0607 109.942 97.5816 109.452 96.6451L115.886 94.0533L115.663 93.5089L115.685 93.4871ZM109.118 95.0552C109.051 93.2475 110.565 92.311 111.634 92.311C112.48 92.311 113.192 92.7248 113.415 93.3129L109.118 95.0552ZM103.886 99.607H106.001V85.7773H103.886V99.607ZM100.436 91.5488H100.369C99.9013 91.0043 98.9885 90.5034 97.8309 90.5034C95.4265 90.5034 93.2225 92.5724 93.2225 95.2294C93.2225 97.8865 95.4265 99.9119 97.8309 99.9119C98.9885 99.9119 99.879 99.411 100.369 98.8448H100.436V99.5199C100.436 101.328 99.456 102.286 97.8754 102.286C96.5842 102.286 95.7827 101.371 95.4488 100.609L93.601 101.349C94.1353 102.591 95.5378 104.137 97.8531 104.137C100.324 104.137 102.417 102.721 102.417 99.2368V90.7865H100.413V91.5488H100.436ZM98.009 98.0389C96.5619 98.0389 95.3375 96.8411 95.3375 95.2076C95.3375 93.5742 96.5619 92.3328 98.009 92.3328C99.456 92.3328 100.569 93.5524 100.569 95.2076C100.569 96.8629 99.4338 98.0389 98.009 98.0389ZM125.57 85.7991H120.516V99.6288H122.631V94.38H125.57C127.908 94.38 130.201 92.7248 130.201 90.0896C130.201 87.4543 127.908 85.7991 125.57 85.7991ZM125.637 92.4635H122.631V87.7156H125.637C127.217 87.7156 128.108 89.0006 128.108 90.0896C128.108 91.1785 127.217 92.4635 125.637 92.4635ZM138.66 90.4598C137.124 90.4598 135.544 91.1132 134.898 92.5724L136.768 93.3346C137.169 92.5724 137.903 92.311 138.705 92.311C139.796 92.311 140.909 92.9426 140.931 94.0969V94.2494C140.553 94.0316 139.729 93.7267 138.727 93.7267C136.701 93.7267 134.653 94.8156 134.653 96.8411C134.653 98.6923 136.3 99.8902 138.171 99.8902C139.595 99.8902 140.375 99.2586 140.864 98.5398H140.931V99.607H142.957V94.3147C142.957 91.8537 141.087 90.4816 138.66 90.4816V90.4598ZM138.415 98.0389C137.725 98.0389 136.768 97.7122 136.768 96.8629C136.768 95.7957 137.97 95.3819 138.994 95.3819C139.929 95.3819 140.352 95.5779 140.931 95.8392C140.775 97.1242 139.64 98.0171 138.415 98.0171V98.0389ZM150.37 90.7647L147.944 96.754H147.877L145.361 90.7647H143.091L146.853 99.1497L144.716 103.81H146.92L152.73 90.7647H150.393H150.37ZM131.38 99.607H133.495V85.7773H131.38V99.607Z" fill="white"/>
<path d="M22.2723 74.7793C21.9384 75.1278 21.7603 75.6505 21.7603 76.3256V100.762C21.7603 101.437 21.9606 101.981 22.2723 102.308L22.3613 102.395L36.3645 88.6962V88.3695L22.3613 74.6704L22.2723 74.7575" fill="#5AC9F4"/>
<mask id="mask0_0_1" style="mask-type:luminance" maskUnits="userSpaceOnUse" x="36" y="83" width="12" height="11">
<path d="M41.0176 93.2908L36.3647 88.7172V88.3905L41.0399 83.8169L46.6723 86.9531C48.2529 87.8243 48.2529 89.2617 46.6723 90.1328L41.1512 93.2037L41.0399 93.269" fill="white"/>
</mask>
<g mask="url(#mask0_0_1)">
<path d="M48.2087 83.8394H36.3428V93.2915H48.2087V83.8394Z" fill="url(#paint0_linear_0_1)"/>
</g>
<mask id="mask1_0_1" style="mask-type:luminance" maskUnits="userSpaceOnUse" x="22" y="88" width="20" height="15">
<path d="M41.129 93.2262L36.3648 88.5654L22.2949 102.33C22.807 102.874 23.6752 102.94 24.6325 102.395L41.129 93.2262Z" fill="white"/>
</mask>
<g mask="url(#mask1_0_1)">
<path d="M31.7219 79.3212L14.9409 95.7378L31.7219 112.154L48.5028 95.7378L31.7219 79.3212Z" fill="url(#paint1_linear_0_1)"/>
</g>
<mask id="mask2_0_1" style="mask-type:luminance" maskUnits="userSpaceOnUse" x="22" y="74" width="20" height="15">
<path d="M41.129 83.8821L24.6325 74.7131C23.6752 74.1686 22.807 74.234 22.2949 74.7784L36.3648 88.5428L41.129 83.8821Z" fill="white"/>
</mask>
<g mask="url(#mask2_0_1)">
<path d="M31.7057 64.9521L14.9248 81.3687L31.7057 97.7852L48.4867 81.3687L31.7057 64.9521Z" fill="url(#paint2_linear_0_1)"/>
</g>
<path d="M167.554 52.1579H6.44632C3.17939 52.1579 0.5 49.4362 0.5 46.0724V6.58548C0.5 3.22171 3.17939 0.5 6.44632 0.5H167.554C170.821 0.5 173.5 3.22171 173.5 6.58548V46.0724C173.5 49.4362 170.821 52.1579 167.554 52.1579Z" fill="white" stroke="#ECEEF5"/>
<path d="M64.0815 15.1051C64.0815 16.0416 63.7921 16.7603 63.2355 17.3266C62.5899 17.9799 61.7662 18.3066 60.7421 18.3066C59.718 18.3066 58.9388 17.9799 58.2487 17.3048C57.5585 16.6296 57.2246 15.8238 57.2246 14.8437C57.2246 13.8637 57.5585 13.0361 58.2487 12.3827C58.9388 11.7075 59.7625 11.3809 60.7421 11.3809C61.2319 11.3809 61.6994 11.468 62.1446 11.664C62.5899 11.86 62.9461 12.0996 63.2132 12.4045L62.6121 12.9925C62.1669 12.4698 61.5435 12.2085 60.7643 12.2085C60.0519 12.2085 59.4286 12.448 58.9166 12.949C58.4045 13.4499 58.1374 14.0815 58.1374 14.8655C58.1374 15.6496 58.4045 16.2812 58.9166 16.7821C59.4286 17.283 60.0519 17.5226 60.7643 17.5226C61.5213 17.5226 62.1446 17.283 62.6567 16.7821C62.9906 16.4554 63.1687 16.0198 63.2355 15.4318H60.7643V14.6259H64.0592C64.0815 14.8002 64.1037 14.9744 64.1037 15.1269" fill="black"/>
<path d="M64.0807 15.1053H63.9694C63.9694 16.02 63.7022 16.7169 63.1679 17.2396C62.5446 17.8712 61.7654 18.1761 60.7636 18.1979C59.8063 18.1979 59.0048 17.8712 58.3592 17.2396C57.6913 16.5863 57.3574 15.8022 57.3574 14.8439C57.3574 13.8857 57.6913 13.1016 58.3592 12.4482C59.0271 11.7949 59.8285 11.49 60.7636 11.49C61.2311 11.49 61.6763 11.5771 62.1216 11.7513C62.5446 11.9255 62.8785 12.1651 63.1456 12.47L63.2347 12.4047L63.1456 12.3176L62.5446 12.9056L62.6336 12.9927L62.7227 12.9274C62.2551 12.3829 61.5873 12.0998 60.7858 12.0998C60.0512 12.0998 59.4055 12.3611 58.849 12.862C58.3147 13.363 58.0253 14.0381 58.0253 14.8657C58.0253 15.6715 58.2924 16.3467 58.849 16.8476C59.3833 17.3485 60.0512 17.6099 60.7858 17.6099C61.565 17.6099 62.2329 17.3485 62.7672 16.8258C63.1234 16.4774 63.3237 15.9982 63.3683 15.4102V15.2795H60.8971V14.7133H64.0807V14.6044H63.9694C63.9916 14.8004 64.0139 14.9528 64.0139 15.1053H64.2365C64.2365 14.9311 64.2365 14.7568 64.192 14.5826V14.4955H60.6745V15.5191H63.257V15.4102H63.1456C63.1011 15.9547 62.923 16.3685 62.6113 16.6734C62.1216 17.1525 61.5205 17.3921 60.7858 17.3921C60.0957 17.3921 59.5169 17.1525 59.0048 16.6952C58.515 16.216 58.2702 15.628 58.2702 14.8657C58.2702 14.1035 58.515 13.4936 59.0048 13.0363C59.5169 12.5571 60.0957 12.3393 60.7858 12.3393C61.5427 12.3393 62.1216 12.5789 62.5668 13.0798L62.6559 13.1669L63.346 12.4918L63.4128 12.4265L63.346 12.3393C63.0789 12.0127 62.7004 11.7513 62.2329 11.5771C61.7876 11.3811 61.2979 11.2939 60.7858 11.2939C59.784 11.2939 58.9158 11.6424 58.2034 12.3176C57.491 12.9927 57.1348 13.8639 57.1348 14.8657C57.1348 15.8676 57.491 16.7387 58.2034 17.4139C58.9158 18.089 59.784 18.4375 60.7858 18.4375C61.8322 18.4375 62.7004 18.089 63.3683 17.4139C63.9471 16.8476 64.2365 16.0636 64.2365 15.1271H64.1252" fill="#505050"/>
<path d="M69.2909 12.3393H66.1964V14.4301H69.0014V15.2359H66.1964V17.3485H69.2909V18.1543H65.3281V11.5117H69.2909V12.3393Z" fill="black"/>
<path d="M69.2903 12.3384V12.2295H66.0845V14.538H68.8674V15.1261H66.0845V17.4564H69.179V18.0445H65.4389V11.6196H69.179V12.3384H69.2903V12.2295V12.3384H69.4017V11.4019H65.2163V18.2623H69.4017V17.2387H66.3072V15.3439H69.1122V14.3203H66.3072V12.4473H69.4017V12.3384H69.2903Z" fill="#505050"/>
<path d="M72.9632 18.1543H72.095V12.3393H70.2026V11.5117H74.8555V12.3393H72.9632V18.1543Z" fill="black"/>
<path d="M72.9637 18.1534V18.0445H72.2067V12.2295H70.3144V11.6196H74.7447V12.2295H72.8523V18.1534H72.9637V18.0445V18.1534H73.075V12.4473H74.9673V11.4019H70.0918V12.4473H71.9841V18.2623H73.075V18.1534H72.9637Z" fill="#505050"/>
<path d="M79.108 11.5117H78.2397V18.1543H79.108V11.5117Z" fill="black"/>
<path d="M78.2397 18.1534H78.351V11.6196H78.9967V18.0445H78.2397V18.1534H78.351H78.2397V18.2623H79.2193V11.4019H78.1284V18.2623H78.2397V18.1534Z" fill="#505050"/>
<path d="M82.9815 18.1543H82.1133V12.3393H80.1987V11.5117H84.8739V12.3393H82.9815V18.1543Z" fill="black"/>
<path d="M82.982 18.1534V18.0445H82.2251V12.2295H80.3105V11.6196H84.763V12.2295H82.8707V18.1534H82.982V18.0445V18.1534H83.0933V12.4473H84.9856V11.4019H80.0879V12.4473H81.9802V18.2623H83.0933V18.1534H82.982Z" fill="#505050"/>
<path d="M93.6908 17.3048C93.0229 17.9799 92.1992 18.3066 91.1974 18.3066C90.1955 18.3066 89.3718 17.9799 88.704 17.3048C88.0361 16.6296 87.7021 15.8238 87.7021 14.8437C87.7021 13.8637 88.0361 13.0579 88.704 12.3827C89.3718 11.7075 90.1955 11.3809 91.1974 11.3809C92.1992 11.3809 93.0006 11.7075 93.6685 12.3827C94.3364 13.0579 94.6703 13.8855 94.6703 14.8437C94.6703 15.802 94.3364 16.6296 93.6685 17.3048M89.3718 16.7385C89.8839 17.2394 90.485 17.479 91.2196 17.479C91.9543 17.479 92.5554 17.2394 93.0674 16.7385C93.5794 16.2376 93.8243 15.606 93.8243 14.8437C93.8243 14.0815 93.5794 13.4281 93.0674 12.949C92.5776 12.448 91.9543 12.2085 91.2196 12.2085C90.485 12.2085 89.8839 12.448 89.3718 12.949C88.8821 13.4499 88.6149 14.0815 88.6149 14.8437C88.6149 15.606 88.8598 16.2594 89.3718 16.7385Z" fill="black"/>
<path d="M93.6897 17.3053L93.6006 17.2182C92.955 17.8715 92.1536 18.1982 91.1963 18.1982C90.239 18.1982 89.4375 17.8715 88.7919 17.2182C88.1463 16.5648 87.8346 15.7807 87.8346 14.8442C87.8346 13.9077 88.1463 13.1019 88.7919 12.4703C89.4375 11.8169 90.239 11.4903 91.1963 11.4903C92.1536 11.4903 92.955 11.8169 93.6006 12.4703C94.2462 13.1237 94.5802 13.9077 94.5802 14.8442C94.5802 15.7807 94.2685 16.5866 93.6229 17.2182L93.7787 17.3706C94.4689 16.6737 94.8028 15.8243 94.8028 14.8442C94.8028 13.8642 94.4466 12.993 93.7787 12.3179C93.0886 11.6209 92.2204 11.2725 91.2185 11.2725C90.1945 11.2725 89.3262 11.6209 88.6584 12.3179C87.9682 13.0148 87.6343 13.8642 87.6343 14.866C87.6343 15.8679 87.9682 16.7172 88.6584 17.3924C89.3485 18.0893 90.2167 18.4378 91.2185 18.4378C92.2426 18.4378 93.1109 18.0893 93.7787 17.3924L93.6897 17.3053ZM89.3708 16.739L89.2817 16.8261C89.7937 17.3488 90.4616 17.6102 91.1963 17.6102C91.9532 17.6102 92.5988 17.3488 93.1109 16.8261C93.6229 16.3034 93.89 15.6501 93.89 14.8442C93.89 14.0384 93.6229 13.385 93.1109 12.8623C92.5988 12.3396 91.9309 12.0783 91.1963 12.0783C90.4393 12.0783 89.7937 12.3396 89.2817 12.8623C88.7697 13.385 88.5025 14.0384 88.5025 14.8442C88.5025 15.6501 88.7697 16.3034 89.2817 16.8261L89.4375 16.6737C88.9478 16.1945 88.7251 15.5847 88.7251 14.8442C88.7251 14.1037 88.97 13.4939 89.4375 13.0148C89.9273 12.5357 90.5061 12.2961 91.1963 12.2961C91.8864 12.2961 92.4875 12.5357 92.955 13.0148C93.4225 13.4939 93.6674 14.1037 93.6674 14.8442C93.6674 15.5847 93.4225 16.1945 92.955 16.6737C92.4652 17.1528 91.8864 17.3924 91.1963 17.3924C90.5061 17.3924 89.9273 17.1528 89.4375 16.6737L89.3485 16.7608L89.3708 16.739Z" fill="#505050"/>
<path d="M95.9165 18.1543V11.5117H96.9851L100.28 16.6734H100.302L100.28 15.4102V11.5117H101.148V18.1543H100.235L96.7847 12.7531H96.7402L96.7847 14.0163V18.1543H95.9165Z" fill="black"/>
<path d="M95.916 18.1534H96.0273V11.6196H96.9178L100.213 16.8031H100.435L100.391 15.4092V11.6196H101.036V18.0445H100.302L96.851 12.6215H96.6284L96.6729 14.0153V18.0445H95.916V18.1534H96.0273H95.916V18.2623H96.8955V14.0153L96.851 12.7304L96.7397 12.7522V12.8611H96.7842V12.7522L96.6952 12.7957L100.168 18.2623H101.259V11.4019H100.168V15.4092L100.19 16.6942L100.302 16.6724V16.5635H100.279V16.6724L100.368 16.6288L97.0291 11.4019H95.8047V18.2623H95.916V18.1534Z" fill="#505050"/>
<path d="M87.5006 27.8456C84.8513 27.8456 82.6696 29.8275 82.6696 32.5499C82.6696 35.2723 84.8291 37.2542 87.5006 37.2542C90.1721 37.2542 92.3316 35.2505 92.3316 32.5499C92.3316 29.8493 90.1721 27.8456 87.5006 27.8456ZM87.5006 35.3812C86.0535 35.3812 84.7846 34.2051 84.7846 32.5281C84.7846 30.8512 86.0535 29.6751 87.5006 29.6751C88.9477 29.6751 90.2166 30.8294 90.2166 32.5281C90.2166 34.2269 88.9699 35.3812 87.5006 35.3812ZM76.9704 27.8456C74.2989 27.8456 72.1395 29.8275 72.1395 32.5499C72.1395 35.2723 74.2989 37.2542 76.9704 37.2542C79.6419 37.2542 81.8014 35.2505 81.8014 32.5499C81.8014 29.8493 79.6419 27.8456 76.9704 27.8456ZM76.9704 35.3812C75.5234 35.3812 74.2544 34.2051 74.2544 32.5281C74.2544 30.8512 75.5234 29.6751 76.9704 29.6751C78.4175 29.6751 79.6865 30.8294 79.6865 32.5281C79.6865 34.2269 78.4398 35.3812 76.9704 35.3812ZM64.4589 29.2831V31.2867H69.3344C69.1786 32.4193 68.8001 33.2251 68.2213 33.7913C67.5089 34.4883 66.3957 35.2505 64.4589 35.2505C61.4535 35.2505 59.0936 32.8766 59.0936 29.9364C59.0936 26.9963 61.4535 24.6223 64.4589 24.6223C66.0841 24.6223 67.264 25.2539 68.1322 26.038L69.5793 24.6223C68.3548 23.4898 66.7297 22.6187 64.4589 22.6187C60.3403 22.6187 56.8896 25.9073 56.8896 29.9364C56.8896 33.9656 60.3403 37.2324 64.4589 37.2324C66.6851 37.2324 68.3548 36.5137 69.6683 35.1852C71.0263 33.8567 71.4271 32.0055 71.4271 30.5245C71.4271 30.0671 71.3825 29.6315 71.3158 29.2831H64.4589ZM115.685 30.8294C115.284 29.784 114.06 27.8456 111.566 27.8456C109.073 27.8456 107.025 29.7622 107.025 32.5499C107.025 35.1852 109.073 37.2542 111.789 37.2542C113.993 37.2542 115.262 35.9257 115.796 35.1634L114.149 34.0962C113.615 34.8803 112.858 35.403 111.789 35.403C110.72 35.403 109.941 34.9239 109.451 33.9873L115.885 31.3956L115.663 30.8512L115.685 30.8294ZM109.117 32.3975C109.051 30.5898 110.565 29.6533 111.633 29.6533C112.479 29.6533 113.192 30.0671 113.414 30.6551L109.117 32.3975ZM103.886 36.9493H106.001V23.1196H103.886V36.9493ZM100.435 28.891H100.368C99.9008 28.3466 98.988 27.8456 97.8304 27.8456C95.426 27.8456 93.2221 29.9147 93.2221 32.5717C93.2221 35.2288 95.426 37.2542 97.8304 37.2542C98.988 37.2542 99.8785 36.7533 100.368 36.187H100.435V36.8622C100.435 38.6699 99.4556 39.6281 97.8749 39.6281C96.5837 39.6281 95.7822 38.7134 95.4483 37.9511L93.6005 38.6916C94.1348 39.933 95.5374 41.4794 97.8527 41.4794C100.324 41.4794 102.416 40.0637 102.416 36.5791V28.1288H100.413V28.891H100.435ZM98.0085 35.3812C96.5614 35.3812 95.337 34.1834 95.337 32.5499C95.337 30.9165 96.5614 29.6751 98.0085 29.6751C99.4556 29.6751 100.569 30.8947 100.569 32.5499C100.569 34.2051 99.4333 35.3812 98.0085 35.3812ZM125.569 23.1414H120.516V36.9711H122.631V31.7223H125.569C127.907 31.7223 130.2 30.0671 130.2 27.4318C130.2 24.7966 127.907 23.1414 125.569 23.1414ZM125.636 29.8058H122.631V25.0579H125.636C127.217 25.0579 128.107 26.3429 128.107 27.4318C128.107 28.5208 127.217 29.8058 125.636 29.8058ZM138.66 27.8021C137.124 27.8021 135.543 28.4555 134.897 29.9147L136.768 30.6769C137.168 29.9147 137.903 29.6533 138.704 29.6533C139.795 29.6533 140.908 30.2849 140.931 31.4392V31.5916C140.552 31.3739 139.728 31.0689 138.727 31.0689C136.701 31.0689 134.653 32.1579 134.653 34.1834C134.653 36.0346 136.3 37.2324 138.17 37.2324C139.595 37.2324 140.374 36.6008 140.864 35.8821H140.931V36.9493H142.956V31.657C142.956 29.1959 141.086 27.8239 138.66 27.8239V27.8021ZM138.415 35.3812C137.725 35.3812 136.768 35.0545 136.768 34.2051C136.768 33.138 137.97 32.7242 138.994 32.7242C139.929 32.7242 140.352 32.9202 140.931 33.1815C140.775 34.4665 139.639 35.3594 138.415 35.3594V35.3812ZM150.37 28.107L147.943 34.0962H147.877L145.361 28.107H143.09L146.852 36.4919L144.715 41.1527H146.919L152.73 28.107H150.392H150.37ZM131.38 36.9493H133.495V23.1196H131.38V36.9493Z" fill="#505050"/>
<path d="M22.2718 12.1221C21.9379 12.4705 21.7598 12.9932 21.7598 13.6684V38.1046C21.7598 38.7797 21.9601 39.3242 22.2718 39.6509L22.3609 39.738L36.364 26.0389V25.7122L22.3609 12.0132L22.2718 12.1003" fill="#5AC9F4"/>
<mask id="mask3_0_1" style="mask-type:luminance" maskUnits="userSpaceOnUse" x="36" y="21" width="12" height="10">
<path d="M41.0171 30.6336L36.3643 26.06V25.7333L41.0394 21.1597L46.6718 24.2959C48.2524 25.167 48.2524 26.6044 46.6718 27.4756L41.1507 30.5465L41.0394 30.6118" fill="white"/>
</mask>
<g mask="url(#mask3_0_1)">
<path d="M48.2082 21.1821H36.3423V30.6343H48.2082V21.1821Z" fill="url(#paint3_linear_0_1)"/>
</g>
<mask id="mask4_0_1" style="mask-type:luminance" maskUnits="userSpaceOnUse" x="22" y="25" width="20" height="16">
<path d="M41.1285 30.5684L36.3643 25.9077L22.2944 39.6721C22.8065 40.2166 23.6747 40.2819 24.632 39.7375L41.1285 30.5684Z" fill="white"/>
</mask>
<g mask="url(#mask4_0_1)">
<path d="M31.7214 16.6635L14.9404 33.0801L31.7214 49.4966L48.5023 33.0801L31.7214 16.6635Z" fill="url(#paint4_linear_0_1)"/>
</g>
<mask id="mask5_0_1" style="mask-type:luminance" maskUnits="userSpaceOnUse" x="22" y="11" width="20" height="15">
<path d="M41.1285 21.2249L24.632 12.0559C23.6747 11.5114 22.8065 11.5767 22.2944 12.1212L36.3643 25.8856L41.1285 21.2249Z" fill="white"/>
</mask>
<g mask="url(#mask5_0_1)">
<path d="M31.7053 2.29486L14.9243 18.7114L31.7053 35.128L48.4862 18.7114L31.7053 2.29486Z" fill="url(#paint5_linear_0_1)"/>
</g>
<defs>
<linearGradient id="paint0_linear_0_1" x1="45.9085" y1="88.687" x2="18.4548" y2="88.687" gradientUnits="userSpaceOnUse">
<stop stop-color="#FEE000"/>
<stop offset="0.4" stop-color="#FBBD0D"/>
<stop offset="0.77" stop-color="#F9A417"/>
<stop offset="1" stop-color="#F99B1B"/>
</linearGradient>
<linearGradient id="paint1_linear_0_1" x1="37.7258" y1="90.1463" x2="12.4732" y2="115.959" gradientUnits="userSpaceOnUse">
<stop stop-color="#EF4547"/>
<stop offset="1" stop-color="#C6176D"/>
</linearGradient>
<linearGradient id="paint2_linear_0_1" x1="11.8948" y1="61.622" x2="32.1103" y2="82.2862" gradientUnits="userSpaceOnUse">
<stop stop-color="#269E6F"/>
<stop offset="0.05" stop-color="#2BA06E"/>
<stop offset="0.47" stop-color="#52B26A"/>
<stop offset="0.8" stop-color="#6BBC68"/>
<stop offset="1" stop-color="#74C168"/>
</linearGradient>
<linearGradient id="paint3_linear_0_1" x1="45.908" y1="26.0297" x2="18.4544" y2="26.0297" gradientUnits="userSpaceOnUse">
<stop stop-color="#FEE000"/>
<stop offset="0.4" stop-color="#FBBD0D"/>
<stop offset="0.77" stop-color="#F9A417"/>
<stop offset="1" stop-color="#F99B1B"/>
</linearGradient>
<linearGradient id="paint4_linear_0_1" x1="37.7254" y1="27.4886" x2="12.4727" y2="53.3017" gradientUnits="userSpaceOnUse">
<stop stop-color="#EF4547"/>
<stop offset="1" stop-color="#C6176D"/>
</linearGradient>
<linearGradient id="paint5_linear_0_1" x1="11.8943" y1="-1.03527" x2="32.1098" y2="19.629" gradientUnits="userSpaceOnUse">
<stop stop-color="#269E6F"/>
<stop offset="0.05" stop-color="#2BA06E"/>
<stop offset="0.47" stop-color="#52B26A"/>
<stop offset="0.8" stop-color="#6BBC68"/>
<stop offset="1" stop-color="#74C168"/>
</linearGradient>
</defs>
</svg>
