<svg width="113" height="71" viewBox="0 0 113 71" fill="none" xmlns="http://www.w3.org/2000/svg">
<path d="M112.406 42.3764C111.263 7.45608 81.6182 7.99495 76.956 8.30136C76.6151 8.32249 76.2742 8.33305 75.9334 8.33305C71.2602 8.31192 41.6377 9.56926 42.7813 44.4895C42.7813 44.4895 41.9016 71.2741 78.3744 70.2703C78.3744 70.2703 78.4404 70.2703 78.4844 70.2703C78.5284 70.2703 78.5504 70.2703 78.5943 70.2703C115.056 69.0552 112.417 42.3764 112.417 42.3764H112.406Z" fill="#4C5EFF" stroke="black" stroke-miterlimit="10"/>
<path d="M77.2199 54.8335C66.4661 54.7807 58.6151 52.4774 54.5247 48.1665C51.171 44.6375 51.4679 40.9288 51.4679 40.8971C51.5229 23.8755 70.3805 22.5547 76.1533 22.5547C76.78 22.5547 77.2089 22.5759 77.3738 22.5759C77.5717 22.5759 77.9236 22.5547 78.4404 22.5547C81.5742 22.5547 92.284 23.0196 98.5076 29.0211C101.641 32.0429 103.225 36.0685 103.214 40.9922C103.214 41.0768 103.489 44.7748 100.124 48.2933C96.0226 52.5619 88.1826 54.823 77.4618 54.823H77.3738H77.2199V54.8335Z" fill="white"/>
<path d="M76.1533 23.083C76.7691 23.083 77.1869 23.1042 77.3518 23.1042H77.4068H77.4618C77.6047 23.1042 77.9456 23.083 78.4514 23.083C81.5302 23.083 92.0531 23.5374 98.1337 29.4014C101.169 32.3176 102.697 36.227 102.675 41.0028V41.0451V41.0873C102.686 41.2352 102.917 44.6375 99.6951 47.9657C95.6927 52.1181 88.0067 54.3052 77.4618 54.3052H77.2309C66.653 54.2524 58.956 52.0125 54.9645 47.8389C51.7648 44.4895 52.0177 41.0873 52.0287 40.95V40.9077V40.8654C52.0836 24.3826 70.5125 23.1042 76.1643 23.1042M76.1533 22.0265C70.7874 22.0265 50.9731 23.2204 50.9181 40.8443C50.9181 40.8443 49.5436 55.2245 77.2089 55.3618C77.2089 55.3618 77.2089 55.3618 77.2199 55.3618C77.2419 55.3618 77.2639 55.3618 77.2859 55.3618C77.3078 55.3618 77.3408 55.3618 77.3628 55.3618C77.3628 55.3618 77.4178 55.3618 77.4398 55.3618C105.039 55.3618 103.753 41.0028 103.753 41.0028C103.808 23.1359 83.4655 22.0265 78.4294 22.0265C77.9016 22.0265 77.5387 22.037 77.3958 22.0476C77.2309 22.0476 76.791 22.0265 76.1423 22.0265H76.1533Z" fill="#2942AA"/>
<path d="M58.6261 43.2639L57.2516 45.3454" stroke="#EFA0B5" stroke-miterlimit="10" stroke-linecap="round"/>
<path d="M61.2321 43.1688L59.8576 45.2397" stroke="#EFA0B5" stroke-miterlimit="10" stroke-linecap="round"/>
<path d="M64.2229 42.968L62.8485 45.039" stroke="#EFA0B5" stroke-miterlimit="10" stroke-linecap="round"/>
<path d="M92.284 43.2111L90.9095 45.2925" stroke="#EFA0B5" stroke-miterlimit="10" stroke-linecap="round"/>
<path d="M94.89 43.116L93.5155 45.1869" stroke="#EFA0B5" stroke-miterlimit="10" stroke-linecap="round"/>
<path d="M97.8808 42.9152L96.5064 44.9967" stroke="#EFA0B5" stroke-miterlimit="10" stroke-linecap="round"/>
<path d="M67.2629 42.8411C68.75 42.7959 69.8907 40.7877 69.8107 38.3555C69.7307 35.9234 68.4604 33.9884 66.9733 34.0335C65.4862 34.0787 64.3455 36.0869 64.4255 38.5191C64.5055 40.9512 65.7759 42.8862 67.2629 42.8411Z" fill="black"/>
<path d="M87.2102 42.838C88.6973 42.7928 89.838 40.7846 89.758 38.3524C89.678 35.9203 88.4077 33.9853 86.9206 34.0304C85.4335 34.0756 84.2928 36.0838 84.3728 38.516C84.4528 40.9481 85.7231 42.8831 87.2102 42.838Z" fill="black"/>
<path d="M71.4976 41.9079L82.8763 42.104C83.2721 42.1108 83.5961 42.4334 83.5891 42.8138L83.5852 43.025C83.5255 46.2683 80.7399 48.841 77.3757 48.783L76.7601 48.7724C73.3849 48.7142 70.7068 46.0367 70.7662 42.8041L70.7701 42.5928C70.7771 42.2125 71.1128 41.9012 71.5085 41.9081L71.4976 41.9079Z" fill="black"/>
<path d="M81.9701 45.6095C80.8705 47.0676 79.1442 47.9868 77.2089 47.9552C75.1197 47.9235 73.3054 46.7718 72.2938 45.0601L81.9701 45.6095Z" fill="#DC0000"/>
<path d="M102.158 12.5594C102.092 12.5594 102.026 12.5805 101.96 12.5805C94.3622 3.38822 81.2223 -1.16568 68.1264 2.00409C54.2608 5.34291 44.6175 16.3209 43.2101 28.7252C42.7043 28.9049 42.4294 29.0105 42.3964 29.0211C41.7146 29.2747 41.3738 30.0143 41.6377 30.6694C41.8796 31.2716 42.5503 31.5992 43.1991 31.4512C43.254 31.4407 43.309 31.4301 43.353 31.409C51.5998 26.443 79.463 15.4756 102.488 15.0847C103.225 15.0741 103.731 14.3556 103.632 13.6583C103.544 12.9609 102.873 12.4643 102.147 12.5594H102.158Z" fill="#F2C873" stroke="black" stroke-miterlimit="10"/>
<path d="M97.2321 9.00928C71.0622 12.01 52.4355 20.1457 45.0244 23.8544C44.7605 24.7842 44.5405 25.7245 44.3756 26.6754C50.1374 23.6113 70.2705 14.0492 99.4642 11.0168C98.7934 10.3194 97.9578 9.63266 97.2211 9.00928H97.2321Z" fill="white"/>
<g clip-path="url(#clip0_1646_18296)">
<path d="M48.9344 59.8435C48.5223 59.7074 39.7169 55.9134 33.2783 53.1501C29.6234 51.5807 28.1248 47.342 29.9793 43.8615C31.912 40.2557 36.5954 39.0349 40.0632 41.2511L53.8087 50.0543" fill="#4C5EFF"/>
<path d="M48.9344 59.8435C48.5223 59.7074 39.7169 55.9134 33.2783 53.1501C29.6234 51.5807 28.1248 47.342 29.9793 43.8615C31.912 40.2557 36.5954 39.0349 40.0632 41.2511L53.8087 50.0543" stroke="black" stroke-miterlimit="10"/>
</g>
<path d="M14.655 7.71907C14.655 7.71907 11.424 7.21193 10.372 11.0277L9.75953 13.1884L7.53405 12.3075C6.59626 11.9399 5.57004 11.7985 4.59366 12.0059C2.9212 12.3577 2.25919 13.4045 2.25919 13.4045C1.32954 14.585 1.22259 16.328 1.98374 17.8696C2.6305 19.1795 3.80014 20.1293 5.11331 20.4013L14.2646 22.3351L18.4794 14.2709C19.0795 13.1213 19.0571 11.6343 18.4147 10.3334C17.658 8.8007 16.1827 7.77245 14.655 7.71907Z" fill="#F2609E" stroke="black" stroke-width="0.8" stroke-miterlimit="10"/>
<g clip-path="url(#clip1_1646_18296)">
<path d="M16.6489 26.3031C16.6489 26.3031 24.3142 28.7196 19.7972 35.3928C15.2802 42.0659 24.3954 44.5068 24.3954 44.5068" stroke="black" stroke-miterlimit="10"/>
</g>
<defs>
<clipPath id="clip0_1646_18296">
<rect width="25" height="23" fill="white" transform="matrix(-0.984647 0.174557 0.174557 0.984647 47.6162 37)"/>
</clipPath>
<clipPath id="clip1_1646_18296">
<rect width="11" height="18" fill="white" transform="translate(16.6726 25.5724) rotate(10.1534)"/>
</clipPath>
</defs>
</svg>
