<svg width="40" height="40" viewBox="0 0 40 40" fill="none" xmlns="http://www.w3.org/2000/svg">
<path d="M20 40C31.0457 40 40 31.0457 40 20C40 8.95431 31.0457 0 20 0C8.95431 0 0 8.95431 0 20C0 31.0457 8.95431 40 20 40Z" fill="white"/>
<path d="M29.89 13.2995L29.31 12.7395C29.09 12.6995 23.97 11.6795 21.17 14.5795C20.66 15.0995 20.28 15.7295 20 16.4295C19.72 15.7295 19.34 15.1095 18.83 14.5795C16.03 11.6795 10.91 12.6895 10.69 12.7395L10.11 13.2995C10.06 13.5095 8.91001 18.4695 11.27 21.4595C12.4 22.8895 14.1 23.6095 16.33 23.6095H18.79L18.87 23.6895L18.95 23.6095H19.04V30.4795H20.54V23.5095L20.67 23.6095H21.05L21.13 23.6895L21.21 23.6095H23.67C25.9 23.6095 27.6 22.8895 28.73 21.4595C31.09 18.4695 29.94 13.5095 29.89 13.2995ZM16.34 22.0995C14.59 22.0995 13.29 21.5695 12.46 20.5195C10.93 18.5795 11.28 15.3395 11.49 14.1195C12.72 13.9595 15.98 13.7495 17.77 15.6095C18.96 16.8495 19.32 18.8395 18.85 21.5095L13.88 16.5395L12.82 17.5995L17.31 22.0895H16.35L16.34 22.0995ZM27.55 20.5295C26.72 21.5695 25.42 22.1095 23.67 22.1095H22.71L27.2 17.6195L26.14 16.5595L21.17 21.5295C20.71 18.8495 21.06 16.8695 22.25 15.6295C24.04 13.7695 27.3 13.9795 28.53 14.1395C28.73 15.3595 29.09 18.5995 27.56 20.5395L27.55 20.5295Z" fill="#4252E2"/>
<g opacity="0.2">
<path d="M15.94 22.89L11.84 21.4L10.51 13.65L15.94 13.46V22.89Z" fill="#4252E2"/>
</g>
</svg>
