<svg width="140" height="58" viewBox="0 0 140 58" fill="none" xmlns="http://www.w3.org/2000/svg">
<path d="M52.8128 20.8152C54.2523 20.8152 55.4192 19.6483 55.4192 18.2088C55.4192 16.7693 54.2523 15.6023 52.8128 15.6023C51.3733 15.6023 50.2063 16.7693 50.2063 18.2088C50.2063 19.6483 51.3733 20.8152 52.8128 20.8152Z" fill="white"/>
<path d="M100.668 21.5973C100.668 19.4369 98.9171 17.6855 96.7567 17.6855C94.5963 17.6855 92.845 19.4369 92.845 21.5973V53.7519C92.845 55.9123 94.5963 57.6637 96.7567 57.6637C98.9171 57.6637 100.668 55.9123 100.668 53.7519V21.5973Z" fill="#4252E2"/>
<path d="M59.6563 40.1966C58.2933 38.5207 55.5016 38.5331 53.4139 40.2254L46.7639 45.5577V21.6013C46.7639 19.4396 45.0139 17.6896 42.8522 17.6896C40.6904 17.6896 38.9404 19.4396 38.9404 21.6013V53.756C38.9404 55.9177 40.6904 57.6677 42.8522 57.6677C44.0957 57.6677 45.1992 57.0871 45.9157 56.1813C46.1834 56.0289 46.4428 55.8518 46.6898 55.6501L58.3427 46.303C60.4263 44.6107 61.0151 41.8766 59.6521 40.2007L59.6563 40.1966Z" fill="#4252E2"/>
<path d="M106.89 55.8733V38.4516L116.978 30.1216L127.066 38.5298V55.8733H119.539V50.4627H114.413V55.8733H106.885H106.89ZM119.543 43.6563V41.2557L116.982 39.0939L114.421 41.2557V43.6563H119.547H119.543Z" fill="#00DDDD"/>
<path d="M130.937 38.4587H138.464V56.4281H130.937V38.4587Z" fill="#00DDDD"/>
<path d="M5.24212 10.2704H18.8715C19.588 10.2704 20.1686 10.851 20.1686 11.5674C20.1686 12.2839 19.588 12.8645 18.8715 12.8645H13.4815V15.9157C13.4815 16.7021 12.8433 17.3404 12.0568 17.3404C11.2703 17.3404 10.6321 16.7021 10.6321 15.9157V12.8645H5.24212C4.52566 12.8645 3.94507 12.2839 3.94507 11.5674C3.94507 10.851 4.52566 10.2704 5.24212 10.2704ZM10.4468 8.69745C9.49565 8.69745 8.64741 8.52451 7.898 8.17862C7.14859 7.83274 6.56389 7.34274 6.14389 6.70863C5.72389 6.07451 5.51389 5.34569 5.51389 4.51804C5.51389 3.6904 5.72389 2.97805 6.14389 2.34393C6.56389 1.70981 7.14859 1.22393 7.898 0.882169C8.64741 0.540405 9.49565 0.371582 10.4468 0.371582H13.6627C14.6262 0.371582 15.4827 0.540405 16.228 0.882169C16.9774 1.22393 17.5621 1.70981 17.9821 2.34393C18.4021 2.97805 18.6121 3.70275 18.6121 4.51804C18.6121 5.33334 18.4021 6.07863 17.9821 6.70863C17.5621 7.34274 16.9733 7.83274 16.2197 8.17862C15.4662 8.52451 14.6139 8.69745 13.6627 8.69745H10.4468ZM10.9986 2.81334C10.1833 2.81334 9.54094 2.96158 9.07153 3.26216C8.60212 3.56275 8.36741 3.98275 8.36741 4.5304C8.36741 5.07804 8.60212 5.50628 9.07153 5.81922C9.54094 6.12804 10.1833 6.28451 10.9986 6.28451H13.1192C13.9345 6.28451 14.5809 6.12804 15.0545 5.81922C15.528 5.51039 15.7668 5.07804 15.7668 4.5304C15.7668 3.98275 15.528 3.55863 15.0545 3.26216C14.5809 2.96569 13.9345 2.81334 13.1192 2.81334H10.9986Z" fill="#4252E2"/>
<path d="M22.0127 12.3861V9.06317C22.0127 7.70846 23.108 6.61317 24.4627 6.61317H27.8968V3.61553H23.285C22.585 3.61553 22.0168 3.0473 22.0168 2.3473C22.0168 1.6473 22.585 1.07907 23.285 1.07907H29.2515C30.0792 1.07907 30.7462 1.75024 30.7462 2.57377V7.60141C30.7462 8.42905 30.075 9.09611 29.2515 9.09611H25.5045C25.1503 9.09611 24.8621 9.38434 24.8621 9.73846V11.6532C24.8621 12.0073 25.1503 12.2955 25.5045 12.2955H26.398C27.7939 12.2955 29.2556 12.2008 30.7833 12.0114C31.4627 11.9249 32.0844 12.3985 32.1833 13.0737C32.2821 13.7614 31.7962 14.3914 31.1086 14.4902C29.4821 14.7208 27.7403 14.8361 25.8874 14.8361H24.4627C23.108 14.8361 22.0127 13.7408 22.0127 12.3861ZM34.9133 17.1543C34.1268 17.1543 33.4886 16.5161 33.4886 15.7296V1.42495C33.4886 0.638478 34.1268 0.000244141 34.9133 0.000244141C35.6997 0.000244141 36.338 0.638478 36.338 1.42495V15.7296C36.338 16.5161 35.6997 17.1543 34.9133 17.1543Z" fill="#4252E2"/>
<path d="M16.7588 20.8673C7.50234 20.8673 0 28.4396 0 37.7785C0 47.1173 7.50234 54.6896 16.7588 54.6896C26.0152 54.6896 33.5176 47.1173 33.5176 37.7785C33.5176 28.4396 26.0152 20.8673 16.7588 20.8673ZM26.4352 40.2202C26.4352 40.2202 26.4147 40.2202 26.4023 40.2202C25.3235 44.5478 21.4488 47.7596 16.8206 47.7596C12.1923 47.7596 8.31351 44.5437 7.23469 40.2079C7.18116 40.212 7.13175 40.2243 7.07822 40.2243C6.01999 40.2243 5.1594 39.3596 5.1594 38.289C5.1594 37.2185 5.99528 36.3785 7.03704 36.3579C7.56822 32.5985 10.1706 29.5144 13.6417 28.3285V31.9602H19.8635V28.2832C23.4005 29.4402 26.0605 32.5614 26.5958 36.3702C27.5758 36.4567 28.3458 37.2761 28.3458 38.289C28.3458 39.3596 27.4894 40.2243 26.427 40.2243L26.4352 40.2202Z" fill="#4252E2"/>
<path d="M21.5602 38.7225C21.309 38.7225 21.1073 38.9243 21.1073 39.1755C21.1073 40.6331 19.1967 41.8643 16.932 41.8643C14.6673 41.8643 12.7567 40.6331 12.7567 39.1755C12.7567 38.9243 12.5549 38.7225 12.3038 38.7225C12.0526 38.7225 11.8508 38.9243 11.8508 39.1755C11.8508 41.1561 14.132 42.7702 16.932 42.7702C19.732 42.7702 22.0132 41.1561 22.0132 39.1755C22.0132 38.9243 21.8114 38.7225 21.5602 38.7225Z" fill="#4252E2"/>
<path d="M13.6865 37.0137C14.1322 37.0137 14.4935 36.4846 14.4935 35.8319C14.4935 35.1792 14.1322 34.6501 13.6865 34.6501C13.2407 34.6501 12.8794 35.1792 12.8794 35.8319C12.8794 36.4846 13.2407 37.0137 13.6865 37.0137Z" fill="#4252E2"/>
<path d="M19.756 37.0137C20.2007 37.0137 20.5631 36.4866 20.5631 35.8319C20.5631 35.1772 20.2007 34.6501 19.756 34.6501C19.3113 34.6501 18.949 35.1772 18.949 35.8319C18.949 36.4866 19.3113 37.0137 19.756 37.0137Z" fill="#4252E2"/>
<path d="M71.1001 21.0791C61.8436 21.0791 54.3413 28.6514 54.3413 37.9902C54.3413 47.3291 61.8436 54.9014 71.1001 54.9014C80.3565 54.9014 87.8589 47.3291 87.8589 37.9902C87.8589 28.6514 80.3565 21.0791 71.1001 21.0791ZM77.3383 25.3779L78.8083 28.7667L82.5924 28.882L79.986 32.5591L78.7383 28.8985L74.8348 28.6926L77.3383 25.3779ZM80.8383 40.6708C80.8177 40.6708 80.7971 40.6667 80.7724 40.6626C79.7348 45.0561 75.8313 48.3255 71.1619 48.3255C66.4925 48.3255 62.5889 45.0561 61.5513 40.6626C61.5307 40.6626 61.5101 40.6708 61.4895 40.6708C60.4313 40.6708 59.5707 39.8061 59.5707 38.7355C59.5707 37.665 60.3819 36.8579 61.4031 36.8085C61.9795 33.0655 64.6107 30.0144 68.0983 28.8656C69.5848 30.3891 72.0472 32.3903 74.7524 32.3903C74.7524 32.3903 72.9942 30.2903 72.5289 28.4703C76.8442 29.0714 80.2618 32.4767 80.9289 36.8085C81.946 36.8538 82.7613 37.6938 82.7613 38.7355C82.7613 39.7773 81.9007 40.6708 80.8424 40.6708H80.8383Z" fill="#4252E2"/>
<path d="M75.9054 38.7227C75.6543 38.7227 75.4525 38.9244 75.4525 39.1756C75.4525 40.6332 73.5419 41.8644 71.2772 41.8644C69.0125 41.8644 67.1019 40.6332 67.1019 39.1756C67.1019 38.9244 66.9002 38.7227 66.649 38.7227C66.3978 38.7227 66.196 38.9244 66.196 39.1756C66.196 41.1562 68.4772 42.7703 71.2772 42.7703C74.0772 42.7703 76.3584 41.1562 76.3584 39.1756C76.3584 38.9244 76.1566 38.7227 75.9054 38.7227Z" fill="#4252E2"/>
<path d="M68.0314 37.0138C68.4761 37.0138 68.8385 36.4867 68.8385 35.832C68.8385 35.1773 68.4761 34.6503 68.0314 34.6503C67.5867 34.6503 67.2244 35.1773 67.2244 35.832C67.2244 36.4867 67.5867 37.0138 68.0314 37.0138Z" fill="#4252E2"/>
<path d="M74.1054 37.0138C74.5501 37.0138 74.9125 36.4867 74.9125 35.832C74.9125 35.1773 74.5501 34.6503 74.1054 34.6503C73.6607 34.6503 73.2983 35.1773 73.2983 35.832C73.2983 36.4867 73.6607 37.0138 74.1054 37.0138Z" fill="#4252E2"/>
<path d="M134.667 25.9658C131.785 25.9658 129.45 28.3005 129.45 31.1829C129.45 34.0652 131.785 36.3999 134.667 36.3999C137.55 36.3999 139.884 34.0652 139.884 31.1829C139.884 28.3005 137.55 25.9658 134.667 25.9658ZM134.667 34.6993C132.724 34.6993 131.151 33.1264 131.151 31.1829C131.151 29.2393 132.724 27.6664 134.667 27.6664C136.611 27.6664 138.184 29.2393 138.184 31.1829C138.184 33.1264 136.611 34.6993 134.667 34.6993Z" fill="#00DDDD"/>
<mask id="mask0_3624_46257" style="mask-type:luminance" maskUnits="userSpaceOnUse" x="134" y="25" width="6" height="12">
<path d="M140 25.3521H134.462V36.8979H140V25.3521Z" fill="white"/>
</mask>
<g mask="url(#mask0_3624_46257)">
<path d="M134.663 25.9656C131.781 25.9656 129.446 28.3003 129.446 31.1826C129.446 34.065 131.781 36.3997 134.663 36.3997C137.545 36.3997 139.88 34.065 139.88 31.1826C139.88 28.3003 137.545 25.9656 134.663 25.9656ZM134.667 34.6991C132.723 34.6991 131.151 33.1262 131.151 31.1826C131.151 29.2391 132.723 27.6662 134.667 27.6662C136.61 27.6662 138.183 29.2391 138.183 31.1826C138.183 33.1262 136.61 34.6991 134.667 34.6991Z" fill="#77ECF2"/>
</g>
<path d="M136.565 30.5772C136.446 30.9684 136.071 31.2484 135.643 31.2278C135.132 31.2031 134.741 30.7707 134.766 30.2601C134.787 29.8195 135.112 29.4695 135.532 29.3954C135.297 29.2884 135.038 29.2307 134.762 29.2307C133.72 29.2307 132.88 30.0748 132.88 31.1125C132.88 32.1501 133.724 32.9942 134.762 32.9942C135.8 32.9942 136.644 32.1501 136.644 31.1125C136.644 30.9272 136.615 30.746 136.565 30.5772Z" fill="#00D8D2"/>
</svg>
