<svg width="72" height="72" viewBox="0 0 72 72" fill="none" xmlns="http://www.w3.org/2000/svg">
<rect width="72" height="72" fill="#D4D6E3"/>
<path fill-rule="evenodd" clip-rule="evenodd" d="M21 19C19.3431 19 18 20.3431 18 22V50C18 51.6569 19.3431 53 21 53H40.7517C40.2688 51.9326 40 50.7477 40 49.5C40 44.8056 43.8056 41 48.5 41C49.7477 41 50.9326 41.2688 52 41.7517V22C52 20.3431 50.6569 19 49 19H21Z" fill="#ECEEF5"/>
<circle cx="48.5" cy="49.5" r="6.5" fill="#ECEEF5"/>
<path d="M41 35C43.7551 35 46 32.7551 46 30C46 27.2449 43.7551 25 41 25C38.2449 25 36 27.2449 36 30C36 32.7551 38.2449 35 41 35ZM41 27.551C42.3435 27.551 43.449 28.6565 43.449 30C43.449 31.3435 42.3435 32.449 41 32.449C39.6565 32.449 38.551 31.3435 38.551 30C38.551 28.6565 39.6565 27.551 41 27.551Z" fill="#D4D6E3"/>
<path d="M49.6632 49.4995L51.7578 47.3992C52.0807 47.078 52.0807 46.5508 51.7578 46.2378C51.4349 45.9249 50.9051 45.9166 50.5905 46.2378L48.5041 48.3299L46.4178 46.2461C46.0949 45.9249 45.5733 45.9249 45.2504 46.2461C44.9276 46.5673 44.9276 47.0862 45.2504 47.4074L47.3451 49.5077L45.2422 51.5998C44.9193 51.921 44.9193 52.4482 45.2422 52.7611C45.4077 52.9176 45.6147 53 45.8217 53C46.0287 53 46.2439 52.9176 46.4095 52.7529L48.4959 50.6608L50.5822 52.7529C50.7478 52.9176 50.9548 53 51.17 53C51.3853 53 51.5923 52.9176 51.7496 52.7611C52.0724 52.4399 52.0724 51.921 51.7496 51.5998L49.6549 49.4995H49.6632Z" fill="#D4D6E3"/>
<path fill-rule="evenodd" clip-rule="evenodd" d="M36.7076 39.9534C38.2862 38.6972 39.9777 38.0942 41.6853 38.1947L41.7175 38.2282C44.7396 38.4315 46.8215 40.7067 47.1642 41.1044C46.2227 41.253 45.3326 41.5562 44.5206 41.9871C43.8323 41.4402 42.7775 40.8001 41.5403 40.7239C40.3482 40.6402 39.1884 41.1259 38.0446 42.0806C38.3346 42.6668 38.6084 43.2866 38.8501 43.9733L39.2689 45.1458L36.9975 46L36.5787 44.8108C35.5799 41.9969 34.0335 40.1042 31.9715 39.183C28.3147 37.5415 24.0781 39.4174 24.0781 39.4174L22.9665 39.9199L22 37.6252L23.0954 37.1228C23.1023 37.12 23.1142 37.115 23.1309 37.1079C23.6284 36.8981 28.4173 34.8786 32.8897 36.8715C34.3879 37.5415 35.6605 38.58 36.7076 39.9534Z" fill="#D4D6E3"/>
</svg>
