<svg width="273" height="383" viewBox="0 0 273 383" fill="none" xmlns="http://www.w3.org/2000/svg">
<path d="M109.152 32.3778C111.391 32.3778 113.206 30.5626 113.206 28.3234C113.206 26.0842 111.391 24.269 109.152 24.269C106.913 24.269 105.098 26.0842 105.098 28.3234C105.098 30.5626 106.913 32.3778 109.152 32.3778Z" fill="white"/>
<path d="M89.0399 109.886H83.9542L82.8974 112.499H81.4434L85.8053 101.918H87.2721L91.6211 112.499H90.1031L89.0463 109.886H89.0399ZM88.5467 108.656L86.4971 103.545L84.4346 108.656H88.5467Z" fill="#878AA1"/>
<path d="M94.4138 112.499H93.0239V101.918H94.4138V112.499Z" fill="#878AA1"/>
<path d="M103.49 108.163C101.312 108.163 99.9605 106.773 99.9605 104.884C99.9605 102.994 101.306 101.604 103.49 101.604C105.674 101.604 107.006 102.994 107.006 104.884C107.006 106.773 105.674 108.163 103.49 108.163ZM102.222 111.443H110.491V112.634H100.883V108.945H102.215V111.443H102.222ZM103.49 107.055C104.809 107.055 105.699 106.222 105.699 104.89C105.699 103.558 104.816 102.712 103.49 102.712C102.164 102.712 101.267 103.558 101.267 104.89C101.267 106.222 102.151 107.055 103.49 107.055ZM111.772 104.173V105.428H110.189V109.867H108.883V101.489H110.189V104.173H111.772Z" fill="#878AA1"/>
<path d="M112.905 108.272V107.068C114.795 106.805 115.973 105.178 116.089 102.917H113.046V101.784H120.245V102.917H117.408C117.382 103.526 117.273 104.109 117.12 104.647L120.585 107.222L119.842 108.176L116.659 105.755C115.89 107.17 114.571 108.093 112.905 108.266V108.272ZM123.544 111.455V112.634H113.699V109.041H115.032V111.455H123.544ZM122 104.16V101.489H123.307V109.88H122V105.306H119.81V104.16H122Z" fill="#878AA1"/>
<path d="M125.683 107.465V106.331C128.867 106.318 130.865 105.313 130.865 103.263V102.879H125.683V101.771H132.185V103.039C132.185 106.145 129.597 107.465 125.683 107.465ZM135.778 110.411C135.778 112.141 133.651 112.775 130.942 112.775C128.233 112.775 126.106 112.141 126.106 110.411C126.106 108.682 128.246 108.048 130.942 108.048C133.639 108.048 135.778 108.682 135.778 110.411ZM134.388 110.411C134.388 109.527 132.87 109.13 130.942 109.13C129.014 109.13 127.496 109.527 127.496 110.411C127.496 111.295 129.027 111.679 130.942 111.679C132.857 111.679 134.388 111.308 134.388 110.411ZM137.193 103.801V105.057H135.611V107.657H134.305V101.489H135.611V103.801H137.193Z" fill="#878AA1"/>
<path d="M145.699 103.949H138.045V102.802H141.203V101.374H142.535V102.802H145.693V103.949H145.699ZM142.529 110.943C144.021 110.93 145.315 110.796 146.097 110.443V111.635C145.386 111.955 143.996 112.109 142.414 112.109H138.103V110.943H141.222V109.265C139.621 109.092 138.635 108.246 138.635 106.978C138.635 105.537 139.903 104.64 141.901 104.64C143.9 104.64 145.168 105.537 145.168 106.978C145.168 108.259 144.162 109.105 142.535 109.278V110.943H142.529ZM141.895 108.234C143.227 108.234 143.919 107.689 143.919 106.978C143.919 106.267 143.233 105.71 141.895 105.71C140.556 105.71 139.871 106.267 139.871 106.978C139.871 107.689 140.556 108.234 141.895 108.234ZM149.901 107.215H148.345V112.781H147.038V101.495H148.345V105.96H149.901V107.215Z" fill="#878AA1"/>
<path d="M165.78 106.408V107.426H154.507V106.408H165.78ZM165.12 105.467H155.16V104.474H157.158V102.61H155.282V101.617H165.005V102.61H163.128V104.474H165.126V105.467H165.12ZM156.569 111.679H165.197V112.647H155.288V110.033H163.717V109.31H155.262V108.342H164.998V110.943H156.569V111.686V111.679ZM158.458 104.48H161.815V102.616H158.458V104.48Z" fill="#878AA1"/>
<path d="M169.795 108.208H167.56V104.403H171.115V102.872H167.56V101.777H172.345V105.479H168.777V107.119H169.885C171.141 107.119 172.236 106.997 172.979 106.709V107.792C172.236 108.093 171.089 108.214 169.795 108.214V108.208ZM178.077 112.775L173.03 110.86C171.826 112.025 169.936 112.615 168.06 112.627V111.507C170.212 111.481 172.46 110.501 172.883 108.65L174.177 108.925C174.087 109.297 173.94 109.636 173.741 109.957L178.577 111.686L178.077 112.768V112.775ZM174.99 108.419H173.747V101.559H174.99V104.192H176.828V101.495H178.071V109.463H176.828V105.396H174.99V108.419Z" fill="#878AA1"/>
<path d="M191.201 106.991V108.035H179.928V106.991H184.912V105.857H180.575V104.826H182.574V102.661H180.697V101.63H190.42V102.661H188.543V104.826H190.542V105.857H186.205V106.991H191.201ZM180.71 109.066H190.407V112.647H180.71V109.066ZM182.016 111.615H189.113V110.085H182.016V111.615ZM183.88 104.82H187.237V102.655H183.88V104.82Z" fill="#878AA1"/>
<path d="M183.592 33.5948C183.592 30.2342 180.868 27.5099 177.507 27.5099C174.147 27.5099 171.422 30.2342 171.422 33.5948V83.6123C171.422 86.9729 174.147 89.6971 177.507 89.6971C180.868 89.6971 183.592 86.9729 183.592 83.6123V33.5948Z" fill="#4252E2"/>
<path d="M119.797 62.5266C117.677 59.9198 113.335 59.939 110.087 62.5715L99.7429 70.8661V33.6012C99.7429 30.2385 97.0207 27.5163 93.658 27.5163C90.2954 27.5163 87.5732 30.2385 87.5732 33.6012V83.6187C87.5732 86.9813 90.2954 89.7035 93.658 89.7035C95.5924 89.7035 97.3089 88.8004 98.4234 87.3913C98.8398 87.1543 99.2433 86.8789 99.6276 86.565L117.754 72.0254C120.995 69.3929 121.911 65.1399 119.791 62.533L119.797 62.5266Z" fill="#4252E2"/>
<path d="M193.27 86.9109V59.8109L208.963 46.8534L224.655 59.9326V86.9109H212.947V78.4946H204.972V86.9109H193.264H193.27ZM212.953 67.907V64.1728L208.969 60.8101L204.985 64.1728V67.907H212.96H212.953Z" fill="#00DDDD"/>
<path d="M230.676 59.8237H242.385V87.7756H230.676V59.8237Z" fill="#00DDDD"/>
<path d="M35.1536 15.9743H56.3545C57.469 15.9743 58.3721 16.8775 58.3721 17.9919C58.3721 19.1064 57.469 20.0096 56.3545 20.0096H47.9702V24.7557C47.9702 25.9791 46.9774 26.9719 45.7541 26.9719C44.5307 26.9719 43.5379 25.9791 43.5379 24.7557V20.0096H35.1536C34.0391 20.0096 33.136 19.1064 33.136 17.9919C33.136 16.8775 34.0391 15.9743 35.1536 15.9743ZM43.2497 13.5276C41.7701 13.5276 40.4506 13.2586 39.2849 12.7205C38.1192 12.1825 37.2096 11.4203 36.5563 10.4339C35.903 9.44752 35.5763 8.31382 35.5763 7.02639C35.5763 5.73897 35.903 4.63088 36.5563 3.64449C37.2096 2.65811 38.1192 1.9023 39.2849 1.37068C40.4506 0.839056 41.7701 0.576447 43.2497 0.576447H48.252C49.7508 0.576447 51.0831 0.839056 52.2424 1.37068C53.4082 1.9023 54.3177 2.65811 54.971 3.64449C55.6243 4.63088 55.951 5.75818 55.951 7.02639C55.951 8.2946 55.6243 9.45393 54.971 10.4339C54.3177 11.4203 53.4018 12.1825 52.2296 12.7205C51.0575 13.2586 49.7316 13.5276 48.252 13.5276H43.2497ZM44.1079 4.37468C42.8397 4.37468 41.8405 4.60526 41.1103 5.07283C40.3802 5.54041 40.0151 6.19373 40.0151 7.04561C40.0151 7.89749 40.3802 8.56362 41.1103 9.05041C41.8405 9.53079 42.8397 9.77418 44.1079 9.77418H47.4066C48.6748 9.77418 49.6804 9.53079 50.417 9.05041C51.1536 8.57002 51.5251 7.89749 51.5251 7.04561C51.5251 6.19373 51.1536 5.534 50.417 5.07283C49.6804 4.61167 48.6748 4.37468 47.4066 4.37468H44.1079Z" fill="#4252E2"/>
<path d="M61.2416 19.2666V14.0976C61.2416 11.9904 62.9454 10.2866 65.0527 10.2866H70.3945V5.62369H63.2208C62.1319 5.62369 61.248 4.73978 61.248 3.65091C61.248 2.56204 62.1319 1.67814 63.2208 1.67814H72.5018C73.7892 1.67814 74.8269 2.72217 74.8269 4.00319V11.8238C74.8269 13.1113 73.7828 14.1489 72.5018 14.1489H66.6732C66.1223 14.1489 65.674 14.5972 65.674 15.1481V18.1265C65.674 18.6773 66.1223 19.1257 66.6732 19.1257H68.0631C70.2344 19.1257 72.5082 18.9783 74.8845 18.6837C75.9414 18.5492 76.9085 19.2858 77.0623 20.3362C77.216 21.4059 76.4602 22.3859 75.3905 22.5396C72.8605 22.8983 70.1511 23.0776 67.2688 23.0776H65.0527C62.9454 23.0776 61.2416 21.3739 61.2416 19.2666ZM81.3088 26.6837C80.0855 26.6837 79.0927 25.6909 79.0927 24.4675V2.21617C79.0927 0.992792 80.0855 0 81.3088 0C82.5322 0 83.525 0.992792 83.525 2.21617V24.4675C83.525 25.6909 82.5322 26.6837 81.3088 26.6837Z" fill="#4252E2"/>
<path d="M53.0688 32.4611C38.6701 32.4611 27 44.2401 27 58.7669C27 73.2936 38.6701 85.0727 53.0688 85.0727C67.4675 85.0727 79.1376 73.2936 79.1376 58.7669C79.1376 44.2401 67.4675 32.4611 53.0688 32.4611ZM68.1208 62.5651C68.1208 62.5651 68.0888 62.5651 68.0696 62.5651C66.3914 69.2969 60.3642 74.2928 53.1649 74.2928C45.9655 74.2928 39.9319 69.2905 38.2538 62.5459C38.1705 62.5523 38.0937 62.5715 38.0104 62.5715C36.3643 62.5715 35.0256 61.2264 35.0256 59.5611C35.0256 57.8958 36.3258 56.5891 37.9463 56.5571C38.7726 50.7092 42.8206 45.9118 48.2201 44.0671V49.7164H57.8983V43.9967C63.4002 45.7965 67.5379 50.6516 68.3706 56.5763C69.895 56.7108 71.0928 57.9854 71.0928 59.5611C71.0928 61.2264 69.7605 62.5715 68.108 62.5715L68.1208 62.5651Z" fill="#4252E2"/>
<path d="M60.5372 60.2336C60.1465 60.2336 59.8326 60.5475 59.8326 60.9382C59.8326 63.2056 56.8607 65.1207 53.3379 65.1207C49.8151 65.1207 46.8431 63.2056 46.8431 60.9382C46.8431 60.5475 46.5292 60.2336 46.1385 60.2336C45.7478 60.2336 45.434 60.5475 45.434 60.9382C45.434 64.019 48.9824 66.5298 53.3379 66.5298C57.6933 66.5298 61.2418 64.019 61.2418 60.9382C61.2418 60.5475 60.9279 60.2336 60.5372 60.2336Z" fill="#4252E2"/>
<path d="M48.2906 57.5755C48.9839 57.5755 49.546 56.7525 49.546 55.7373C49.546 54.722 48.9839 53.899 48.2906 53.899C47.5972 53.899 47.0352 54.722 47.0352 55.7373C47.0352 56.7525 47.5972 57.5755 48.2906 57.5755Z" fill="#4252E2"/>
<path d="M57.7317 57.5755C58.4234 57.5755 58.9871 56.7557 58.9871 55.7373C58.9871 54.7188 58.4234 53.899 57.7317 53.899C57.0399 53.899 56.4763 54.7188 56.4763 55.7373C56.4763 56.7557 57.0399 57.5755 57.7317 57.5755Z" fill="#4252E2"/>
<path d="M137.597 32.7877C123.198 32.7877 111.528 44.5667 111.528 59.0935C111.528 73.6203 123.198 85.3993 137.597 85.3993C151.996 85.3993 163.666 73.6203 163.666 59.0935C163.666 44.5667 151.996 32.7877 137.597 32.7877ZM147.301 39.4747L149.587 44.7461L155.474 44.9254L151.419 50.6452L149.479 44.951L143.406 44.6308L147.301 39.4747ZM152.745 63.2632C152.713 63.2632 152.681 63.2568 152.643 63.2504C151.029 70.0847 144.957 75.1703 137.693 75.1703C130.43 75.1703 124.358 70.0847 122.744 63.2504C122.712 63.2504 122.68 63.2632 122.648 63.2632C121.001 63.2632 119.663 61.9182 119.663 60.2528C119.663 58.5875 120.925 57.3321 122.513 57.2553C123.41 51.433 127.503 46.6868 132.928 44.8998C135.24 47.2697 139.07 50.3826 143.278 50.3826C143.278 50.3826 140.543 47.116 139.82 44.2849C146.532 45.2201 151.848 50.5171 152.886 57.2553C154.468 57.3257 155.736 58.6324 155.736 60.2528C155.736 61.8733 154.398 63.2632 152.752 63.2632H152.745Z" fill="#4252E2"/>
<path d="M145.072 60.2336C144.681 60.2336 144.367 60.5475 144.367 60.9382C144.367 63.2056 141.395 65.1207 137.872 65.1207C134.35 65.1207 131.378 63.2056 131.378 60.9382C131.378 60.5475 131.064 60.2336 130.673 60.2336C130.282 60.2336 129.969 60.5475 129.969 60.9382C129.969 64.0191 133.517 66.5299 137.872 66.5299C142.228 66.5299 145.776 64.0191 145.776 60.9382C145.776 60.5475 145.462 60.2336 145.072 60.2336Z" fill="#4252E2"/>
<path d="M132.825 57.5755C133.517 57.5755 134.081 56.7557 134.081 55.7373C134.081 54.7188 133.517 53.899 132.825 53.899C132.133 53.899 131.57 54.7188 131.57 55.7373C131.57 56.7557 132.133 57.5755 132.825 57.5755Z" fill="#4252E2"/>
<path d="M142.273 57.5755C142.964 57.5755 143.528 56.7557 143.528 55.7373C143.528 54.7188 142.964 53.899 142.273 53.899C141.581 53.899 141.017 54.7188 141.017 55.7373C141.017 56.7557 141.581 57.5755 142.273 57.5755Z" fill="#4252E2"/>
<path d="M236.479 40.3906C231.996 40.3906 228.364 44.0223 228.364 48.5059C228.364 52.9895 231.996 56.6212 236.479 56.6212C240.963 56.6212 244.594 52.9895 244.594 48.5059C244.594 44.0223 240.963 40.3906 236.479 40.3906ZM236.479 53.9759C233.456 53.9759 231.009 51.5291 231.009 48.5059C231.009 45.4827 233.456 43.0359 236.479 43.0359C239.502 43.0359 241.949 45.4827 241.949 48.5059C241.949 51.5291 239.502 53.9759 236.479 53.9759Z" fill="#00DDDD"/>
<mask id="mask0_307_1884" style="mask-type:luminance" maskUnits="userSpaceOnUse" x="236" y="39" width="9" height="19">
<path d="M244.774 39.4362H236.159V57.3962H244.774V39.4362Z" fill="white"/>
</mask>
<g mask="url(#mask0_307_1884)">
<path d="M236.473 40.3906C231.989 40.3906 228.357 44.0223 228.357 48.5059C228.357 52.9894 231.989 56.6211 236.473 56.6211C240.956 56.6211 244.588 52.9894 244.588 48.5059C244.588 44.0223 240.956 40.3906 236.473 40.3906ZM236.479 53.9758C233.456 53.9758 231.009 51.5291 231.009 48.5059C231.009 45.4827 233.456 43.0359 236.479 43.0359C239.502 43.0359 241.949 45.4827 241.949 48.5059C241.949 51.5291 239.502 53.9758 236.479 53.9758Z" fill="#77ECF2"/>
</g>
<path d="M239.432 47.5643C239.246 48.1728 238.663 48.6083 237.997 48.5763C237.203 48.5379 236.594 47.8654 236.633 47.0711C236.665 46.3858 237.171 45.8413 237.824 45.726C237.459 45.5595 237.056 45.4698 236.626 45.4698C235.006 45.4698 233.699 46.7829 233.699 48.397C233.699 50.0111 235.012 51.3241 236.626 51.3241C238.24 51.3241 239.553 50.0111 239.553 48.397C239.553 48.1087 239.509 47.8269 239.432 47.5643Z" fill="#00D8D2"/>
<g clip-path="url(#clip0_307_1884)">
<path d="M208.16 274.61C243.655 274.61 272.43 270.872 272.43 266.26C272.43 261.648 243.655 257.91 208.16 257.91C172.665 257.91 143.89 261.648 143.89 266.26C143.89 270.872 172.665 274.61 208.16 274.61Z" fill="#EAEDF3"/>
<path d="M231.76 233.21H258.41V257.93C258.41 261.73 255.32 264.82 251.52 264.82H231.77V233.21H231.76Z" fill="white" stroke="black" stroke-width="1.2" stroke-miterlimit="10"/>
<path d="M157.69 233.21H184.34V264.82H164.59C160.79 264.82 157.7 261.73 157.7 257.93V233.21H157.69Z" fill="white" stroke="black" stroke-width="1.2" stroke-miterlimit="10"/>
<path d="M162.32 205.28L152.33 233.21H264L253.87 205.26C253.07 203.06 250.98 201.6 248.65 201.6H167.56C165.21 201.6 163.12 203.07 162.33 205.28H162.32Z" fill="#4252E2" stroke="black" stroke-width="1.2" stroke-miterlimit="10"/>
<path d="M227.34 270.92H188.77C186.33 270.92 184.34 268.94 184.34 266.49V233.21L205.61 214.38C206.75 213.37 208.46 213.35 209.62 214.34L231.76 233.21V266.49C231.76 268.93 229.78 270.92 227.33 270.92H227.34Z" fill="white" stroke="black" stroke-width="1.2" stroke-miterlimit="10"/>
<path d="M173.9 233.21L204.39 204.35C206.03 202.8 208.58 202.8 210.23 204.33L241.97 233.2H231.76L209.27 214.42C208.05 213.38 206.26 213.42 205.09 214.51L184.34 233.2H173.9V233.21Z" fill="white" stroke="black" stroke-width="1.2" stroke-miterlimit="10"/>
<path d="M174.36 243.09H167.67C166.593 243.09 165.72 243.963 165.72 245.04V251.73C165.72 252.807 166.593 253.68 167.67 253.68H174.36C175.437 253.68 176.31 252.807 176.31 251.73V245.04C176.31 243.963 175.437 243.09 174.36 243.09Z" fill="white" stroke="black" stroke-width="1.2" stroke-miterlimit="10"/>
<path d="M219.65 239.54C219.65 239.54 215.16 236.49 210.71 241.6L208.17 244.49L205.47 241.57C204.33 240.34 202.89 239.41 201.26 239.04C198.47 238.4 196.69 239.55 196.69 239.55C194.42 240.71 192.96 243.33 192.96 246.22C192.96 248.68 194.03 250.98 195.79 252.32L208.18 261.74L220.57 252.32C222.34 250.98 223.4 248.68 223.4 246.22C223.4 243.33 221.93 240.71 219.67 239.55L219.65 239.54Z" fill="#4252E2" stroke="black" stroke-width="1.2" stroke-miterlimit="10"/>
<path d="M189.27 258.28V262.72C189.27 264.2 190.47 265.39 191.94 265.39H197.1" stroke="black" stroke-width="1.2" stroke-miterlimit="10"/>
<path d="M207.49 236.04C211.472 236.04 214.7 232.812 214.7 228.83C214.7 224.848 211.472 221.62 207.49 221.62C203.508 221.62 200.28 224.848 200.28 228.83C200.28 232.812 203.508 236.04 207.49 236.04Z" fill="white" stroke="black" stroke-width="1.2" stroke-miterlimit="10"/>
<path d="M207.18 225.02V228.83L210.89 227.92" fill="white"/>
<path d="M207.18 225.02V228.83L210.89 227.92" stroke="black" stroke-width="1.2" stroke-miterlimit="10"/>
<path d="M248.39 243.09H241.78C240.681 243.09 239.79 243.981 239.79 245.08V251.69C239.79 252.789 240.681 253.68 241.78 253.68H248.39C249.489 253.68 250.38 252.789 250.38 251.69V245.08C250.38 243.981 249.489 243.09 248.39 243.09Z" fill="white" stroke="black" stroke-width="1.2" stroke-miterlimit="10"/>
<path d="M218.2 265.39H223.72C225.2 265.39 226.39 264.19 226.39 262.72V258.28" stroke="black" stroke-width="1.2" stroke-miterlimit="10"/>
<path d="M201.46 332.71C209.507 332.71 216.03 331.667 216.03 330.38C216.03 329.093 209.507 328.05 201.46 328.05C193.413 328.05 186.89 329.093 186.89 330.38C186.89 331.667 193.413 332.71 201.46 332.71Z" fill="#EAEDF3"/>
<path d="M186.56 303.06C186.45 302.91 183.77 299.78 181.82 297.5C180.71 296.2 178.74 296.11 177.51 297.29C176.23 298.51 176.3 300.58 177.66 301.71L183.05 306.24" fill="#4252E2"/>
<path d="M186.56 303.06C186.45 302.91 183.77 299.78 181.82 297.5C180.71 296.2 178.74 296.11 177.51 297.29C176.23 298.51 176.3 300.58 177.66 301.71L183.05 306.24" stroke="black" stroke-miterlimit="10"/>
<path d="M220.53 308.33C222.26 288.51 206.11 286.9 203.55 286.77C203.36 286.77 203.18 286.74 202.99 286.72C200.45 286.41 184.27 285.2 182.54 305.02C182.54 305.02 180.26 320.11 200.15 321.9C200.15 321.9 200.19 321.9 200.21 321.9C200.23 321.9 200.25 321.9 200.27 321.9C220.17 323.57 220.53 308.31 220.53 308.31V308.33Z" fill="#4252E2" stroke="black" stroke-miterlimit="10"/>
<path d="M201.27 313.42C200.29 313.42 199.23 313.37 198.14 313.26C192.54 312.7 188.62 311.06 186.7 308.53C185.08 306.39 185.42 304.37 185.44 304.29C186.22 296.38 193.2 295.21 197.29 295.21C198.67 295.21 199.66 295.35 199.84 295.37C200.6 295.41 206.9 295.83 210.27 299.75C211.88 301.62 212.56 304.03 212.27 306.9C212.27 307.21 212.01 313.43 201.27 313.43V313.42Z" fill="white"/>
<path d="M197.29 295.71C198.63 295.71 199.59 295.84 199.77 295.87H199.82H199.87C200.14 295.88 206.6 296.25 209.9 300.07C211.42 301.83 212.05 304.11 211.79 306.84V306.88V306.91C211.79 307.15 211.5 312.91 201.29 312.91C200.33 312.91 199.29 312.86 198.21 312.75H198.13C192.78 312.2 188.97 310.64 187.14 308.24C185.65 306.28 185.94 304.44 185.95 304.37V304.33L185.96 304.29C186.7 296.81 193.39 295.7 197.31 295.7M197.29 294.71C193.2 294.71 185.77 295.87 184.95 304.2C184.95 304.2 183.44 312.28 198.01 313.75C198.01 313.75 198.04 313.75 198.05 313.75C198.06 313.75 198.08 313.75 198.09 313.75C199.24 313.86 200.3 313.91 201.27 313.91C212.68 313.91 212.77 306.93 212.77 306.93C213.87 295.74 200.75 294.9 199.91 294.86C199.7 294.83 198.69 294.69 197.29 294.69V294.71Z" fill="#2942AA"/>
<path d="M200.11 305.82C200.02 306.74 198.85 307.37 197.5 307.24C196.15 307.11 195.13 306.25 195.22 305.34" fill="white"/>
<path d="M200.11 305.82C200.02 306.74 198.85 307.37 197.5 307.24C196.15 307.11 195.13 306.25 195.22 305.34" stroke="black" stroke-miterlimit="10" stroke-linecap="round"/>
<path d="M187.57 305.32L186.67 306.39" stroke="#EFA0B5" stroke-miterlimit="10" stroke-linecap="round"/>
<path d="M188.99 305.44L188.09 306.52" stroke="#EFA0B5" stroke-miterlimit="10" stroke-linecap="round"/>
<path d="M190.63 305.54L189.73 306.62" stroke="#EFA0B5" stroke-miterlimit="10" stroke-linecap="round"/>
<path d="M205.31 307.09L204.41 308.17" stroke="#EFA0B5" stroke-miterlimit="10" stroke-linecap="round"/>
<path d="M206.73 307.22L205.83 308.3" stroke="#EFA0B5" stroke-miterlimit="10" stroke-linecap="round"/>
<path d="M208.37 307.32L207.47 308.4" stroke="#EFA0B5" stroke-miterlimit="10" stroke-linecap="round"/>
<path d="M191.24 300.36L193.48 301.61C193.85 301.82 193.8 302.36 193.4 302.5L190.73 303.42" fill="white"/>
<path d="M191.24 300.36L193.48 301.61C193.85 301.82 193.8 302.36 193.4 302.5L190.73 303.42" stroke="black" stroke-miterlimit="10" stroke-linecap="round"/>
<path d="M204.46 304.9L202.22 303.65C201.85 303.44 201.9 302.9 202.3 302.76L204.97 301.84" fill="white"/>
<path d="M204.46 304.9L202.22 303.65C201.85 303.44 201.9 302.9 202.3 302.76L204.97 301.84" stroke="black" stroke-miterlimit="10" stroke-linecap="round"/>
<path d="M217.17 309.5C217.36 309.48 221.38 308.63 224.32 308C225.99 307.65 227.02 305.96 226.57 304.32C226.11 302.61 224.27 301.68 222.62 302.33L216.06 304.89" fill="#4252E2"/>
<path d="M217.17 309.5C217.36 309.48 221.38 308.63 224.32 308C225.99 307.65 227.02 305.96 226.57 304.32C226.11 302.61 224.27 301.68 222.62 302.33L216.06 304.89" stroke="black" stroke-miterlimit="10"/>
<path d="M212.83 291.2L216.52 283.23C217.25 282.33 217.2 281.07 216.41 280.42C215.61 279.77 214.37 279.98 213.64 280.88L207.03 288.36" fill="#4252E2"/>
<path d="M212.83 291.2L216.52 283.23C217.25 282.33 217.2 281.07 216.41 280.42C215.61 279.77 214.37 279.98 213.64 280.88L207.03 288.36" stroke="black" stroke-miterlimit="10"/>
<path d="M215.73 284.05C217.182 284.05 218.36 282.873 218.36 281.42C218.36 279.967 217.182 278.79 215.73 278.79C214.277 278.79 213.1 279.967 213.1 281.42C213.1 282.873 214.277 284.05 215.73 284.05Z" fill="#4252E2" stroke="black" stroke-miterlimit="10"/>
<path d="M216.954 281.868C217.263 281.765 217.406 281.359 217.273 280.96C217.14 280.562 216.782 280.323 216.473 280.426C216.164 280.529 216.021 280.936 216.154 281.334C216.287 281.732 216.645 281.971 216.954 281.868Z" fill="white"/>
<path d="M39.28 382.93C59.14 382.93 75.24 380.36 75.24 377.18C75.24 374 59.14 371.43 39.28 371.43C19.42 371.43 3.32001 374 3.32001 377.18C3.32001 380.36 19.42 382.93 39.28 382.93Z" fill="#EAEDF3"/>
<path d="M18.04 311C18.04 311 7.00001 320.59 7.42001 324.31C7.83001 328.03 8.92001 333.1 11.72 333.63C14.52 334.16 22.1 333.03 22.1 333.03L25.45 331.32L28.15 321.68L22.68 315.33L18.04 310.99V311Z" fill="white"/>
<path d="M61.53 321.17L60.04 324.3L59.19 328.37L60.36 334.45L62.68 337.34L66.61 336.25L71.18 335.82L80.03 335.06L84.1 333.37L86.27 330.88L87.02 323.59L85.26 319.15H80.68L79.33 321.16L78.31 323.59L77.97 321.67L75.98 322.64L74.84 323.34L61.53 321.15V321.17Z" fill="white"/>
<path d="M23.97 337.34L17.2 354.24L12.38 351.16L3.95002 348.91L0.650024 351.16V356.74L3.36002 364.93L8.18002 372.47L14.48 376.91L19.54 374.68L33.34 362.48L39.3 356.37L41.16 358.96L46.65 362.74L56.03 363.31L67.91 361.18C67.91 361.18 70.56 367.1 71.43 367.58C72.3 368.06 74.98 368.57 74.98 368.57L77.47 366.36L79.41 362.83L80.31 354.83L79.22 349.39L76.88 345.34L73.38 344.75L69 346.33L67.05 347.28L66.38 347.88L65.17 342.88L64.26 341.85L48.22 347.29L37.45 344.76L23.98 337.35V337.33L23.97 337.34Z" fill="white"/>
<path d="M67.02 350.92C67.02 350.92 57.95 364.85 19.21 349.7L29.03 320.94L33.47 323.6C33.47 323.6 37.14 326.16 37.48 327.06C37.82 327.97 40.25 328.19 40.25 328.19L45.34 326.55L59.89 322.52C56.73 334.73 63.95 337.35 63.95 337.35L65.02 341.85" fill="#4252E2"/>
<path d="M61.58 321.04L61.46 322.29L75.22 323.69L75.34 322.44L61.58 321.04Z" fill="black"/>
<path d="M16.27 334.94C15.5 334.94 14.73 334.86 13.96 334.69C11.5 334.12 9.53999 332.62 8.12999 330.2C6.78999 327.92 6.44999 325.49 7.12999 322.99C9.01999 315.94 18.23 310.67 18.61 310.45L19.23 311.54C19.14 311.59 10.09 316.78 8.33999 323.32C7.75999 325.49 8.04999 327.59 9.21999 329.57C10.45 331.67 12.15 332.98 14.25 333.47C19.25 334.63 25.05 330.84 25.11 330.8L25.8 331.84C25.58 331.98 21.07 334.93 16.28 334.94H16.27Z" fill="black"/>
<path d="M14.52 376.95C11.21 376.95 7.66002 373.98 4.56002 368.5C0.820019 361.85 -2.01998 351.2 1.85002 348.97C6.92002 346.05 14.38 351.42 16.67 353.22L23.38 336.57L27.63 320.77L28.84 321.1L24.55 337.01L17.18 355.3L16.51 354.72C16.42 354.64 7.61002 347.08 2.47002 350.05C-0.0899801 351.53 1.51002 360.53 5.65002 367.89C6.99002 370.27 11.75 377.84 16.63 375.15C26.75 369.58 38.7 355.43 38.81 355.28L39.76 356.08C39.27 356.67 27.54 370.56 17.22 376.24C16.34 376.72 15.44 376.95 14.5 376.95H14.52Z" fill="black"/>
<path d="M73.76 369.21C73.13 369.21 72.53 369.07 71.94 368.81C69.11 367.54 67.66 363.5 67.2 361.94C46.43 367.06 40.22 361.47 38.67 355.84L39.88 355.51C41.29 360.65 47.22 365.7 67.49 360.58L68.11 360.43L68.25 361.05C68.25 361.11 69.56 366.37 72.45 367.68C73.47 368.13 74.55 368.05 75.78 367.4C78.22 366.1 79.64 361.57 79.38 355.86C79.15 350.78 77.63 346.38 75.84 345.62C71.8 343.91 66.7 347.92 66.65 347.96L65.87 346.99C66.1 346.81 71.62 342.48 76.33 344.47C79 345.6 80.42 350.97 80.64 355.8C80.86 360.73 79.86 366.65 76.39 368.5C75.49 368.98 74.62 369.21 73.78 369.21H73.76Z" fill="black"/>
<path d="M63.83 337.45C61.48 336.64 59.87 335.2 59.03 333.17C57.05 328.34 60.23 321.91 60.36 321.64L61.48 322.2C61.45 322.26 58.42 328.4 60.19 332.71C60.87 334.4 62.24 335.59 64.23 336.28L63.83 337.47V337.45Z" fill="black"/>
<path d="M62.75 337.39L62.59 336.15L70.31 335.15H70.38C70.52 335.17 84.92 336.22 86 329.58C86.75 324.99 86.4 321.87 85.02 320.56C84.22 319.8 83.04 319.61 81.43 319.96C79.2 320.45 78.37 323.07 78.08 324.59C77.88 325.63 78.08 326.68 78.67 327.47C79.42 328.5 80.47 328.76 81.9 328.29L82.3 329.48C80.38 330.12 78.73 329.67 77.66 328.21C76.88 327.14 76.58 325.73 76.85 324.35C77.21 322.53 78.24 319.39 81.16 318.74C83.17 318.3 84.77 318.61 85.87 319.65C87.6 321.29 88.06 324.69 87.23 329.78C86 337.38 71.6 336.5 70.34 336.4L62.74 337.38L62.76 337.4L62.75 337.39Z" fill="black"/>
<path d="M73.8 326.24L72.63 325.8C72.71 325.61 74.5 320.95 78.68 320.56L78.8 321.8C75.4 322.13 73.82 326.21 73.8 326.24Z" fill="black"/>
<path d="M15.19 373.34L14.03 372.88C14.19 372.48 17.86 362.87 6.88 354.96L7.61 353.95C19.41 362.45 15.24 373.24 15.2 373.35L15.19 373.34Z" fill="black"/>
<path d="M23.91 317.82L22.22 319.69L23.15 320.53L24.84 318.66L23.91 317.82Z" fill="black"/>
<path d="M72.77 308.36L68.66 312.25L67.42 316.47L71.37 312.16L72.77 308.35V308.36Z" fill="black"/>
<path d="M50.02 356.71C38.93 356.71 25.44 354.27 18.49 350.27L19.12 349.19C29.16 354.97 54.41 357.45 63.43 353.54C65.09 352.82 66.09 351.93 66.39 350.91L63.05 336.86L64.26 336.57L67.66 350.91L67.63 351.05C67.28 352.54 66.03 353.76 63.92 354.68C60.72 356.07 55.69 356.7 50.03 356.7L50.02 356.71Z" fill="black"/>
<path d="M36.28 324.76L37.12 326.74L39.66 327.82L42.59 327.61L44.16 326.49L42.84 325.97L36.28 324.76Z" fill="white"/>
<path d="M40.24 328.57C39.81 328.57 39.37 328.51 38.96 328.4C36.22 327.64 35.1 324.65 35.06 324.52L36.24 324.09C36.24 324.09 37.19 326.62 39.32 327.19C40.8 327.59 42.53 327.01 44.5 325.43L45.28 326.4C43.49 327.84 41.8 328.56 40.26 328.56L40.24 328.57Z" fill="black"/>
<path d="M27.12 325.13C27.12 325.13 43.43 339.96 48.53 344.31L50.94 341.07C50.94 341.07 35.09 327.73 30.09 322.53L28.19 321.23L27.12 325.12V325.13Z" fill="#E8C221"/>
<path d="M48.63 345.23L48.12 344.8C43.08 340.49 26.86 325.75 26.7 325.61L26.42 325.35L27.82 320.24L30.54 322.11C35.47 327.22 51.19 340.46 51.34 340.6L51.79 340.98L48.63 345.23ZM27.82 324.93C29.94 326.86 43.31 339 48.42 343.4L50.08 341.16C47.47 338.95 34.21 327.7 29.68 323.01L28.56 322.24L27.83 324.92L27.82 324.93Z" fill="black"/>
<path d="M61.45 337H52.22C49.72 337 47.69 339.03 47.69 341.53V346.8C47.69 349.3 49.72 351.33 52.22 351.33H61.45C63.95 351.33 65.98 349.3 65.98 346.8V341.53C65.98 339.03 63.95 337 61.45 337Z" fill="#E8C221"/>
<path d="M61.28 351.95H52.38C49.45 351.95 47.06 349.56 47.06 346.63V341.69C47.06 338.76 49.45 336.37 52.38 336.37H61.28C64.21 336.37 66.6 338.76 66.6 341.69V346.63C66.6 349.56 64.21 351.95 61.28 351.95ZM52.39 337.63C50.14 337.63 48.32 339.45 48.32 341.7V346.65C48.32 348.9 50.14 350.72 52.39 350.72H61.29C63.54 350.72 65.36 348.9 65.36 346.65V341.7C65.36 339.45 63.54 337.63 61.29 337.63H52.39Z" fill="black"/>
<path d="M65.79 345.66H51.71C50.03 345.66 48.66 344.36 48.66 342.75V341.21H49.91V342.75C49.91 343.67 50.72 344.41 51.71 344.41H65.79V345.66Z" fill="black"/>
<path d="M17.51 292.28L13.43 307.85L4.17004 297.66L17.51 292.28Z" fill="black"/>
<path d="M15.16 297.35C17 297.35 18.5 295.86 18.5 294.01C18.5 292.16 17.01 290.67 15.16 290.67C13.31 290.67 11.82 292.16 11.82 294.01C11.82 295.86 13.31 297.35 15.16 297.35Z" fill="white"/>
<path d="M15.16 297.97C12.97 297.97 11.2 296.2 11.2 294.01C11.2 291.82 12.97 290.05 15.16 290.05C17.35 290.05 19.12 291.82 19.12 294.01C19.12 296.2 17.35 297.97 15.16 297.97ZM15.16 291.3C13.67 291.3 12.45 292.51 12.45 294.01C12.45 295.51 13.66 296.72 15.16 296.72C16.66 296.72 17.87 295.51 17.87 294.01C17.87 292.51 16.66 291.3 15.16 291.3Z" fill="#040000"/>
<path d="M75.32 293.25C78.37 307.52 67.89 321.85 51.9 325.27C35.92 328.68 20.48 319.89 17.44 305.62C17.17 304.34 17 303.06 16.94 301.77C16.32 288.85 26.31 276.7 40.86 273.59C56.84 270.18 72.28 278.97 75.32 293.24V293.25Z" fill="white"/>
<path d="M45.01 326.63C31.42 326.63 19.49 318.22 16.82 305.76C16.54 304.46 16.37 303.14 16.31 301.82C16 295.37 18.28 288.91 22.73 283.62C27.21 278.3 33.59 274.52 40.73 273C57.02 269.52 72.82 278.54 75.94 293.13C79.05 307.72 68.33 322.41 52.04 325.9C49.68 326.4 47.33 326.65 45.02 326.65L45.01 326.63ZM47.75 273.5C45.53 273.5 43.27 273.73 40.98 274.22C27.01 277.21 16.95 289.05 17.55 301.75C17.61 303 17.77 304.26 18.04 305.49C20.58 317.37 31.99 325.38 44.99 325.38C47.21 325.38 49.47 325.15 51.76 324.66C67.38 321.32 77.67 307.29 74.7 293.39C72.16 281.51 60.75 273.5 47.75 273.5Z" fill="black"/>
<path d="M34.54 280.83C34.54 280.83 33.07 293.26 41.98 295.89C41.98 295.89 39.76 287.28 44.35 283.25C48.94 279.22 50.97 296.38 59.25 301.03C63.18 303.24 65.79 303.05 67.44 302.25C70.06 300.98 68.47 306.28 68.26 309.19C68.08 311.78 68.21 311.53 67.49 316.76C67.49 316.76 86.06 306.68 80.91 283.48C75.65 259.79 54.22 259.45 48.07 258.75C42.48 258.11 12.97 262.97 14.89 293.56L16.15 301.28C16.15 301.28 19.52 289.31 27.22 283.77C34.62 278.43 34.53 280.81 34.53 280.81L34.54 280.83Z" fill="black"/>
<path d="M31.65 309.34C31.18 308.24 32.16 307.08 33.33 307.35C36.83 308.18 40.76 308.8 45.07 307.8C49.57 306.76 43.63 319.85 38.59 317.97C34.55 316.46 32.84 312.14 31.65 309.33V309.34Z" fill="black"/>
<path d="M39.63 318.79C39.21 318.79 38.78 318.71 38.37 318.56C34.24 317.02 32.42 312.75 31.22 309.91L31.08 309.57C30.77 308.85 30.9 308.02 31.4 307.42C31.91 306.81 32.7 306.55 33.47 306.74C36.74 307.52 40.66 308.18 44.93 307.19C46.16 306.91 46.73 307.5 46.97 307.87C47.98 309.5 46.4 313.42 44.36 315.92C42.82 317.8 41.18 318.78 39.64 318.78L39.63 318.79ZM32.23 309.09L32.37 309.43C33.56 312.22 35.18 316.03 38.81 317.39C40.69 318.09 42.64 316.05 43.39 315.13C45.39 312.7 46.46 309.42 45.91 308.54C45.87 308.47 45.76 308.29 45.22 308.41C40.7 309.45 36.6 308.77 33.19 307.96C32.88 307.88 32.57 307.99 32.36 308.23C32.16 308.47 32.11 308.79 32.23 309.09Z" fill="black"/>
<path d="M34.87 315.24C34.87 315.24 43.8 311.69 45.46 313.88C45.46 313.88 42.3 318.19 39.96 318.31C37.63 318.43 34.87 315.24 34.87 315.24Z" fill="#F74D5A"/>
<path d="M72.73 307.18C74.73 305.58 75.31 302.98 74.02 301.36C72.73 299.75 70.06 299.73 68.06 301.33C66.06 302.93 65.48 305.53 66.77 307.15C68.06 308.77 70.73 308.78 72.73 307.18Z" fill="white"/>
<path d="M30.36 303.16C31.18 303.16 31.84 302.18 31.84 300.98C31.84 299.78 31.18 298.8 30.36 298.8C29.54 298.8 28.88 299.78 28.88 300.98C28.88 302.18 29.54 303.16 30.36 303.16Z" fill="black"/>
<path d="M48.15 304.24C48.97 304.24 49.63 303.26 49.63 302.06C49.63 300.86 48.97 299.88 48.15 299.88C47.33 299.88 46.67 300.86 46.67 302.06C46.67 303.26 47.33 304.24 48.15 304.24Z" fill="black"/>
<path d="M29.77 293.08L29.45 294.29L31.3 294.78L31.62 293.57L29.77 293.08Z" fill="black"/>
<path d="M48.18 293.86L45.71 294.23L45.9 295.47L48.37 295.1L48.18 293.86Z" fill="black"/>
<path d="M79.97 297.97L84.05 313.54L93.31 303.34L79.97 297.97Z" fill="black"/>
<path d="M79.78 302.04C81.62 302.04 83.12 300.55 83.12 298.7C83.12 296.85 81.63 295.36 79.78 295.36C77.93 295.36 76.44 296.85 76.44 298.7C76.44 300.55 77.93 302.04 79.78 302.04Z" fill="white"/>
<path d="M79.78 302.67C77.59 302.67 75.82 300.9 75.82 298.71C75.82 296.52 77.59 294.75 79.78 294.75C81.97 294.75 83.74 296.52 83.74 298.71C83.74 300.9 81.97 302.67 79.78 302.67ZM79.78 296C78.29 296 77.07 297.21 77.07 298.71C77.07 300.21 78.28 301.42 79.78 301.42C81.28 301.42 82.49 300.21 82.49 298.71C82.49 297.21 81.28 296 79.78 296Z" fill="#040000"/>
<path d="M29.09 307.25C28.96 307.25 28.83 307.21 28.72 307.13C28.44 306.93 28.38 306.53 28.59 306.25L29.78 304.61C29.98 304.33 30.38 304.26 30.66 304.48C30.94 304.68 31 305.08 30.79 305.36L29.6 307C29.47 307.16 29.29 307.26 29.09 307.26V307.25Z" fill="#EFA0B5"/>
<path d="M49.08 308.14C48.96 308.14 48.84 308.11 48.73 308.03C48.44 307.84 48.36 307.45 48.55 307.16L49.66 305.47C49.85 305.18 50.24 305.1 50.53 305.29C50.82 305.48 50.9 305.87 50.71 306.16L49.6 307.85C49.48 308.03 49.28 308.13 49.08 308.13V308.14Z" fill="#EFA0B5"/>
<path d="M53.5 307.96C53.38 307.96 53.26 307.93 53.15 307.85C52.86 307.66 52.78 307.27 52.97 306.98L54.08 305.29C54.27 305 54.66 304.92 54.95 305.11C55.24 305.3 55.32 305.69 55.13 305.98L54.02 307.67C53.9 307.85 53.7 307.95 53.5 307.95V307.96Z" fill="#EFA0B5"/>
<path d="M81.12 287.9C80.88 287.9 80.65 287.85 80.43 287.76C63.61 280.39 40.58 277.78 25.97 277.78C22.52 277.78 19.58 277.92 17.47 278.2H17.36C17.26 278.2 17.18 278.18 17.13 278.17C16.12 277.98 15.41 277.08 15.48 276.07C15.55 275.02 16.42 274.19 17.48 274.19H17.61C17.61 274.19 17.81 274.19 18.14 274.23C24.21 264.31 35.44 258.16 47.52 258.16C49.75 258.16 51.99 258.37 54.2 258.78C67.73 261.3 78.53 271.18 81.83 284.01C82.28 284.18 82.65 284.51 82.87 284.95C83.12 285.42 83.17 285.97 83 286.47C82.73 287.31 81.96 287.9 81.12 287.9Z" fill="#F2C873"/>
<path d="M47.52 258.79C49.68 258.79 51.88 258.99 54.09 259.4C67.9 261.97 78.28 272.15 81.31 284.49C81.38 284.51 81.44 284.53 81.51 284.55C82.23 284.78 82.64 285.55 82.41 286.28C82.23 286.86 81.69 287.27 81.13 287.27C80.98 287.27 80.83 287.24 80.69 287.17C63.23 279.53 39.87 277.14 25.98 277.14C22.4 277.14 19.45 277.29 17.39 277.56H17.36C17.36 277.56 17.26 277.56 17.22 277.54C16.55 277.41 16.05 276.8 16.1 276.1C16.15 275.37 16.76 274.81 17.47 274.81H17.56C17.56 274.81 17.91 274.83 18.47 274.87C24.35 265.04 35.39 258.78 47.54 258.78L47.52 258.79ZM47.52 257.53C35.35 257.53 24.04 263.66 17.78 273.58C17.68 273.58 17.63 273.58 17.62 273.58H17.47C16.08 273.58 14.93 274.66 14.85 276.05C14.76 277.37 15.69 278.56 16.99 278.8C17.06 278.82 17.19 278.85 17.36 278.85C17.43 278.85 17.49 278.85 17.55 278.85C19.64 278.58 22.55 278.44 25.98 278.44C40.53 278.44 63.46 281.04 80.19 288.36C80.49 288.49 80.81 288.56 81.13 288.56C82.24 288.56 83.26 287.79 83.61 286.69C83.82 286.02 83.75 285.31 83.44 284.68C83.2 284.22 82.82 283.84 82.38 283.59C78.94 270.67 68 260.73 54.34 258.19C52.09 257.78 49.81 257.56 47.54 257.56L47.52 257.53Z" fill="black"/>
<path d="M79.27 279.06C52.37 270.53 30.47 270.35 21.54 270.75C20.86 271.55 20.21 272.38 19.61 273.24C26.64 272.76 50.55 272.1 80.41 281.94C80.07 280.97 79.7 280 79.26 279.07L79.27 279.06Z" fill="white"/>
<path d="M24.66 307.22C24.53 307.22 24.4 307.18 24.29 307.1C24.01 306.9 23.95 306.5 24.16 306.22L25.35 304.58C25.55 304.3 25.95 304.24 26.23 304.45C26.51 304.65 26.57 305.05 26.36 305.33L25.17 306.97C25.04 307.13 24.86 307.23 24.66 307.23V307.22Z" fill="#EFA0B5"/>
<path d="M26.71 307.27C26.58 307.27 26.45 307.23 26.34 307.15C26.06 306.95 26 306.55 26.21 306.27L27.4 304.63C27.6 304.35 28 304.28 28.28 304.5C28.56 304.7 28.62 305.1 28.41 305.38L27.22 307.02C27.09 307.18 26.91 307.28 26.71 307.28V307.27Z" fill="#EFA0B5"/>
<path d="M51.13 308.09C51.01 308.09 50.89 308.06 50.78 307.98C50.49 307.79 50.41 307.4 50.6 307.11L51.71 305.42C51.9 305.13 52.29 305.05 52.58 305.24C52.87 305.43 52.95 305.82 52.76 306.11L51.65 307.8C51.53 307.98 51.33 308.08 51.13 308.08V308.09Z" fill="#EFA0B5"/>
<path d="M68.11 305.82C68.11 305.82 69.54 302.7 72.11 304.03" stroke="#1C1C1C" stroke-width="0.8" stroke-miterlimit="10"/>
<mask id="mask1_307_1884" style="mask-type:luminance" maskUnits="userSpaceOnUse" x="64" y="213" width="45" height="129">
<path d="M108.34 213.19H64.59V341.4H108.34V213.19Z" fill="white"/>
</mask>
<g mask="url(#mask1_307_1884)">
<path d="M81.27 319.24C81.27 319.24 81.96 311.04 84.83 305.03C88.44 297.49 83.18 280.68 87.58 260.76" stroke="#0C0C0C" stroke-miterlimit="10"/>
<path d="M86.47 256.45C98.28 256.45 107.86 246.87 107.86 235.06C107.86 223.25 98.28 213.67 86.47 213.67C74.66 213.67 65.08 223.25 65.08 235.06C65.08 246.87 74.66 256.45 86.47 256.45Z" fill="#28D7D7" stroke="black" stroke-miterlimit="10"/>
<path d="M86.91 256.45L85.91 260.92C85.8 261.41 86.21 261.86 86.71 261.8L89.59 261.4C90.12 261.33 90.39 260.73 90.09 260.28L87.54 256.44H86.9L86.91 256.45Z" fill="#28D7D7" stroke="black" stroke-miterlimit="10"/>
<path d="M102.45 234.53C104.45 233.45 104.42 229.51 102.38 225.73C100.34 221.95 97.07 219.75 95.07 220.83C93.07 221.91 93.1 225.85 95.14 229.63C97.18 233.41 100.45 235.61 102.45 234.53Z" fill="white"/>
<path d="M80.77 328.75C80.77 328.75 79.62 339.65 82.55 340.95" stroke="#0C0C0C" stroke-miterlimit="10"/>
<path d="M104.4 239.45C104.66 238.06 104.34 236.84 103.7 236.72C103.06 236.6 102.33 237.63 102.07 239.02C101.81 240.41 102.13 241.63 102.77 241.75C103.41 241.87 104.14 240.84 104.4 239.45Z" fill="white"/>
</g>
<path d="M137.82 345.35C155.35 345.35 169.56 343.492 169.56 341.2C169.56 338.908 155.35 337.05 137.82 337.05C120.291 337.05 106.08 338.908 106.08 341.2C106.08 343.492 120.291 345.35 137.82 345.35Z" fill="#EAEDF3"/>
<path d="M113.48 323.77C113.48 323.77 113.19 331.7 114.85 333.56C114.85 333.56 108.49 335.49 109.12 337.39C109.75 339.29 116.94 340.58 121.86 339.88C126.78 339.18 129.07 337.56 129.03 335.17C128.99 332.78 128.89 328.36 129.62 328.25C129.62 328.25 117.46 329.15 113.47 323.77H113.48Z" fill="white"/>
<path d="M140.5 327.57L152.36 327.13C152.36 327.13 154.58 333.09 157.33 332.58C160.08 332.07 162.48 328.24 162.22 324.04C161.96 319.84 161.35 316.81 159.36 316.65C157.37 316.49 151.61 318.09 150.53 316.65C150.53 316.65 147.41 324.74 140.5 327.56V327.57Z" fill="white"/>
<path d="M144.52 293.57L145.64 299.92L147.98 302.09C147.98 302.09 158.42 296.72 162.57 290.29L163.4 289.28C163.4 289.28 169.2 288.35 169.03 287.08C168.86 285.81 167.25 285.89 167.25 285.89C167.25 285.89 171.08 283.76 170.57 282.61C170.06 281.46 166.56 282.83 166.56 282.83C166.56 282.83 168.84 279.02 167.8 278.23C166.76 277.44 163.59 280.53 163.59 280.53C163.59 280.53 163.24 277.21 162.21 277.45C161.18 277.69 160.04 281.08 160.04 281.08C160.04 281.08 159.12 279.95 158.58 280.58C158.04 281.21 158.31 283.8 158.31 283.8V285.81L144.53 293.58L144.52 293.57Z" fill="white"/>
<path d="M119.01 291.34L114.48 310.39C114.48 310.39 125.34 319.47 137.21 316.25C149.08 313.03 152.98 308.19 152.98 308.19C152.98 308.19 150.08 304.58 147.38 301.69C147.38 301.69 143.42 296.87 144.1 293.51C144.1 293.51 132.08 300.52 119.01 291.34Z" fill="#4252E2"/>
<path d="M116.66 312.56L112.38 322.6C112.38 322.6 116.41 326.13 119.83 327.34C123.25 328.55 127.61 331.21 131.72 327.11L134.33 329.04C134.33 329.04 139.09 328.88 142.72 325.89C146.35 322.9 150.98 316.95 151.59 315.28L146.4 311.77L116.65 312.56H116.66Z" fill="#4252E2"/>
<path d="M120.49 288.32L113.49 275.82C113.49 275.82 117.73 272.4 116.96 271.36C116.19 270.32 113.68 271.62 113.68 271.62C113.68 271.62 116.5 267.41 114.06 267.31C113.21 267.28 111.14 269.16 111.14 269.16C111.14 269.16 110.18 265.61 108.78 265.5C107.38 265.39 107.59 269.7 107.59 269.7C107.59 269.7 103.51 266.66 102.78 267.95C102.05 269.24 105.14 271.93 105.14 271.93C105.14 271.93 101.72 272.03 102.73 273.56C103.74 275.09 107.7 276.59 107.7 276.59C107.7 276.59 106.56 291.03 117 299" fill="white"/>
<path d="M120.49 288.32L113.49 275.82C113.49 275.82 117.73 272.4 116.96 271.36C116.19 270.32 113.68 271.62 113.68 271.62C113.68 271.62 116.5 267.41 114.06 267.31C113.21 267.28 111.14 269.16 111.14 269.16C111.14 269.16 110.18 265.61 108.78 265.5C107.38 265.39 107.59 269.7 107.59 269.7C107.59 269.7 103.51 266.66 102.78 267.95C102.05 269.24 105.14 271.93 105.14 271.93C105.14 271.93 101.72 272.03 102.73 273.56C103.74 275.09 107.7 276.59 107.7 276.59C107.7 276.59 106.56 291.03 117 299" stroke="black" stroke-width="1.2" stroke-linejoin="round"/>
<path d="M139.65 327.56C146.89 327.74 152.37 327.14 152.37 327.14C152.37 327.14 154.18 333.33 158.46 332.54C162.74 331.75 164.01 316.08 159.06 316.69C156.03 317.06 153.15 317.33 151.04 316.94" stroke="black" stroke-width="1.2" stroke-miterlimit="10"/>
<path d="M129.87 328.4C129.87 328.4 128.76 328.75 129.03 335.17C129.3 341.59 112.7 340.52 109.76 338.38C106.82 336.24 114.85 333.56 114.85 333.56C113.39 330.86 113.07 327.41 113.29 324.04" stroke="black" stroke-width="1.2" stroke-miterlimit="10"/>
<path d="M119.17 291.65C119.17 291.65 115.96 299.45 114.47 310.12C114.47 310.12 132.09 325.8 152.76 308.59C154.1 307.47 148.82 302.95 148.82 302.95C148.82 302.95 144.42 299.85 144.52 293.57" stroke="black" stroke-width="1.2" stroke-miterlimit="10"/>
<path d="M118.5 294.5C118.5 294.5 128.5 308.06 136.71 313.35L137.02 308.6C137.02 308.6 133.93 307.79 119.34 290.04L118.34 293.97L118.5 294.5Z" fill="#E8C221" stroke="black" stroke-width="1.2" stroke-miterlimit="10"/>
<path d="M146.04 304.87L147.65 302.08L150.54 304.6L147.99 308.49L146.04 304.87Z" fill="#E8C221" stroke="black" stroke-width="1.2" stroke-miterlimit="10"/>
<path d="M143.312 304.965L137.455 307.058C135.64 307.706 134.694 309.703 135.343 311.518L136.476 314.692C137.125 316.507 139.122 317.453 140.937 316.804L146.794 314.712C148.61 314.063 149.555 312.066 148.907 310.251L147.773 307.078C147.125 305.262 145.127 304.317 143.312 304.965Z" fill="#E8C221" stroke="black" stroke-width="1.2" stroke-miterlimit="10"/>
<path d="M137.02 310.43L137.4 311.48C137.71 312.34 138.69 312.77 139.6 312.45L148.43 309.3" stroke="black" stroke-width="1.2" stroke-miterlimit="10"/>
<path d="M155.12 271.77C157.78 281.96 150.68 292.64 139.26 295.63C127.84 298.61 116.42 292.77 113.76 282.57C113.52 281.65 113.36 280.73 113.27 279.81C112.41 270.51 117.41 260.74 127.8 258.02C139.22 255.04 152.45 261.57 155.11 271.76L155.12 271.77Z" fill="white" stroke="black" stroke-width="1.2" stroke-miterlimit="10"/>
<path d="M149.48 288.76L147.36 280.37L146.09 271.46L145.19 274.97L117.18 269.04L118.09 264.89C113.6 271.31 113.2 278.18 113.2 278.18L112.41 272.58C111.48 250.47 134.41 247.84 138.33 248.4C142.65 249.01 155.67 249.25 159.01 266.44C162.16 282.65 148.56 291.17 148.56 291.17L149.49 288.76H149.48Z" fill="black"/>
<path d="M151.023 285.999C152.639 285.098 153.36 283.312 152.633 282.01C151.907 280.707 150.008 280.382 148.393 281.283C146.777 282.184 146.056 283.971 146.782 285.273C147.508 286.575 149.407 286.901 151.023 285.999Z" fill="white"/>
<path d="M147.65 284.64C147.65 284.64 149.38 282.23 151.22 283.15" stroke="#1C1C1C" stroke-width="0.83" stroke-miterlimit="10"/>
<path d="M160.055 274.47C159.816 274.446 159.583 274.362 159.387 274.221C146.005 264.81 125.194 259.343 117.026 258.507C116.758 258.479 116.509 258.454 116.269 258.44L116.17 258.429L115.985 258.37C115.222 258.061 114.823 257.246 115.033 256.473C115.242 255.711 115.955 255.221 116.731 255.3C116.811 255.308 116.9 255.318 116.988 255.347L117.271 255.426C122.449 249.914 130.145 247.113 137.934 247.91C140.391 248.162 142.803 248.76 145.119 249.701C154.356 253.441 160.607 262.002 161.135 271.575C161.425 271.786 161.636 272.079 161.731 272.43C161.85 272.845 161.796 273.271 161.597 273.643C161.288 274.205 160.661 274.542 160.044 274.479L160.055 274.47Z" fill="#F2C873"/>
<path d="M137.884 248.498C140.231 248.739 142.595 249.312 144.912 250.253C154.313 254.06 160.198 262.754 160.567 271.919C160.615 271.944 160.653 271.968 160.7 271.993C161.185 272.264 161.355 272.864 161.084 273.349C160.887 273.701 160.493 273.922 160.115 273.883C159.986 273.87 159.849 273.826 159.727 273.743C146.046 264.12 125.065 258.736 117.086 257.92C116.808 257.891 116.549 257.865 116.31 257.851C116.31 257.851 116.232 257.823 116.193 257.808C115.73 257.62 115.469 257.121 115.61 256.633C115.739 256.154 116.193 255.848 116.67 255.897C116.72 255.902 116.78 255.908 116.828 255.923C116.848 255.925 117.073 255.989 117.464 256.099C122.504 250.563 130.113 247.713 137.873 248.507M138.006 247.305C130.157 246.501 122.394 249.275 117.09 254.744C116.991 254.724 116.903 254.705 116.803 254.694C115.729 254.584 114.744 255.268 114.457 256.304C114.167 257.37 114.726 258.493 115.749 258.909C115.816 258.936 115.971 259.002 116.189 259.024C116.458 259.052 116.708 259.067 116.966 259.094C125.074 259.924 145.738 265.356 159.035 274.708C159.316 274.907 159.646 275.032 159.984 275.066C160.839 275.154 161.7 274.699 162.122 273.918C162.406 273.404 162.477 272.808 162.313 272.249C162.201 271.865 161.994 271.533 161.72 271.263C161.085 261.558 154.722 252.915 145.349 249.122C142.974 248.165 140.504 247.55 137.997 247.294L138.006 247.305Z" fill="black"/>
<path d="M159.905 267.78C142.101 257.876 126.624 254.604 120.252 253.61C119.652 254.071 119.077 254.575 118.532 255.092C123.57 255.759 140.585 258.737 160.303 269.982C160.207 269.249 160.072 268.511 159.905 267.78Z" fill="white"/>
<path d="M122.64 273.09L123.83 273.65" stroke="black" stroke-width="0.8" stroke-miterlimit="10"/>
<path d="M133.44 275.8L135.16 275.84" stroke="black" stroke-width="0.8" stroke-miterlimit="10"/>
<path d="M122.45 284.35C122.2 283.57 122.95 282.84 123.72 283.11C126.06 283.91 128.7 284.59 131.71 284.2C134.86 283.79 129.93 292.34 126.62 290.72C123.96 289.42 123.08 286.36 122.45 284.36V284.35Z" fill="black" stroke="black" stroke-width="0.8" stroke-miterlimit="10"/>
<mask id="mask2_307_1884" style="mask-type:luminance" maskUnits="userSpaceOnUse" x="122" y="283" width="11" height="8">
<path d="M122.45 284.35C122.2 283.57 122.95 282.84 123.72 283.11C126.06 283.91 128.7 284.59 131.71 284.2C134.86 283.79 129.93 292.34 126.62 290.72C123.96 289.42 123.08 286.36 122.45 284.36V284.35Z" fill="white"/>
</mask>
<g mask="url(#mask2_307_1884)">
<path d="M124.27 288.59C124.27 288.59 130.6 286.75 131.59 288.36C131.59 288.36 129.15 291.09 127.54 291.02C125.94 290.95 124.26 288.59 124.26 288.59H124.27Z" fill="#F74D5A"/>
</g>
<path d="M123.598 277.762C123.621 276.939 123.182 276.26 122.619 276.245C122.056 276.23 121.581 276.884 121.559 277.707C121.537 278.529 121.975 279.208 122.538 279.224C123.101 279.239 123.576 278.585 123.598 277.762Z" fill="black"/>
<path d="M134.33 279.473C134.352 278.65 133.914 277.971 133.351 277.955C132.788 277.94 132.313 278.594 132.291 279.417C132.268 280.24 132.707 280.919 133.27 280.934C133.833 280.95 134.308 280.295 134.33 279.473Z" fill="black"/>
<path d="M118.49 279.96L117.5 280.93" stroke="#EFA0B5" stroke-width="0.8" stroke-miterlimit="10" stroke-linecap="round"/>
<path d="M119.88 280.22L118.89 281.19" stroke="#EFA0B5" stroke-width="0.8" stroke-miterlimit="10" stroke-linecap="round"/>
<path d="M121.48 280.48L120.49 281.45" stroke="#EFA0B5" stroke-width="0.8" stroke-miterlimit="10" stroke-linecap="round"/>
<path d="M135.32 281.91L134.33 282.88" stroke="#EFA0B5" stroke-width="0.8" stroke-miterlimit="10" stroke-linecap="round"/>
<path d="M136.71 282.18L135.72 283.15" stroke="#EFA0B5" stroke-width="0.8" stroke-miterlimit="10" stroke-linecap="round"/>
<path d="M138.31 282.44L137.32 283.41" stroke="#EFA0B5" stroke-width="0.8" stroke-miterlimit="10" stroke-linecap="round"/>
<path d="M147.98 302.09C154.9 300.08 163.4 289.28 163.4 289.28C163.4 289.28 169.2 288.57 169.03 286.99C168.91 285.88 166.86 286.09 166.86 286.09C166.86 286.09 170.69 284.04 170.69 283.15C170.69 280.92 166.42 283.05 166.42 283.05C166.42 283.05 168.9 278.7 167.63 278.11C166.36 277.52 163.2 280.9 163.2 280.9C163.2 280.9 164.21 277.44 162.2 277.44C160.62 277.44 160.08 281.44 160.08 281.44C160.08 281.44 159.29 280.12 158.4 280.64C157.28 281.3 158.4 285.25 158.4 285.25L145.24 293.13" stroke="black" stroke-width="1.2" stroke-linecap="round" stroke-linejoin="round"/>
<path d="M126.86 318.83C131.72 328.71 134.39 328.7 134.39 328.7C134.39 328.7 144.36 329.38 151.59 315.28L148.42 313.23" stroke="black" stroke-width="1.2" stroke-miterlimit="10"/>
<path d="M116.69 311.51L111.99 322.71C111.99 322.71 125.58 333.28 131.72 327.11" stroke="black" stroke-width="1.2" stroke-miterlimit="10"/>
</g>
<defs>
<clipPath id="clip0_307_1884">
<rect width="272.43" height="181.93" fill="white" transform="translate(0 201)"/>
</clipPath>
</defs>
</svg>
