<svg width="134" height="134" viewBox="0 0 134 134" fill="none" xmlns="http://www.w3.org/2000/svg">
<path opacity="0.29" d="M56 67.7271L55.9264 67.7271C55.6025 68.6852 54.3215 69.399 52.7903 69.399L10.2097 69.399C8.67849 69.399 7.38281 68.6852 7.07362 67.727L7 67.727L7 71.9998L56 71.9998L56 67.7271Z" fill="#9297AD"/>
<path d="M43.8169 40.1444C44.2228 40.1444 44.5519 39.8287 44.5519 39.4394C44.5519 39.05 44.2228 38.7344 43.8169 38.7344C43.4109 38.7344 43.0819 39.05 43.0819 39.4394C43.0819 39.8287 43.4109 40.1444 43.8169 40.1444Z" fill="#141414"/>
<path d="M47.18 40.1444C47.5859 40.1444 47.915 39.8287 47.915 39.4394C47.915 39.05 47.5859 38.7344 47.18 38.7344C46.774 38.7344 46.445 39.05 46.445 39.4394C46.445 39.8287 46.774 40.1444 47.18 40.1444Z" fill="#141414"/>
<path d="M50.5321 40.1444C50.938 40.1444 51.2671 39.8287 51.2671 39.4394C51.2671 39.05 50.938 38.7344 50.5321 38.7344C50.1261 38.7344 49.7971 39.05 49.7971 39.4394C49.7971 39.8287 50.1261 40.1444 50.5321 40.1444Z" fill="#141414"/>
<path d="M53.5389 36H9.27182C8.01713 36 7 36.9756 7 38.1791V69.9041C7 71.1076 8.01713 72.0832 9.27182 72.0832H53.5389C54.7936 72.0832 55.8107 71.1076 55.8107 69.9041V38.1791C55.8107 36.9756 54.7936 36 53.5389 36Z" stroke="#141414" stroke-miterlimit="10"/>
<path d="M9.38322 42.5264H52.7482" stroke="#141414" stroke-miterlimit="10"/>
<path d="M25.2859 47.5259H12.9468C11.852 47.5259 10.9646 48.3771 10.9646 49.4272V62.3522C10.9646 63.4023 11.852 64.2536 12.9468 64.2536H25.2859C26.3807 64.2536 27.2682 63.4023 27.2682 62.3522V49.4272C27.2682 48.3771 26.3807 47.5259 25.2859 47.5259Z" stroke="#141414" stroke-miterlimit="10"/>
<path d="M32.0234 49.9077H41.9793" stroke="#141414" stroke-miterlimit="10"/>
<path d="M32.0234 54.0415H51.9241" stroke="#141414" stroke-miterlimit="10"/>
<path d="M32.0234 58.165H51.9241" stroke="#141414" stroke-miterlimit="10"/>
<path d="M32.0234 62.8433H51.9241" stroke="#141414" stroke-miterlimit="10"/>
<path d="M22.6519 54.7003C22.6519 57.554 18.8268 60 18.8268 60C18.8268 60 15.0016 57.554 15.0016 54.7003C15.0016 53.7248 15.4114 52.793 16.1249 52.1087C16.8383 51.4244 17.8097 51.0312 18.8268 51.0312C19.8438 51.0312 20.8152 51.4244 21.5287 52.1087C22.2421 52.793 22.6519 53.7248 22.6519 54.7003Z" fill="#F35A5A" stroke="black" stroke-width="0.8" stroke-linecap="round" stroke-linejoin="round"/>
<path d="M18.8268 55.9231C19.525 55.9231 20.1018 55.3698 20.1018 54.7001C20.1018 54.0303 19.525 53.4771 18.8268 53.4771C18.1285 53.4771 17.5517 54.0303 17.5517 54.7001C17.5517 55.3698 18.1285 55.9231 18.8268 55.9231Z" fill="white" stroke="black" stroke-width="0.8" stroke-linecap="round" stroke-linejoin="round"/>
<path d="M60.9499 87.8499C60.6799 87.5999 54.3799 82.6399 49.7699 79.0199C47.1499 76.9699 43.3499 77.5299 41.4499 80.2599C39.4699 83.0799 40.3899 86.9999 43.4099 88.6599L55.4399 95.2699" fill="#4252E2"/>
<path d="M60.9499 87.8499C60.6799 87.5999 54.3799 82.6399 49.7699 79.0199C47.1499 76.9699 43.3499 77.5299 41.4499 80.2599C39.4699 83.0799 40.3899 86.9999 43.4099 88.6599L55.4399 95.2699" stroke="black" stroke-miterlimit="10"/>
<path d="M125 79.6199C124.52 40.8299 92.8799 40.8299 87.8999 41.0699C87.5299 41.0899 87.1699 41.0899 86.8099 41.0799C81.8199 40.9599 50.1999 41.7499 50.6799 80.5399C50.6799 80.5399 49.1699 110.26 88.0999 109.89C88.0999 109.89 88.1699 109.89 88.2099 109.89C88.2499 109.89 88.2799 109.89 88.3199 109.89C127.24 109.29 125 79.6099 125 79.6099V79.6199Z" fill="#4252E2" stroke="black" stroke-miterlimit="10"/>
<path d="M79.2899 92.8296C68.0099 92.8296 60.0599 90.4396 55.6699 85.7196C52.0599 81.8396 52.3099 77.7296 52.3099 77.6896C52.2399 72.1296 53.9199 67.5996 57.2899 64.1896C64.0299 57.3696 75.5699 56.8396 78.9499 56.8396C79.3399 56.8396 79.5999 56.8396 79.7299 56.8496C79.9799 56.8396 80.5699 56.8096 81.4399 56.8096C87.5399 56.8096 107.47 58.2596 107.7 76.9596C107.7 77.0396 108.06 81.1896 104.5 85.1696C100.17 90.0096 91.7899 92.6596 80.2899 92.8296H79.2999H79.2899Z" fill="white"/>
<path d="M81.4299 57.2998C87.4199 57.2998 106.96 58.7198 107.19 76.9598V76.9998V77.0398C107.2 77.1998 107.52 81.0398 104.09 84.8498C99.8499 89.5698 91.6099 92.1498 80.2599 92.3198H80.1799H80.0899C79.8099 92.3198 79.5399 92.3198 79.2699 92.3198C68.3099 92.3198 60.2799 89.9198 56.0399 85.3898C52.5699 81.6798 52.7799 77.8698 52.7999 77.7098V77.6698V77.6298C52.7299 72.2498 54.3599 67.8398 57.6299 64.5298C64.2299 57.8498 75.5999 57.3298 78.9299 57.3298C79.3099 57.3298 79.5699 57.3298 79.6899 57.3398H79.7399H79.7899C79.9999 57.3298 80.5699 57.2998 81.4199 57.2998M81.4299 56.2998C80.5499 56.2998 79.9499 56.3298 79.7399 56.3398C79.6099 56.3398 79.3399 56.3298 78.9399 56.3298C74.1599 56.3298 51.5599 57.3998 51.8099 77.6498C51.8099 77.6498 50.6099 93.3298 79.2899 93.3298C79.5599 93.3298 79.8399 93.3298 80.1199 93.3298C80.1199 93.3298 80.1799 93.3298 80.2099 93.3298C80.2399 93.3298 80.2699 93.3298 80.2899 93.3298C109.82 92.8998 108.2 76.9498 108.2 76.9498C107.96 57.7698 87.6399 56.2998 81.4399 56.2998H81.4299Z" fill="#2942AA"/>
<path d="M79.2499 78.0898C79.2699 79.8798 77.1399 81.3698 74.4999 81.3998C71.8599 81.4298 69.6899 79.9998 69.6699 78.2098" fill="white"/>
<path d="M79.2499 78.0898C79.2699 79.8798 77.1399 81.3698 74.4999 81.3998C71.8599 81.4298 69.6899 79.9998 69.6699 78.2098" stroke="black" stroke-miterlimit="10" stroke-linecap="round"/>
<path d="M60.4599 79.3901L58.9399 81.6701" stroke="#EFA0B5" stroke-miterlimit="10" stroke-linecap="round"/>
<path d="M63.2299 79.3301L61.7199 81.6101" stroke="#EFA0B5" stroke-miterlimit="10" stroke-linecap="round"/>
<path d="M66.4299 79.1699L64.9199 81.4499" stroke="#EFA0B5" stroke-miterlimit="10" stroke-linecap="round"/>
<path d="M91.9899 79.3901L90.4699 81.6701" stroke="#EFA0B5" stroke-miterlimit="10" stroke-linecap="round"/>
<path d="M94.7599 79.3301L93.2499 81.6101" stroke="#EFA0B5" stroke-miterlimit="10" stroke-linecap="round"/>
<path d="M97.9599 79.1699L96.4499 81.4499" stroke="#EFA0B5" stroke-miterlimit="10" stroke-linecap="round"/>
<path d="M86.8791 81.1681C89.2868 81.1383 91.1975 77.7878 91.1467 73.6847C91.0958 69.5815 89.1027 66.2794 86.6949 66.3093C84.2872 66.3391 82.3765 69.6896 82.4273 73.7927C82.4782 77.8959 84.4713 81.1979 86.8791 81.1681Z" fill="black"/>
<path d="M58.9399 73.04H67.5099" stroke="black" stroke-miterlimit="10"/>
<path opacity="0.22" d="M87.4399 86.94C94.7301 86.94 100.64 81.0302 100.64 73.74C100.64 66.4499 94.7301 60.54 87.4399 60.54C80.1498 60.54 74.2399 66.4499 74.2399 73.74C74.2399 81.0302 80.1498 86.94 87.4399 86.94Z" fill="#BDE9FF"/>
<path d="M93.3699 86.8497L99.1199 95.4497C99.6699 96.2697 100.77 96.4997 101.59 95.9697C102.44 95.4197 102.68 94.2797 102.12 93.4397L96.4099 84.9297L93.3699 86.8497Z" fill="white" stroke="black" stroke-miterlimit="10"/>
<path d="M87.7499 88.2999C80.6399 88.2999 74.4099 83.0399 73.3999 75.7999C72.8699 71.9699 73.8599 68.1499 76.1899 65.0599C78.5199 61.9699 81.9199 59.9799 85.7599 59.4399C93.6699 58.3199 101.01 63.8799 102.11 71.7999C103.21 79.7199 97.6699 87.0499 89.7499 88.1499C89.0799 88.2399 88.4099 88.2899 87.7399 88.2899L87.7499 88.2999Z" stroke="black" stroke-width="2" stroke-miterlimit="10"/>
<path d="M115.02 85.48C114.66 85.55 106.95 87.75 101.31 89.36C98.1099 90.27 96.3399 93.68 97.4299 96.83C98.5599 100.09 102.26 101.65 105.38 100.17L117.79 94.31" fill="#4252E2"/>
<path d="M115.02 85.48C114.66 85.55 106.95 87.75 101.31 89.36C98.1099 90.27 96.3399 93.68 97.4299 96.83C98.5599 100.09 102.26 101.65 105.38 100.17L117.79 94.31" stroke="black" stroke-miterlimit="10"/>
<path d="M103.2 48.1802L111.75 35.7902C113.25 34.4802 113.53 32.3402 112.38 31.0202C111.22 29.6902 109.07 29.6802 107.57 30.9902L94.2199 41.7002" fill="#4252E2"/>
<path d="M103.2 48.1802L111.75 35.7902C113.25 34.4802 113.53 32.3402 112.38 31.0202C111.22 29.6902 109.07 29.6802 107.57 30.9902L94.2199 41.7002" stroke="black" stroke-miterlimit="10"/>
<path d="M110.96 37.04C113.456 37.04 115.48 35.0163 115.48 32.52C115.48 30.0237 113.456 28 110.96 28C108.464 28 106.44 30.0237 106.44 32.52C106.44 35.0163 108.464 37.04 110.96 37.04Z" fill="#4252E2" stroke="black" stroke-miterlimit="10"/>
<path d="M112.895 33.6013C113.452 33.5165 113.816 32.8724 113.708 32.1626C113.599 31.4528 113.06 30.9462 112.503 31.031C111.946 31.1158 111.583 31.76 111.691 32.4697C111.799 33.1795 112.338 33.6862 112.895 33.6013Z" fill="white"/>
<path d="M87.35 124.22C104.548 124.22 118.49 121.932 118.49 119.11C118.49 116.288 104.548 114 87.35 114C70.1518 114 56.21 116.288 56.21 119.11C56.21 121.932 70.1518 124.22 87.35 124.22Z" fill="#EAEDF3"/>
<path d="M28.1738 77C28.1738 77 28.6538 77 29.2438 77.22" stroke="black" stroke-miterlimit="10"/>
<path d="M30.8938 78.4502C31.6738 79.5802 32.0538 81.5602 30.8738 85.0702C28.3238 92.6702 24.1138 97.6702 35.8438 101.87" stroke="black" stroke-miterlimit="10"/>
<path d="M36.8439 102.22C37.1839 102.33 37.5339 102.44 37.8939 102.55" stroke="black" stroke-miterlimit="10"/>
</svg>
