<svg width="134" height="134" viewBox="0 0 134 134" fill="none" xmlns="http://www.w3.org/2000/svg">
<path d="M107.889 76.0745C107.272 33.2085 72.3547 33.2168 66.7809 33.5001C61.2071 33.2252 26.2894 33.2085 25.6728 76.0745C25.6728 76.0745 23.1317 108.901 66.1977 109.651H66.4476C66.5643 109.651 66.6726 109.651 66.7809 109.651C66.8975 109.651 67.0058 109.651 67.1142 109.651H67.3641C110.43 108.901 107.889 76.0745 107.889 76.0745Z" fill="#4252E2" stroke="black" stroke-width="1.3" stroke-linejoin="round"/>
<path d="M97.6176 72.185C97.326 51.356 75.1973 49.748 68.4321 49.748C67.7072 49.748 67.1657 49.7647 66.8158 49.7814C66.4658 49.7647 65.9243 49.748 65.1994 49.748C58.4342 49.748 36.3055 51.356 36.0139 72.185C36.0139 72.235 35.5806 76.8424 39.5548 81.3248C44.4121 86.7986 53.3936 89.6897 66.2659 89.9313H66.8158H67.349H67.3656C80.2379 89.6897 89.2194 86.7986 94.0767 81.3248C98.0509 76.8424 97.626 72.2267 97.6176 72.185Z" fill="white" stroke="#2942AA" stroke-width="1.3" stroke-miterlimit="10"/>
<path d="M51.36 77L50 79.26" stroke="#EFA0B5" stroke-miterlimit="10"/>
<path d="M53.2992 77L51.9492 79.26" stroke="#EFA0B5" stroke-miterlimit="10"/>
<path d="M55.2604 77L53.9004 79.26" stroke="#EFA0B5" stroke-miterlimit="10"/>
<path d="M80.3209 77L78.9609 79.26" stroke="#EFA0B5" stroke-miterlimit="10"/>
<path d="M82.2699 77L80.9199 79.26" stroke="#EFA0B5" stroke-miterlimit="10"/>
<path d="M84.2211 77L82.8711 79.26" stroke="#EFA0B5" stroke-miterlimit="10"/>
<path d="M71.8574 72.0781C71.8774 73.8681 69.7474 75.3581 67.1074 75.3881C64.4674 75.4181 62.2973 73.9881 62.2773 72.1981" fill="white"/>
<path d="M71.8574 72.0781C71.8774 73.8681 69.7474 75.3581 67.1074 75.3881C64.4674 75.4181 62.2973 73.9881 62.2773 72.1981" stroke="black" stroke-width="1.3" stroke-miterlimit="10" stroke-linecap="round"/>
<path d="M53.6272 74.993C55.4851 74.993 56.9848 72.8185 56.9848 70.1274C56.9848 67.4363 55.4851 65.2617 53.6272 65.2617C51.7692 65.2617 50.2695 67.4363 50.2695 70.1274C50.2695 72.8185 51.7692 74.993 53.6272 74.993Z" fill="black"/>
<path d="M79.9392 74.993C81.7971 74.993 83.2968 72.8185 83.2968 70.1274C83.2968 67.4363 81.7971 65.2617 79.9392 65.2617C78.0812 65.2617 76.5815 67.4363 76.5815 70.1274C76.5815 72.8185 78.0812 74.993 79.9392 74.993Z" fill="black"/>
<path d="M66.8123 129.959C84.0215 129.959 97.9723 127.666 97.9723 124.839C97.9723 122.011 84.0215 119.719 66.8123 119.719C49.6032 119.719 35.6523 122.011 35.6523 124.839C35.6523 127.666 49.6032 129.959 66.8123 129.959Z" fill="#EAEDF3"/>
<path d="M84.897 44.6711L89.9489 30.4904C91.0587 28.8368 90.7753 26.6973 89.3228 25.7199C87.8581 24.7354 85.7788 25.2822 84.669 26.9358L74.5458 40.7361" fill="#4252E2"/>
<path d="M84.897 44.6711L89.9489 30.4904C91.0587 28.8368 90.7753 26.6973 89.3228 25.7199C87.8581 24.7354 85.7788 25.2822 84.669 26.9358L74.5458 40.7361" stroke="black" stroke-width="1.3" stroke-miterlimit="10"/>
<path d="M89.5192 31.9C91.9304 31.2539 93.3614 28.7754 92.7153 26.3642C92.0692 23.9529 89.5907 22.5219 87.1795 23.168C84.7682 23.8141 83.3372 26.2926 83.9833 28.7039C84.6294 31.1151 87.1079 32.5461 89.5192 31.9Z" fill="#4252E2" stroke="black" stroke-width="1.3" stroke-miterlimit="10"/>
<path d="M90.4889 28.0737C91.0049 27.8476 91.1896 27.1312 90.9015 26.4736C90.6133 25.816 89.9615 25.4662 89.4455 25.6922C88.9295 25.9183 88.7448 26.6347 89.0329 27.2923C89.3211 27.9499 89.9729 28.2997 90.4889 28.0737Z" fill="white"/>
<path d="M39.8229 64.8516C42.2242 64.8516 43.6355 67.002 43.9023 67.8917C41.7678 68.5272 37.4587 69.5314 37.2986 68.4637C37.0985 67.1291 36.8212 64.8516 39.8229 64.8516Z" fill="#111111" stroke="#111111"/>
<path d="M15.3257 69.6936C14.7759 67.0859 16.8818 64.6799 19.5393 64.8796L42.604 66.6122C44.3782 66.7455 45.8512 68.0348 46.2183 69.7758L52.45 99.3319C52.9998 101.94 50.8939 104.346 48.2364 104.146L25.1718 102.413C23.3975 102.28 21.9245 100.991 21.5575 99.2497L15.3257 69.6936Z" fill="#F2C873" stroke="#111111" stroke-width="1.3"/>
<path d="M12.1673 67.4752C11.3106 63.8935 13.9519 62.998 15.3797 62.998L40.2222 64.9168C36.7957 64.9168 37.0812 67.9016 37.6523 69.394C39.9367 76.0032 44.9766 90.2876 46.8612 94.5516C48.7458 98.8156 46.647 100.024 45.362 100.095C39.7939 99.8816 28.0151 99.3273 25.4452 98.8156C22.8753 98.3039 22.09 96.8968 22.0187 96.2572C19.0918 88.1556 13.0239 71.057 12.1673 67.4752Z" fill="white" stroke="#111111" stroke-width="1.3"/>
<path d="M13.5484 87.998C11.9484 83.998 14.215 80.3314 15.5484 78.998L17.5488 81.998C20.5488 81.8314 25.5 81.2998 29.5 86.4998C33.5 91.6998 28.4512 95.088 26 94.4998C21.8332 93.4998 15.1484 91.998 13.5484 87.998Z" fill="#4252E2" stroke="#111111" stroke-width="1.3" stroke-linejoin="round"/>
<path d="M102.134 79.8714C101.771 79.7443 96.5691 78.6906 90.6199 77.152C87.2463 76.276 83.898 78.3588 83.2826 81.7134C82.6476 85.1861 85.2162 88.5064 88.8078 88.837L100.232 89.6791" fill="#4252E2"/>
<path d="M102.134 79.8714C101.771 79.7443 96.5691 78.6906 90.6199 77.152C87.2463 76.276 83.898 78.3588 83.2826 81.7134C82.6476 85.1861 85.2162 88.5064 88.8078 88.837L100.232 89.6791" stroke="#111111" stroke-width="1.3" stroke-miterlimit="10"/>
<path d="M36.0414 106.601C35.6351 107.932 35.9772 109.993 39.5244 112.562C45.5864 116.952 49.6961 119.713 45.2535 125.532" stroke="black" stroke-width="1.3" stroke-miterlimit="10"/>
<path d="M44.8218 126.07C44.6792 126.243 44.5298 126.415 44.3724 126.591" stroke="black" stroke-width="1.3" stroke-miterlimit="10"/>
</svg>
