<svg width="134" height="134" viewBox="0 0 134 134" fill="none" xmlns="http://www.w3.org/2000/svg">
<path opacity="0.4" d="M49.335 65.1999H49.145V76.8899C49.145 77.5899 48.575 78.1499 47.885 78.1499H2.78503V78.3399C2.78503 79.0599 3.36503 79.6399 4.08503 79.6399H49.335C50.055 79.6399 50.635 79.0599 50.635 78.3399V66.4899C50.635 65.7699 50.055 65.1899 49.335 65.1899V65.1999Z" fill="#9297AD"/>
<path opacity="0.4" d="M49.335 48.0798H49.145V59.7698C49.145 60.4698 48.575 61.0298 47.885 61.0298H2.78503V61.2198C2.78503 61.9398 3.36503 62.5198 4.08503 62.5198H49.335C50.055 62.5198 50.635 61.9398 50.635 61.2198V49.3698C50.635 48.6498 50.055 48.0698 49.335 48.0698V48.0798Z" fill="#9297AD"/>
<path opacity="0.4" d="M49.335 30.9001H49.145V42.5901C49.145 43.2901 48.575 43.8501 47.885 43.8501H2.78503V44.0401C2.78503 44.7601 3.36503 45.3401 4.08503 45.3401H49.335C50.055 45.3401 50.635 44.7601 50.635 44.0401V32.1901C50.635 31.4701 50.055 30.8901 49.335 30.8901V30.9001Z" fill="#9297AD"/>
<mask id="mask0_1646_21401" style="mask-type:luminance" maskUnits="userSpaceOnUse" x="43" y="23" width="88" height="91">
<path d="M130.255 23H43.745V113.08H130.255V23Z" fill="white"/>
</mask>
<g mask="url(#mask0_1646_21401)">
<path d="M129.205 80.6201C127.045 42.4101 95.855 43.7901 90.955 44.2401C90.585 44.2701 90.245 44.2901 89.885 44.3101C84.965 44.4101 53.835 46.5601 55.995 84.7701C55.995 84.7701 55.805 114.13 94.155 112.08H94.265C94.265 112.08 94.345 112.08 94.375 112.08C132.705 109.79 129.205 80.6401 129.205 80.6401V80.6201Z" fill="#4252E2" stroke="black" stroke-miterlimit="10"/>
<path d="M87.685 95.1599C65.775 95.1599 65.435 82.9199 65.435 82.4099C64.945 76.8899 66.295 72.3299 69.425 68.7599C76.225 61.0099 89.075 60.2599 90.515 60.1899C90.935 60.1299 92.805 59.8999 95.405 59.8999C103.705 59.8999 117.835 62.1999 119.185 77.5699C119.195 77.6799 119.825 81.5999 116.715 85.6699C112.865 90.6799 104.925 93.8499 93.715 94.8699H93.585C91.505 95.0599 89.525 95.1499 87.695 95.1499L87.685 95.1599Z" fill="white"/>
<path d="M95.405 60.7398C103.415 60.7398 117.055 62.9398 118.365 77.6598V77.7398L118.385 77.7998C118.405 77.9398 118.935 81.4698 116.015 85.2298C112.305 90.0198 104.565 93.0798 93.635 94.0598H93.485C91.465 94.2498 89.515 94.3398 87.695 94.3398C66.695 94.3398 66.275 82.8898 66.275 82.4298V82.2898C65.815 77.0798 67.085 72.7198 70.065 69.3298C76.755 61.7098 90.005 61.0698 90.565 61.0498H90.715C91.045 60.9898 92.855 60.7598 95.415 60.7598M95.405 59.0798C92.775 59.0798 90.895 59.3098 90.485 59.3698C88.815 59.4398 62.695 60.8698 64.595 82.4098C64.595 82.4098 64.595 95.9898 87.675 95.9898C89.505 95.9898 91.475 95.8998 93.615 95.7198H93.795C122.805 93.0898 120.025 77.5298 120.025 77.5298C118.585 61.2898 103.485 59.0898 95.415 59.0898V59.0698L95.405 59.0798Z" fill="#2942AA"/>
<path d="M97.505 82.8501C97.655 84.6101 95.675 86.2301 93.085 86.4601C90.495 86.6901 88.245 85.4401 88.085 83.6901" fill="white"/>
<path d="M97.505 82.8501C97.655 84.6101 95.675 86.2301 93.085 86.4601C90.495 86.6901 88.245 85.4401 88.085 83.6901" stroke="black" stroke-miterlimit="10" stroke-linecap="round"/>
<path d="M73.665 86.21L72.335 88.56" stroke="#EFA0B5" stroke-miterlimit="10" stroke-linecap="round"/>
<path d="M76.395 85.9502L75.065 88.3002" stroke="#EFA0B5" stroke-miterlimit="10" stroke-linecap="round"/>
<path d="M79.525 85.5601L78.195 87.9101" stroke="#EFA0B5" stroke-miterlimit="10" stroke-linecap="round"/>
<path d="M106.555 83.3101L105.225 85.6601" stroke="#EFA0B5" stroke-miterlimit="10" stroke-linecap="round"/>
<path d="M109.285 83.04L107.955 85.39" stroke="#EFA0B5" stroke-miterlimit="10" stroke-linecap="round"/>
<path d="M112.415 82.6401L111.085 84.9901" stroke="#EFA0B5" stroke-miterlimit="10" stroke-linecap="round"/>
<path d="M80.215 84.39C81.775 84.25 82.845 81.99 82.605 79.34C82.375 76.69 80.915 74.65 79.365 74.79C77.805 74.93 76.735 77.19 76.975 79.84C77.205 82.49 78.665 84.53 80.215 84.39Z" fill="black"/>
<path d="M104.655 82.2201C106.215 82.0801 107.285 79.8201 107.045 77.1701C106.815 74.5201 105.355 72.4801 103.805 72.6201C102.245 72.7601 101.175 75.0201 101.415 77.6701C101.655 80.3201 103.105 82.3601 104.655 82.2201Z" fill="black"/>
<path d="M66.395 90.1998C66.065 90.0498 58.635 87.3299 53.205 85.3499C50.125 84.2299 46.735 85.9198 45.785 89.0598C44.795 92.3098 46.855 95.6998 50.195 96.3398L63.495 98.8498" fill="#4252E2"/>
<path d="M66.395 90.1998C66.065 90.0498 58.635 87.3299 53.205 85.3499C50.125 84.2299 46.735 85.9198 45.785 89.0598C44.795 92.3098 46.855 95.6998 50.195 96.3398L63.495 98.8498" stroke="black" stroke-miterlimit="10"/>
<path d="M122.625 88.2601C122.275 88.1801 114.445 87.0701 108.715 86.2701C105.475 85.8101 102.505 88.18 102.235 91.45C101.945 94.83 104.665 97.73 108.065 97.64L121.605 97.31" fill="#4252E2"/>
<path d="M122.625 88.2601C122.275 88.1801 114.445 87.0701 108.715 86.2701C105.475 85.8101 102.505 88.18 102.235 91.45C101.945 94.83 104.665 97.73 108.065 97.64L121.605 97.31" stroke="black" stroke-miterlimit="10"/>
<path d="M103.825 46.3798L107.125 32.1998C108.135 30.2498 107.565 27.9298 105.835 27.0298C104.105 26.1298 101.875 26.9998 100.865 28.9498L92.305 44.5998" fill="#4252E2"/>
<path d="M104.235 45.7801L106.465 34.0401C107.475 32.0901 106.905 29.7701 105.175 28.8701C103.445 27.9701 101.215 28.8401 100.205 30.7901L92.305 44.6001" stroke="black" stroke-miterlimit="10"/>
<path d="M105.025 35.93C107.755 35.54 109.655 33.01 109.255 30.28C108.855 27.55 106.335 25.65 103.605 26.04C100.875 26.43 98.975 28.96 99.365 31.69C99.755 34.42 102.285 36.32 105.025 35.93Z" fill="#4252E2" stroke="black" stroke-miterlimit="10"/>
<path d="M106.655 32.7102C107.235 32.4802 107.465 31.6902 107.165 30.9602C106.865 30.2202 106.155 29.8202 105.585 30.0502C105.005 30.2802 104.775 31.0702 105.075 31.8002C105.375 32.5402 106.085 32.9402 106.655 32.7102Z" fill="white"/>
</g>
<mask id="mask1_1646_21401" style="mask-type:luminance" maskUnits="userSpaceOnUse" x="60" y="119" width="67" height="11">
<path d="M126.875 119.71H60.5551V129.16H126.875V119.71Z" fill="white"/>
</mask>
<g mask="url(#mask1_1646_21401)">
<path d="M93.7151 129.16C112.025 129.16 126.875 127.05 126.875 124.44C126.875 121.83 112.025 119.72 93.7151 119.72C75.4051 119.72 60.5551 121.83 60.5551 124.44C60.5551 127.05 75.4051 129.16 93.7151 129.16Z" fill="#EAEDF3"/>
</g>
<mask id="mask2_1646_21401" style="mask-type:luminance" maskUnits="userSpaceOnUse" x="1" y="30" width="51" height="80">
<path d="M51.595 30.6299H1.745V109.92H51.595V30.6299Z" fill="white"/>
</mask>
<g mask="url(#mask2_1646_21401)">
<path d="M26.605 83.8398C26.605 83.8398 27.085 83.8398 27.675 84.0598" stroke="black" stroke-miterlimit="10"/>
<path d="M29.325 85.2896C30.105 86.4196 30.485 88.3996 29.305 91.9096C26.755 99.5096 22.545 104.51 34.275 108.71" stroke="black" stroke-miterlimit="10"/>
<path d="M35.275 109.06C35.615 109.17 35.965 109.28 36.325 109.39" stroke="black" stroke-miterlimit="10"/>
<path d="M49.285 31.1797H4.545C3.575 31.1797 2.785 31.9697 2.785 32.9397V43.9597C2.785 44.9297 3.575 45.7197 4.545 45.7197H49.285C50.255 45.7197 51.045 44.9297 51.045 43.9597V32.9397C51.045 31.9697 50.255 31.1797 49.285 31.1797Z" stroke="#141414" stroke-miterlimit="10"/>
<path d="M11.785 38.7596C12.955 38.7596 13.895 37.8096 13.895 36.6496C13.895 35.4896 12.945 34.5396 11.785 34.5396C10.625 34.5396 9.67502 35.4896 9.67502 36.6496C9.67502 37.8096 10.625 38.7596 11.785 38.7596Z" stroke="black" stroke-miterlimit="10"/>
<path d="M7.45502 42.3597C7.45502 40.8997 9.38502 39.7197 11.785 39.7197C14.185 39.7197 16.115 40.8997 16.115 42.3597" stroke="black" stroke-miterlimit="10"/>
<path d="M49.285 48.3799H4.545C3.575 48.3799 2.785 49.1699 2.785 50.1399V61.1599C2.785 62.1299 3.575 62.9199 4.545 62.9199H49.285C50.255 62.9199 51.045 62.1299 51.045 61.1599V50.1399C51.045 49.1699 50.255 48.3799 49.285 48.3799Z" stroke="#141414" stroke-miterlimit="10"/>
<path d="M11.785 55.9597C12.955 55.9597 13.895 55.0097 13.895 53.8497C13.895 52.6897 12.945 51.7397 11.785 51.7397C10.625 51.7397 9.67502 52.6897 9.67502 53.8497C9.67502 55.0097 10.625 55.9597 11.785 55.9597Z" stroke="black" stroke-miterlimit="10"/>
<path d="M7.45502 59.5497C7.45502 58.0897 9.38502 56.9097 11.785 56.9097C14.185 56.9097 16.115 58.0897 16.115 59.5497" stroke="black" stroke-miterlimit="10"/>
<path d="M49.285 65.5796H4.545C3.575 65.5796 2.785 66.3696 2.785 67.3396V78.3596C2.785 79.3296 3.575 80.1196 4.545 80.1196H49.285C50.255 80.1196 51.045 79.3296 51.045 78.3596V67.3396C51.045 66.3696 50.255 65.5796 49.285 65.5796Z" stroke="#141414" stroke-miterlimit="10"/>
<path d="M11.785 73.1595C12.955 73.1595 13.895 72.2095 13.895 71.0495C13.895 69.8895 12.945 68.9395 11.785 68.9395C10.625 68.9395 9.67502 69.8895 9.67502 71.0495C9.67502 72.2095 10.625 73.1595 11.785 73.1595Z" stroke="black" stroke-miterlimit="10"/>
<path d="M7.45502 76.7396C7.45502 75.2796 9.38502 74.0996 11.785 74.0996C14.185 74.0996 16.115 75.2796 16.115 76.7396" stroke="black" stroke-miterlimit="10"/>
<path d="M21.515 38.5396H34.705" stroke="#141414" stroke-miterlimit="10"/>
<path d="M21.515 55.6499H34.705" stroke="#141414" stroke-miterlimit="10"/>
<path d="M21.515 73.1597H34.705" stroke="#141414" stroke-miterlimit="10"/>
</g>
</svg>
