<svg width="134" height="134" viewBox="0 0 134 134" fill="none" xmlns="http://www.w3.org/2000/svg">
<path d="M5 105H71.5" stroke="#111111" stroke-width="1.2"/>
<path fill-rule="evenodd" clip-rule="evenodd" d="M12.5 27C11.9477 27 11.5 27.4477 11.5 28V104C11.5 104.552 11.9477 105 12.5 105H41.5C42.0523 105 42.5 104.552 42.5 104V28C42.5 27.4477 42.0523 27 41.5 27H12.5Z" fill="white" stroke="#111111" stroke-width="1.2" stroke-miterlimit="10"/>
<path d="M21.5 20.1805C21.5 19.5625 22.0549 19.0925 22.6644 19.1941L62.6644 25.8607C63.1466 25.9411 63.5 26.3583 63.5 26.8471V104.153C63.5 104.642 63.1466 105.059 62.6644 105.139L22.6644 111.806C22.0549 111.908 21.5 111.437 21.5 110.82V20.1805Z" fill="#F2C873" stroke="#111111" stroke-width="1.2" stroke-miterlimit="10"/>
<circle cx="31.5" cy="65.5" r="4.5" fill="white" stroke="#111111" stroke-width="1.2" stroke-miterlimit="10"/>
<path d="M89.5 121C73.2076 121 60 118.761 60 116C60 113.239 73.2076 111 89.5 111C105.792 111 119 113.239 119 116C119 118.761 105.792 121 89.5 121Z" fill="#EAEDF3"/>
<path d="M52.209 58.033C53.7818 59.7702 60.0579 61.3281 62.6004 60.942L57.507 71.0798C54.8905 71.3212 49.6743 69.6032 47.3932 68.7141C40.596 65.0642 40.2238 60.0471 40.7548 58.4056C41.0083 56.2212 45.9176 51.0842 52.209 58.033Z" fill="#4252E2"/>
<path d="M62.6004 60.942C60.0579 61.3281 53.7818 59.7702 52.209 58.033C45.9176 51.0842 41.0083 56.2212 40.7548 58.4056C40.2238 60.0471 40.596 65.0642 47.3932 68.7141C49.6743 69.6032 54.8905 71.3212 57.507 71.0798" stroke="#111111" stroke-width="1.3" stroke-linecap="square"/>
<path d="M53.0231 67.5564C56.3798 29.6515 87.3167 31.9993 92.1727 32.6122C92.531 32.6593 92.8799 32.6876 93.2382 32.7065C98.1225 32.9611 129.672 37.3361 125.646 73.9871C125.646 73.9871 124.911 103.17 86.8641 99.9171C86.8641 99.9171 86.7887 99.9171 86.751 99.9171C86.7132 99.9171 86.6755 99.9171 86.6378 99.9171C48.6102 96.4378 53.0137 67.5847 53.0137 67.5847L53.0231 67.5564Z" fill="#4252E2" stroke="#111111" stroke-width="1.3" stroke-miterlimit="10"/>
<mask id="mask0_1808_18774" style="mask-type:luminance" maskUnits="userSpaceOnUse" x="53" y="33" width="72" height="67">
<path d="M53.5372 66.3173C58.008 29.5027 88.2519 32.7511 92.9951 33.4978C93.3426 33.5538 93.6902 33.5912 94.0377 33.6192C98.8185 34.0205 128.978 38.0156 124.507 74.8209C124.507 74.8209 122.873 103.216 85.6971 98.8755C85.6971 98.8755 85.622 98.8755 85.5938 98.8662C85.5657 98.8568 85.5281 98.8662 85.4905 98.8568C48.3338 94.2923 53.5466 66.3173 53.5466 66.3173H53.5372Z" fill="white"/>
</mask>
<g mask="url(#mask0_1808_18774)">
<path d="M76.1495 79.3955C96.7003 79.3955 97.3577 67.5783 97.3765 67.0742C98.0434 61.5483 96.8224 56.8811 93.7416 53.1567C87.1011 45.1385 74.1677 43.9811 72.7118 43.8691C72.214 43.7851 69.7626 43.4023 66.447 43.4023C58.5291 43.4023 44.9663 45.6239 43.163 60.5215C43.1442 60.6055 42.3552 64.61 45.436 68.8664C49.1742 74.047 57.1015 77.51 68.3631 78.8822L68.4946 78.9008C71.2372 79.2182 73.8013 79.3862 76.1588 79.3862L76.1495 79.3955Z" fill="white"/>
<path d="M66.4471 43.8787C58.6795 43.8787 45.3891 46.0536 43.6234 60.5872V60.6245L43.614 60.6619C43.5858 60.8206 42.8626 64.5356 45.8306 68.6241C49.4937 73.6739 57.2988 77.0623 68.4102 78.4251H68.4947L68.5792 78.4438C71.2655 78.7612 73.8108 78.9198 76.159 78.9198C96.2026 78.9198 96.8976 67.532 96.9164 67.0559V67.0186V66.9812C97.5645 61.6327 96.3716 57.0775 93.3754 53.4651C86.8664 45.6056 74.102 44.4575 72.6744 44.3455H72.6274L72.5804 44.3361C72.1296 44.2615 69.7157 43.8881 66.4377 43.8881M66.4471 42.9453C69.7909 42.9453 72.2705 43.328 72.7401 43.412C74.4026 43.5334 100.429 45.7829 97.8463 67.0932C97.8463 67.0932 97.4424 79.8626 76.1496 79.8626C73.839 79.8626 71.2843 79.7133 68.4571 79.3772C68.4571 79.3772 68.4008 79.3772 68.3726 79.3772C68.3444 79.3772 68.3162 79.3772 68.288 79.3679C39.4155 75.8488 42.6841 60.4845 42.6841 60.4845C44.525 45.3069 58.1535 42.9546 66.4377 42.9546L66.4471 42.9453Z" fill="#2942AA"/>
</g>
<path d="M70.3828 69.0951C70.8256 67.3908 69.1384 65.4771 66.6337 64.8321C64.1289 64.1871 61.7294 65.0324 61.2866 66.7368" fill="white"/>
<path d="M70.3828 69.0951C70.8256 67.3908 69.1384 65.4771 66.6337 64.8321C64.1289 64.1871 61.7294 65.0324 61.2866 66.7368" stroke="#111111" stroke-width="1.3" stroke-miterlimit="10" stroke-linecap="round"/>
<path d="M82.6214 69.2539L83.7246 71.696" stroke="#EFA0B5" stroke-width="1.3" stroke-miterlimit="10" stroke-linecap="round"/>
<path d="M79.9437 68.7578L81.0469 71.2" stroke="#EFA0B5" stroke-width="1.3" stroke-miterlimit="10" stroke-linecap="round"/>
<path d="M76.8791 68.0859L77.9823 70.5375" stroke="#EFA0B5" stroke-width="1.3" stroke-miterlimit="10" stroke-linecap="round"/>
<path d="M77.0777 65.7895C75.55 65.5171 74.688 63.185 75.1523 60.5807C75.6167 57.9763 77.2316 56.0859 78.7594 56.3583C80.2871 56.6307 81.1492 58.9628 80.6848 61.5672C80.2204 64.1715 78.6055 66.0619 77.0777 65.7895Z" fill="#111111"/>
<path d="M59.2215 61.3004C57.7515 61.0383 56.9363 58.7145 57.4007 56.1102C57.8651 53.5058 59.4332 51.607 60.9032 51.8692C62.3732 52.1313 63.1884 54.455 62.724 57.0594C62.2596 59.6637 60.6915 61.5625 59.2215 61.3004Z" fill="#111111"/>
<path d="M74.8389 78.7752C76.4117 80.5124 82.6878 82.0703 85.2303 81.6842L80.1369 91.822C77.5203 92.0634 72.3042 90.3454 70.0231 89.4563C63.2259 85.8064 62.8537 80.7893 63.3847 79.1478C63.6382 76.9634 68.5475 71.8264 74.8389 78.7752Z" fill="#4252E2"/>
<path d="M85.2303 81.6842C82.6878 82.0703 76.4117 80.5124 74.8389 78.7752C68.5475 71.8264 63.6382 76.9634 63.3847 79.1478C62.8537 80.7893 63.2259 85.8064 70.0231 89.4563C72.3042 90.3454 77.5203 92.0634 80.1369 91.822" stroke="#111111" stroke-width="1.3" stroke-linecap="square"/>
<path d="M89.4189 33.048L99.2346 20.743C100.14 18.744 102.299 17.7634 104.062 18.5649C105.826 19.3569 106.533 21.6293 105.628 23.6283L100.442 36.5179" fill="#4252E2"/>
<path d="M89.4189 33.048L99.2346 20.743C100.14 18.744 102.299 17.7634 104.062 18.5649C105.826 19.3569 106.533 21.6293 105.628 23.6283L100.442 36.5179" stroke="#111111" stroke-width="1.3" stroke-miterlimit="10"/>
<path d="M102.931 25.4969C100.187 25.4969 97.9622 23.2721 97.9622 20.5277C97.9622 17.7834 100.187 15.5586 102.931 15.5586C105.676 15.5586 107.901 17.7834 107.901 20.5277C107.901 23.2721 105.676 25.4969 102.931 25.4969Z" fill="#4252E2" stroke="#111111" stroke-width="1.3" stroke-miterlimit="10"/>
<path d="M101.155 18.856C101.067 18.2426 101.627 17.6548 102.406 17.5432C103.184 17.4316 103.886 17.8384 103.974 18.4518C104.062 19.0652 103.502 19.653 102.724 19.7646C101.946 19.8762 101.243 19.4694 101.155 18.856Z" fill="white"/>
</svg>
