<svg width="134" height="134" viewBox="0 0 134 134" fill="none" xmlns="http://www.w3.org/2000/svg">
<path d="M72.14 130.22C89.3382 130.22 103.28 127.932 103.28 125.11C103.28 122.288 89.3382 120 72.14 120C54.9419 120 41 122.288 41 125.11C41 127.932 54.9419 130.22 72.14 130.22Z" fill="#ECEEF5"/>
<path d="M14.7708 11.734C21.6315 9.89567 26.7115 12.3886 28.0934 17.546L28.2329 18.0665C29.057 21.142 28.3719 23.5062 25.0019 28.7198C22.9169 31.9155 22.8046 33.0106 23.3371 34.9978C23.7174 36.4173 22.6808 37.6586 21.214 38.0516C19.6526 38.47 18.1249 38.0679 17.6685 36.3646C16.781 33.0525 16.8324 31.1623 19.4404 27.2686C22.4547 22.8096 22.6963 21.6292 22.1892 19.7366L22.1258 19.5C21.5933 17.5128 19.7521 16.1298 16.0141 17.1314C13.5064 17.8033 11.9366 19.1368 10.5502 20.776C9.54823 21.9574 8.13465 21.9811 6.9187 21.0391C5.71543 20.1445 5.28438 18.5357 6.26102 17.2598C8.09771 14.8406 10.8436 12.7863 14.7708 11.734ZM22.0161 41.2344C24.0507 40.6893 26.0305 41.8323 26.5756 43.8669C27.1208 45.9014 25.9778 47.8812 23.9432 48.4264C21.9086 48.9715 19.9288 47.8285 19.3837 45.7939C18.8385 43.7594 19.9816 41.7796 22.0161 41.2344Z" fill="#D4D6E3" stroke="#BDC0D2" stroke-width="1.3" stroke-miterlimit="10"/>
<path d="M20.2242 75.423C18.8999 82.8227 24.827 90.5438 27.9561 93.4793C31.0045 95.598 33.6903 96.3651 38.3326 93.6345C42.2607 91.3239 38.1385 74.3969 30.2189 71.0676C23.8833 68.4042 20.9159 72.8615 20.2242 75.423Z" fill="#ECEEF5" stroke="#BDC0D2" stroke-width="1.3" stroke-miterlimit="10"/>
<path d="M114.971 77.2094C114.419 32.6439 78.0684 32.6439 72.3469 32.9196C71.9218 32.9426 71.5083 32.9426 71.0947 32.9311C65.3617 32.7932 29.0337 33.7008 29.5852 78.2664C29.5852 78.2664 27.8503 112.411 72.5767 111.986C72.5767 111.986 72.6571 111.986 72.7031 111.986C72.749 111.986 72.7835 111.986 72.8295 111.986C117.544 111.297 114.971 77.1979 114.971 77.1979V77.2094Z" fill="#ECEEF5" stroke="#BDC0D2" stroke-width="1.3" stroke-miterlimit="10"/>
<path d="M62.4727 92.387C49.792 92.387 40.8548 89.6412 35.9197 84.2184C31.8614 79.7607 32.1425 75.0387 32.1537 74.9928C32.075 68.6049 33.9636 63.4005 37.7521 59.4827C45.329 51.6473 58.302 51.0384 62.1017 51.0384C62.5401 51.0384 62.8324 51.0384 62.9786 51.0499C63.2596 51.0384 63.9229 51.0039 64.9009 51.0039C71.7584 51.0039 94.1632 52.6698 94.4217 74.1541C94.4217 74.246 94.8265 79.0139 90.8244 83.5865C85.9567 89.1471 76.5361 92.1917 63.6081 92.387H62.4952H62.4727Z" fill="white"/>
<path d="M64.8769 51.5669C71.6107 51.5669 93.5771 53.1983 93.8356 74.1541V74.2V74.246C93.8469 74.4298 94.2066 78.8416 90.3507 83.2189C85.5842 88.6416 76.321 91.6058 63.5616 91.8011H63.5279H63.3817C63.067 91.8011 62.7634 91.8011 62.4599 91.8011C50.1389 91.8011 41.1118 89.0437 36.3453 83.8393C32.4444 79.5769 32.6805 75.1996 32.703 75.0158V74.9698V74.9238C32.6243 68.7428 34.4567 63.6762 38.1328 59.8734C45.5523 52.1988 58.3342 51.6013 62.0777 51.6013C62.5049 51.6013 62.7972 51.6013 62.9321 51.6128H62.9883H63.0445C63.2805 51.6013 63.9213 51.5669 64.8769 51.5669ZM64.8769 50.418C63.8876 50.418 63.2131 50.4524 62.977 50.4639C62.8309 50.4639 62.5274 50.4524 62.0889 50.4524C56.7154 50.4524 31.2978 51.6817 31.5901 74.9468C31.5901 74.9468 30.241 92.9615 62.4824 92.9615C62.7859 92.9615 63.1007 92.9615 63.4155 92.9615C63.4155 92.9615 63.4829 92.9615 63.5166 92.9615C63.5504 92.9615 63.5841 92.9615 63.6065 92.9615C96.8034 92.4674 94.9823 74.1426 94.9823 74.1426C94.7125 52.1068 71.8693 50.418 64.8994 50.418H64.8769Z" fill="#BDC0D2"/>
<path d="M41.36 76L40 78.26" stroke="#D4D6E3" stroke-miterlimit="10"/>
<path d="M43.2992 76L41.9492 78.26" stroke="#D4D6E3" stroke-miterlimit="10"/>
<path d="M45.2604 76L43.9004 78.26" stroke="#D4D6E3" stroke-miterlimit="10"/>
<path d="M70.3209 77L68.9609 79.26" stroke="#D4D6E3" stroke-miterlimit="10"/>
<path d="M72.2699 77L70.9199 79.26" stroke="#D4D6E3" stroke-miterlimit="10"/>
<path d="M74.2211 77L72.8711 79.26" stroke="#D4D6E3" stroke-miterlimit="10"/>
<path d="M62.4214 75.4404C62.4444 77.4969 59.9973 79.2088 56.9642 79.2433C53.9311 79.2777 51.438 77.6348 51.415 75.5783" fill="white"/>
<path d="M62.4214 75.4404C62.4444 77.4969 59.9973 79.2088 56.9642 79.2433C53.9311 79.2777 51.438 77.6348 51.415 75.5783" stroke="#BDC0D2" stroke-width="1.3" stroke-miterlimit="10" stroke-linecap="round"/>
<path d="M69.4493 75.7882C71.4155 75.7638 72.9813 73.4669 72.9465 70.658C72.9117 67.849 71.2895 65.5917 69.3232 65.616C67.3569 65.6404 65.7912 67.9373 65.826 70.7462C65.8608 73.5552 67.483 75.8125 69.4493 75.7882Z" fill="#BDC0D2"/>
<path d="M44.8653 74.7754C46.6349 74.7534 48.0441 72.6863 48.0128 70.1582C47.9815 67.6301 46.5215 65.5985 44.7518 65.6204C42.9822 65.6424 41.573 67.7096 41.6043 70.2376C41.6357 72.7657 43.0957 74.7973 44.8653 74.7754Z" fill="#BDC0D2"/>
<path d="M103.716 68.1425C105.789 72.2478 104.013 74.1665 102.867 74.6127L113.122 81.1192C121.054 76.0525 116.662 64.4972 115.699 62.2914C114.38 59.2687 108.732 51.3729 103.608 54.1223C97.6105 57.3408 101.125 63.0108 103.716 68.1425Z" fill="#ECEEF5"/>
<path d="M102.823 74.6147C103.97 74.1685 105.745 72.2497 103.673 68.1444C101.082 63.0127 97.5673 57.3428 103.565 54.1243C108.689 51.3749 114.337 59.2706 115.656 62.2934C116.618 64.4992 121.01 76.0545 113.079 81.1211" stroke="#BDC0D2" stroke-width="1.3" stroke-linejoin="round"/>
<path d="M89.9299 41.0875L99.7529 26.8527C101.476 25.3476 101.798 22.889 100.477 21.3725C99.144 19.8444 96.6739 19.833 94.9505 21.338L79.6128 33.6426" fill="#ECEEF5"/>
<path d="M89.9299 41.0875L99.7529 26.8527C101.476 25.3476 101.798 22.889 100.477 21.3725C99.144 19.8444 96.6739 19.833 94.9505 21.338L79.6128 33.6426" stroke="#BDC0D2" stroke-width="1.3" stroke-miterlimit="10"/>
<path d="M98.8568 28.2893C101.725 28.2893 104.05 25.9643 104.05 23.0963C104.05 20.2283 101.725 17.9033 98.8568 17.9033C95.9888 17.9033 93.6638 20.2283 93.6638 23.0963C93.6638 25.9643 95.9888 28.2893 98.8568 28.2893Z" fill="#ECEEF5" stroke="#BDC0D2" stroke-width="1.3" stroke-miterlimit="10"/>
<path d="M101.069 24.3313C101.709 24.2338 102.127 23.4938 102.003 22.6783C101.879 21.8629 101.259 21.2808 100.619 21.3782C99.9796 21.4757 99.5616 22.2158 99.6858 23.0312C99.81 23.8467 100.429 24.4287 101.069 24.3313Z" fill="white"/>
<path d="M119.871 55.7529C121.452 56.9989 124.406 60.8106 123.575 66.0894" stroke="#BDC0D2" stroke-width="1.2"/>
<path d="M127.286 60.6924C127.985 61.7562 129.04 65.078 127.663 69.8548" stroke="#BDC0D2" stroke-width="1.2"/>
</svg>
